  0
SECTION
  2
HEADER
  9
$ACADVER
  1
AC1014
  9
$HANDSEED
  5
FFFF
  9
$MEASUREMENT
 70
     1
  0
ENDSEC
  0
SECTION
  2
TABLES
  0
TABLE
  2
VPORT
  5
8
330
0
100
AcDbSymbolTable
 70
     4
  0
VPORT
  5
2E
330
8
100
AcDbSymbolTableRecord
100
AcDbViewportTableRecord
  2
*ACTIVE
 70
     0
 10
0.0
 20
0.0
 11
1.0
 21
1.0
 12
210.0
 22
148.5
 13
0.0
 23
0.0
 14
10.0
 24
10.0
 15
10.0
 25
10.0
 16
0.0
 26
0.0
 36
1.0
 17
0.0
 27
0.0
 37
0.0
 40
341.0
 41
1.24
 42
50.0
 43
0.0
 44
0.0
 50
0.0
 51
0.0
 71
     0
 72
   100
 73
     1
 74
     3
 75
     0
 76
     0
 77
     0
 78
     0
  0
ENDTAB
  0
TABLE
  2
LTYPE
  5
5
330
0
100
AcDbSymbolTable
 70
     1
  0
LTYPE
  5
14
330
5
100
AcDbSymbolTableRecord
100
AcDbLinetypeTableRecord
  2
BYBLOCK
 70
     0
  3

 72
    65
 73
     0
 40
0.0
  0
LTYPE
  5
15
330
5
100
AcDbSymbolTableRecord
100
AcDbLinetypeTableRecord
  2
BYLAYER
 70
     0
  3

 72
    65
 73
     0
 40
0.0
  0
LTYPE
  5
16
330
5
100
AcDbSymbolTableRecord
100
AcDbLinetypeTableRecord
  2
CONTINUOUS
 70
     0
  3
Solid line
 72
    65
 73
     0
 40
0.0
  0
ENDTAB
  0
TABLE
  2
LAYER
  5
2
100
AcDbSymbolTable
 70
2
  0
LAYER
  5
50
100
AcDbSymbolTableRecord
100
AcDbLayerTableRecord
  2
0
 70
0
  6
CONTINUOUS
  0
LAYER
  5
51
100
AcDbSymbolTableRecord
100
AcDbLayerTableRecord
  2
makeabox.io-20230413081324-mm-100.0[w]x120.0[h]x69.0[d]-3.000[t]-0.0610[k]-0.025[s]
 70
0
  6
CONTINUOUS
  0
ENDTAB
  0
TABLE
  2
STYLE
  5
3
330
0
100
AcDbSymbolTable
 70
     1
  0
STYLE
  5
11
330
3
100
AcDbSymbolTableRecord
100
AcDbTextStyleTableRecord
  2
STANDARD
 70
     0
 40
0.0
 41
1.0
 50
0.0
 71
     0
 42
2.5
  3
txt
  4

  0
ENDTAB
  0
TABLE
  2
VIEW
  5
6
330
0
100
AcDbSymbolTable
 70
     0
  0
ENDTAB
  0
TABLE
  2
UCS
  5
7
330
0
100
AcDbSymbolTable
 70
     0
  0
ENDTAB
  0
TABLE
  2
APPID
  5
9
330
0
100
AcDbSymbolTable
 70
     2
  0
APPID
  5
12
330
9
100
AcDbSymbolTableRecord
100
AcDbRegAppTableRecord
  2
ACAD
 70
     0
  0
ENDTAB
  0
TABLE
  2
DIMSTYLE
  5
A
330
0
100
AcDbSymbolTable
 70
     1
  0
DIMSTYLE
105
27
330
A
100
AcDbSymbolTableRecord
100
AcDbDimStyleTableRecord
  2
ISO-25
 70
     0
  3

  4

  5

  6

  7

 40
1.0
 41
2.5
 42
0.625
 43
3.75
 44
1.25
 45
0.0
 46
0.0
 47
0.0
 48
0.0
140
2.5
141
2.5
142
0.0
143
0.03937007874016
144
1.0
145
0.0
146
1.0
147
0.625
 71
     0
 72
     0
 73
     0
 74
     0
 75
     0
 76
     0
 77
     1
 78
     8
170
     0
171
     3
172
     1
173
     0
174
     0
175
     0
176
     0
177
     0
178
     0
270
     2
271
     2
272
     2
273
     2
274
     3
340
11
275
     0
280
     0
281
     0
282
     0
283
     0
284
     8
285
     0
286
     0
287
     3
288
     0
  0
ENDTAB
  0
TABLE
  2
BLOCK_RECORD
  5
1
330
0
100
AcDbSymbolTable
 70
     1
  0
BLOCK_RECORD
  5
1F
330
1
100
AcDbSymbolTableRecord
100
AcDbBlockTableRecord
  2
*MODEL_SPACE
  0
BLOCK_RECORD
  5
1B
330
1
100
AcDbSymbolTableRecord
100
AcDbBlockTableRecord
  2
*PAPER_SPACE
  0
ENDTAB
  0
ENDSEC
  0
SECTION
  2
BLOCKS
  0
BLOCK
  5
20
330
1F
100
AcDbEntity
  8
0
100
AcDbBlockBegin
  2
*MODEL_SPACE
 70
     0
 10
0.0
 20
0.0
 30
0.0
  3
*MODEL_SPACE
  1

  0
ENDBLK
  5
21
330
1F
100
AcDbEntity
  8
0
100
AcDbBlockEnd
  0
BLOCK
  5
1C
330
1B
100
AcDbEntity
 67
     1
  8
0
100
AcDbBlockBegin
  2
*PAPER_SPACE
  1

  0
ENDBLK
  5
1D
330
1B
100
AcDbEntity
 67
     1
  8
0
100
AcDbBlockEnd
  0
ENDSEC
  0
SECTION
  2
ENTITIES
  0
LWPOLYLINE
  5
100
100
AcDbEntity
  8
makeabox.io-20230413081324-mm-100.0[w]x120.0[h]x69.0[d]-3.000[t]-0.0610[k]-0.025[s]
 62
7
100
AcDbPolyline
 90
3
 70
0
 10
228.710775
 20
39.318879
 30
0.0
 10
228.710775
 20
17.413919
 30
0.0
 10
237.214658
 20
17.413919
 30
0.0
  0
LWPOLYLINE
  5
101
100
AcDbEntity
  8
makeabox.io-20230413081324-mm-100.0[w]x120.0[h]x69.0[d]-3.000[t]-0.0610[k]-0.025[s]
 62
7
100
AcDbPolyline
 90
2
 70
0
 10
237.214658
 20
39.318879
 30
0.0
 10
228.710775
 20
39.318879
 30
0.0
  0
LWPOLYLINE
  5
102
100
AcDbEntity
  8
makeabox.io-20230413081324-mm-100.0[w]x120.0[h]x69.0[d]-3.000[t]-0.0610[k]-0.025[s]
 62
7
100
AcDbPolyline
 90
3
 70
0
 10
228.710775
 20
82.783211
 30
0.0
 10
228.710775
 20
60.878241
 30
0.0
 10
237.214658
 20
60.878241
 30
0.0
  0
LWPOLYLINE
  5
103
100
AcDbEntity
  8
makeabox.io-20230413081324-mm-100.0[w]x120.0[h]x69.0[d]-3.000[t]-0.0610[k]-0.025[s]
 62
7
100
AcDbPolyline
 90
2
 70
0
 10
237.214658
 20
82.783211
 30
0.0
 10
228.710775
 20
82.783211
 30
0.0
  0
LWPOLYLINE
  5
104
100
AcDbEntity
  8
makeabox.io-20230413081324-mm-100.0[w]x120.0[h]x69.0[d]-3.000[t]-0.0610[k]-0.025[s]
 62
7
100
AcDbPolyline
 90
3
 70
0
 10
228.710775
 20
126.247532
 30
0.0
 10
228.710775
 20
104.342572
 30
0.0
 10
237.214658
 20
104.342572
 30
0.0
  0
LWPOLYLINE
  5
105
100
AcDbEntity
  8
makeabox.io-20230413081324-mm-100.0[w]x120.0[h]x69.0[d]-3.000[t]-0.0610[k]-0.025[s]
 62
7
100
AcDbPolyline
 90
2
 70
0
 10
237.214658
 20
126.247532
 30
0.0
 10
228.710775
 20
126.247532
 30
0.0
  0
LWPOLYLINE
  5
106
100
AcDbEntity
  8
makeabox.io-20230413081324-mm-100.0[w]x120.0[h]x69.0[d]-3.000[t]-0.0610[k]-0.025[s]
 62
7
100
AcDbPolyline
 90
3
 70
0
 10
228.710775
 20
169.711863
 30
0.0
 10
228.710775
 20
147.806904
 30
0.0
 10
237.214658
 20
147.806904
 30
0.0
  0
LWPOLYLINE
  5
107
100
AcDbEntity
  8
makeabox.io-20230413081324-mm-100.0[w]x120.0[h]x69.0[d]-3.000[t]-0.0610[k]-0.025[s]
 62
7
100
AcDbPolyline
 90
2
 70
0
 10
237.214658
 20
169.711863
 30
0.0
 10
228.710775
 20
169.711863
 30
0.0
  0
LWPOLYLINE
  5
108
100
AcDbEntity
  8
makeabox.io-20230413081324-mm-100.0[w]x120.0[h]x69.0[d]-3.000[t]-0.0610[k]-0.025[s]
 62
7
100
AcDbPolyline
 90
3
 70
0
 10
228.710775
 20
213.176195
 30
0.0
 10
228.710775
 20
191.271225
 30
0.0
 10
237.214658
 20
191.271225
 30
0.0
  0
LWPOLYLINE
  5
109
100
AcDbEntity
  8
makeabox.io-20230413081324-mm-100.0[w]x120.0[h]x69.0[d]-3.000[t]-0.0610[k]-0.025[s]
 62
7
100
AcDbPolyline
 90
2
 70
0
 10
228.710775
 20
213.176195
 30
0.0
 10
237.214658
 20
213.176195
 30
0.0
  0
LWPOLYLINE
  5
10a
100
AcDbEntity
  8
makeabox.io-20230413081324-mm-100.0[w]x120.0[h]x69.0[d]-3.000[t]-0.0610[k]-0.025[s]
 62
7
100
AcDbPolyline
 90
2
 70
0
 10
237.214658
 20
17.413919
 30
0.0
 10
259.019508
 20
17.413919
 30
0.0
  0
LWPOLYLINE
  5
10b
100
AcDbEntity
  8
makeabox.io-20230413081324-mm-100.0[w]x120.0[h]x69.0[d]-3.000[t]-0.0610[k]-0.025[s]
 62
7
100
AcDbPolyline
 90
2
 70
0
 10
237.214658
 20
60.878241
 30
0.0
 10
237.214658
 20
39.318879
 30
0.0
  0
LWPOLYLINE
  5
10c
100
AcDbEntity
  8
makeabox.io-20230413081324-mm-100.0[w]x120.0[h]x69.0[d]-3.000[t]-0.0610[k]-0.025[s]
 62
7
100
AcDbPolyline
 90
2
 70
0
 10
237.214658
 20
104.342572
 30
0.0
 10
237.214658
 20
82.783211
 30
0.0
  0
LWPOLYLINE
  5
10d
100
AcDbEntity
  8
makeabox.io-20230413081324-mm-100.0[w]x120.0[h]x69.0[d]-3.000[t]-0.0610[k]-0.025[s]
 62
7
100
AcDbPolyline
 90
2
 70
0
 10
237.214658
 20
147.806904
 30
0.0
 10
237.214658
 20
126.247532
 30
0.0
  0
LWPOLYLINE
  5
10e
100
AcDbEntity
  8
makeabox.io-20230413081324-mm-100.0[w]x120.0[h]x69.0[d]-3.000[t]-0.0610[k]-0.025[s]
 62
7
100
AcDbPolyline
 90
2
 70
0
 10
237.214658
 20
191.271225
 30
0.0
 10
237.214658
 20
169.711863
 30
0.0
  0
LWPOLYLINE
  5
10f
100
AcDbEntity
  8
makeabox.io-20230413081324-mm-100.0[w]x120.0[h]x69.0[d]-3.000[t]-0.0610[k]-0.025[s]
 62
7
100
AcDbPolyline
 90
2
 70
0
 10
237.214658
 20
213.176195
 30
0.0
 10
259.019508
 20
213.176195
 30
0.0
  0
LWPOLYLINE
  5
110
100
AcDbEntity
  8
makeabox.io-20230413081324-mm-100.0[w]x120.0[h]x69.0[d]-3.000[t]-0.0610[k]-0.025[s]
 62
7
100
AcDbPolyline
 90
2
 70
0
 10
259.019508
 20
221.680088
 30
0.0
 10
259.019508
 20
213.176195
 30
0.0
  0
LWPOLYLINE
  5
111
100
AcDbEntity
  8
makeabox.io-20230413081324-mm-100.0[w]x120.0[h]x69.0[d]-3.000[t]-0.0610[k]-0.025[s]
 62
7
100
AcDbPolyline
 90
2
 70
0
 10
280.997158
 20
221.680088
 30
0.0
 10
259.019508
 20
221.680088
 30
0.0
  0
LWPOLYLINE
  5
112
100
AcDbEntity
  8
makeabox.io-20230413081324-mm-100.0[w]x120.0[h]x69.0[d]-3.000[t]-0.0610[k]-0.025[s]
 62
7
100
AcDbPolyline
 90
3
 70
0
 10
259.019508
 20
17.413919
 30
0.0
 10
259.019508
 20
8.910026
 30
0.0
 10
280.997158
 20
8.910026
 30
0.0
  0
LWPOLYLINE
  5
113
100
AcDbEntity
  8
makeabox.io-20230413081324-mm-100.0[w]x120.0[h]x69.0[d]-3.000[t]-0.0610[k]-0.025[s]
 62
7
100
AcDbPolyline
 90
2
 70
0
 10
280.997158
 20
213.176195
 30
0.0
 10
280.997158
 20
221.680088
 30
0.0
  0
LWPOLYLINE
  5
114
100
AcDbEntity
  8
makeabox.io-20230413081324-mm-100.0[w]x120.0[h]x69.0[d]-3.000[t]-0.0610[k]-0.025[s]
 62
7
100
AcDbPolyline
 90
2
 70
0
 10
302.629199
 20
213.176195
 30
0.0
 10
280.997158
 20
213.176195
 30
0.0
  0
LWPOLYLINE
  5
115
100
AcDbEntity
  8
makeabox.io-20230413081324-mm-100.0[w]x120.0[h]x69.0[d]-3.000[t]-0.0610[k]-0.025[s]
 62
7
100
AcDbPolyline
 90
3
 70
0
 10
280.997158
 20
8.910026
 30
0.0
 10
280.997158
 20
17.413919
 30
0.0
 10
302.629199
 20
17.413919
 30
0.0
  0
LWPOLYLINE
  5
116
100
AcDbEntity
  8
makeabox.io-20230413081324-mm-100.0[w]x120.0[h]x69.0[d]-3.000[t]-0.0610[k]-0.025[s]
 62
7
100
AcDbPolyline
 90
2
 70
0
 10
302.629199
 20
221.680088
 30
0.0
 10
302.629199
 20
213.176195
 30
0.0
  0
LWPOLYLINE
  5
117
100
AcDbEntity
  8
makeabox.io-20230413081324-mm-100.0[w]x120.0[h]x69.0[d]-3.000[t]-0.0610[k]-0.025[s]
 62
7
100
AcDbPolyline
 90
2
 70
0
 10
324.606848
 20
221.680088
 30
0.0
 10
302.629199
 20
221.680088
 30
0.0
  0
LWPOLYLINE
  5
118
100
AcDbEntity
  8
makeabox.io-20230413081324-mm-100.0[w]x120.0[h]x69.0[d]-3.000[t]-0.0610[k]-0.025[s]
 62
7
100
AcDbPolyline
 90
3
 70
0
 10
302.629199
 20
17.413919
 30
0.0
 10
302.629199
 20
8.910026
 30
0.0
 10
324.606848
 20
8.910026
 30
0.0
  0
LWPOLYLINE
  5
119
100
AcDbEntity
  8
makeabox.io-20230413081324-mm-100.0[w]x120.0[h]x69.0[d]-3.000[t]-0.0610[k]-0.025[s]
 62
7
100
AcDbPolyline
 90
2
 70
0
 10
324.606848
 20
213.176195
 30
0.0
 10
324.606848
 20
221.680088
 30
0.0
  0
LWPOLYLINE
  5
11a
100
AcDbEntity
  8
makeabox.io-20230413081324-mm-100.0[w]x120.0[h]x69.0[d]-3.000[t]-0.0610[k]-0.025[s]
 62
7
100
AcDbPolyline
 90
2
 70
0
 10
346.238899
 20
213.176195
 30
0.0
 10
324.606848
 20
213.176195
 30
0.0
  0
LWPOLYLINE
  5
11b
100
AcDbEntity
  8
makeabox.io-20230413081324-mm-100.0[w]x120.0[h]x69.0[d]-3.000[t]-0.0610[k]-0.025[s]
 62
7
100
AcDbPolyline
 90
3
 70
0
 10
324.606848
 20
8.910026
 30
0.0
 10
324.606848
 20
17.413919
 30
0.0
 10
346.238899
 20
17.413919
 30
0.0
  0
LWPOLYLINE
  5
11c
100
AcDbEntity
  8
makeabox.io-20230413081324-mm-100.0[w]x120.0[h]x69.0[d]-3.000[t]-0.0610[k]-0.025[s]
 62
7
100
AcDbPolyline
 90
2
 70
0
 10
346.238899
 20
221.680088
 30
0.0
 10
346.238899
 20
213.176195
 30
0.0
  0
LWPOLYLINE
  5
11d
100
AcDbEntity
  8
makeabox.io-20230413081324-mm-100.0[w]x120.0[h]x69.0[d]-3.000[t]-0.0610[k]-0.025[s]
 62
7
100
AcDbPolyline
 90
2
 70
0
 10
368.216539
 20
221.680088
 30
0.0
 10
346.238899
 20
221.680088
 30
0.0
  0
LWPOLYLINE
  5
11e
100
AcDbEntity
  8
makeabox.io-20230413081324-mm-100.0[w]x120.0[h]x69.0[d]-3.000[t]-0.0610[k]-0.025[s]
 62
7
100
AcDbPolyline
 90
3
 70
0
 10
346.238899
 20
17.413919
 30
0.0
 10
346.238899
 20
8.910026
 30
0.0
 10
368.216539
 20
8.910026
 30
0.0
  0
LWPOLYLINE
  5
11f
100
AcDbEntity
  8
makeabox.io-20230413081324-mm-100.0[w]x120.0[h]x69.0[d]-3.000[t]-0.0610[k]-0.025[s]
 62
7
100
AcDbPolyline
 90
2
 70
0
 10
368.216539
 20
213.176195
 30
0.0
 10
368.216539
 20
221.680088
 30
0.0
  0
LWPOLYLINE
  5
120
100
AcDbEntity
  8
makeabox.io-20230413081324-mm-100.0[w]x120.0[h]x69.0[d]-3.000[t]-0.0610[k]-0.025[s]
 62
7
100
AcDbPolyline
 90
2
 70
0
 10
389.848590
 20
213.176195
 30
0.0
 10
368.216539
 20
213.176195
 30
0.0
  0
LWPOLYLINE
  5
121
100
AcDbEntity
  8
makeabox.io-20230413081324-mm-100.0[w]x120.0[h]x69.0[d]-3.000[t]-0.0610[k]-0.025[s]
 62
7
100
AcDbPolyline
 90
5
 70
0
 10
368.216539
 20
8.910026
 30
0.0
 10
368.216539
 20
17.413919
 30
0.0
 10
389.848590
 20
17.413919
 30
0.0
 10
389.848590
 20
8.910026
 30
0.0
 10
411.826239
 20
8.910026
 30
0.0
  0
LWPOLYLINE
  5
122
100
AcDbEntity
  8
makeabox.io-20230413081324-mm-100.0[w]x120.0[h]x69.0[d]-3.000[t]-0.0610[k]-0.025[s]
 62
7
100
AcDbPolyline
 90
2
 70
0
 10
389.848590
 20
221.680088
 30
0.0
 10
389.848590
 20
213.176195
 30
0.0
  0
LWPOLYLINE
  5
123
100
AcDbEntity
  8
makeabox.io-20230413081324-mm-100.0[w]x120.0[h]x69.0[d]-3.000[t]-0.0610[k]-0.025[s]
 62
7
100
AcDbPolyline
 90
2
 70
0
 10
411.826239
 20
221.680088
 30
0.0
 10
389.848590
 20
221.680088
 30
0.0
  0
LWPOLYLINE
  5
124
100
AcDbEntity
  8
makeabox.io-20230413081324-mm-100.0[w]x120.0[h]x69.0[d]-3.000[t]-0.0610[k]-0.025[s]
 62
7
100
AcDbPolyline
 90
3
 70
0
 10
411.826239
 20
8.910026
 30
0.0
 10
411.826239
 20
17.413919
 30
0.0
 10
433.458281
 20
17.413919
 30
0.0
  0
LWPOLYLINE
  5
125
100
AcDbEntity
  8
makeabox.io-20230413081324-mm-100.0[w]x120.0[h]x69.0[d]-3.000[t]-0.0610[k]-0.025[s]
 62
7
100
AcDbPolyline
 90
2
 70
0
 10
411.826239
 20
213.176195
 30
0.0
 10
411.826239
 20
221.680088
 30
0.0
  0
LWPOLYLINE
  5
126
100
AcDbEntity
  8
makeabox.io-20230413081324-mm-100.0[w]x120.0[h]x69.0[d]-3.000[t]-0.0610[k]-0.025[s]
 62
7
100
AcDbPolyline
 90
2
 70
0
 10
433.458281
 20
213.176195
 30
0.0
 10
411.826239
 20
213.176195
 30
0.0
  0
LWPOLYLINE
  5
127
100
AcDbEntity
  8
makeabox.io-20230413081324-mm-100.0[w]x120.0[h]x69.0[d]-3.000[t]-0.0610[k]-0.025[s]
 62
7
100
AcDbPolyline
 90
3
 70
0
 10
433.458281
 20
17.413919
 30
0.0
 10
433.458281
 20
8.910026
 30
0.0
 10
455.435930
 20
8.910026
 30
0.0
  0
LWPOLYLINE
  5
128
100
AcDbEntity
  8
makeabox.io-20230413081324-mm-100.0[w]x120.0[h]x69.0[d]-3.000[t]-0.0610[k]-0.025[s]
 62
7
100
AcDbPolyline
 90
2
 70
0
 10
433.458281
 20
221.680088
 30
0.0
 10
433.458281
 20
213.176195
 30
0.0
  0
LWPOLYLINE
  5
129
100
AcDbEntity
  8
makeabox.io-20230413081324-mm-100.0[w]x120.0[h]x69.0[d]-3.000[t]-0.0610[k]-0.025[s]
 62
7
100
AcDbPolyline
 90
2
 70
0
 10
455.435930
 20
221.680088
 30
0.0
 10
433.458281
 20
221.680088
 30
0.0
  0
LWPOLYLINE
  5
12a
100
AcDbEntity
  8
makeabox.io-20230413081324-mm-100.0[w]x120.0[h]x69.0[d]-3.000[t]-0.0610[k]-0.025[s]
 62
7
100
AcDbPolyline
 90
3
 70
0
 10
455.435930
 20
8.910026
 30
0.0
 10
455.435930
 20
17.413919
 30
0.0
 10
477.067981
 20
17.413919
 30
0.0
  0
LWPOLYLINE
  5
12b
100
AcDbEntity
  8
makeabox.io-20230413081324-mm-100.0[w]x120.0[h]x69.0[d]-3.000[t]-0.0610[k]-0.025[s]
 62
7
100
AcDbPolyline
 90
2
 70
0
 10
455.435930
 20
213.176195
 30
0.0
 10
455.435930
 20
221.680088
 30
0.0
  0
LWPOLYLINE
  5
12c
100
AcDbEntity
  8
makeabox.io-20230413081324-mm-100.0[w]x120.0[h]x69.0[d]-3.000[t]-0.0610[k]-0.025[s]
 62
7
100
AcDbPolyline
 90
2
 70
0
 10
477.067981
 20
213.176195
 30
0.0
 10
455.435930
 20
213.176195
 30
0.0
  0
LWPOLYLINE
  5
12d
100
AcDbEntity
  8
makeabox.io-20230413081324-mm-100.0[w]x120.0[h]x69.0[d]-3.000[t]-0.0610[k]-0.025[s]
 62
7
100
AcDbPolyline
 90
3
 70
0
 10
477.067981
 20
17.413919
 30
0.0
 10
477.067981
 20
8.910026
 30
0.0
 10
499.045621
 20
8.910026
 30
0.0
  0
LWPOLYLINE
  5
12e
100
AcDbEntity
  8
makeabox.io-20230413081324-mm-100.0[w]x120.0[h]x69.0[d]-3.000[t]-0.0610[k]-0.025[s]
 62
7
100
AcDbPolyline
 90
2
 70
0
 10
477.067981
 20
221.680088
 30
0.0
 10
477.067981
 20
213.176195
 30
0.0
  0
LWPOLYLINE
  5
12f
100
AcDbEntity
  8
makeabox.io-20230413081324-mm-100.0[w]x120.0[h]x69.0[d]-3.000[t]-0.0610[k]-0.025[s]
 62
7
100
AcDbPolyline
 90
2
 70
0
 10
499.045621
 20
221.680088
 30
0.0
 10
477.067981
 20
221.680088
 30
0.0
  0
LWPOLYLINE
  5
130
100
AcDbEntity
  8
makeabox.io-20230413081324-mm-100.0[w]x120.0[h]x69.0[d]-3.000[t]-0.0610[k]-0.025[s]
 62
7
100
AcDbPolyline
 90
3
 70
0
 10
499.045621
 20
8.910026
 30
0.0
 10
499.045621
 20
17.413919
 30
0.0
 10
520.850471
 20
17.413919
 30
0.0
  0
LWPOLYLINE
  5
131
100
AcDbEntity
  8
makeabox.io-20230413081324-mm-100.0[w]x120.0[h]x69.0[d]-3.000[t]-0.0610[k]-0.025[s]
 62
7
100
AcDbPolyline
 90
2
 70
0
 10
499.045621
 20
213.176195
 30
0.0
 10
499.045621
 20
221.680088
 30
0.0
  0
LWPOLYLINE
  5
132
100
AcDbEntity
  8
makeabox.io-20230413081324-mm-100.0[w]x120.0[h]x69.0[d]-3.000[t]-0.0610[k]-0.025[s]
 62
7
100
AcDbPolyline
 90
2
 70
0
 10
520.850471
 20
213.176195
 30
0.0
 10
499.045621
 20
213.176195
 30
0.0
  0
LWPOLYLINE
  5
133
100
AcDbEntity
  8
makeabox.io-20230413081324-mm-100.0[w]x120.0[h]x69.0[d]-3.000[t]-0.0610[k]-0.025[s]
 62
7
100
AcDbPolyline
 90
2
 70
0
 10
520.850471
 20
17.413919
 30
0.0
 10
529.354364
 20
17.413919
 30
0.0
  0
LWPOLYLINE
  5
134
100
AcDbEntity
  8
makeabox.io-20230413081324-mm-100.0[w]x120.0[h]x69.0[d]-3.000[t]-0.0610[k]-0.025[s]
 62
7
100
AcDbPolyline
 90
2
 70
0
 10
520.850471
 20
39.318879
 30
0.0
 10
520.850471
 20
60.878241
 30
0.0
  0
LWPOLYLINE
  5
135
100
AcDbEntity
  8
makeabox.io-20230413081324-mm-100.0[w]x120.0[h]x69.0[d]-3.000[t]-0.0610[k]-0.025[s]
 62
7
100
AcDbPolyline
 90
2
 70
0
 10
529.354364
 20
39.318879
 30
0.0
 10
520.850471
 20
39.318879
 30
0.0
  0
LWPOLYLINE
  5
136
100
AcDbEntity
  8
makeabox.io-20230413081324-mm-100.0[w]x120.0[h]x69.0[d]-3.000[t]-0.0610[k]-0.025[s]
 62
7
100
AcDbPolyline
 90
2
 70
0
 10
520.850471
 20
60.878241
 30
0.0
 10
529.354364
 20
60.878241
 30
0.0
  0
LWPOLYLINE
  5
137
100
AcDbEntity
  8
makeabox.io-20230413081324-mm-100.0[w]x120.0[h]x69.0[d]-3.000[t]-0.0610[k]-0.025[s]
 62
7
100
AcDbPolyline
 90
2
 70
0
 10
520.850471
 20
82.783211
 30
0.0
 10
520.850471
 20
104.342572
 30
0.0
  0
LWPOLYLINE
  5
138
100
AcDbEntity
  8
makeabox.io-20230413081324-mm-100.0[w]x120.0[h]x69.0[d]-3.000[t]-0.0610[k]-0.025[s]
 62
7
100
AcDbPolyline
 90
2
 70
0
 10
529.354364
 20
82.783211
 30
0.0
 10
520.850471
 20
82.783211
 30
0.0
  0
LWPOLYLINE
  5
139
100
AcDbEntity
  8
makeabox.io-20230413081324-mm-100.0[w]x120.0[h]x69.0[d]-3.000[t]-0.0610[k]-0.025[s]
 62
7
100
AcDbPolyline
 90
2
 70
0
 10
520.850471
 20
104.342572
 30
0.0
 10
529.354364
 20
104.342572
 30
0.0
  0
LWPOLYLINE
  5
13a
100
AcDbEntity
  8
makeabox.io-20230413081324-mm-100.0[w]x120.0[h]x69.0[d]-3.000[t]-0.0610[k]-0.025[s]
 62
7
100
AcDbPolyline
 90
2
 70
0
 10
520.850471
 20
126.247532
 30
0.0
 10
520.850471
 20
147.806904
 30
0.0
  0
LWPOLYLINE
  5
13b
100
AcDbEntity
  8
makeabox.io-20230413081324-mm-100.0[w]x120.0[h]x69.0[d]-3.000[t]-0.0610[k]-0.025[s]
 62
7
100
AcDbPolyline
 90
2
 70
0
 10
529.354364
 20
126.247532
 30
0.0
 10
520.850471
 20
126.247532
 30
0.0
  0
LWPOLYLINE
  5
13c
100
AcDbEntity
  8
makeabox.io-20230413081324-mm-100.0[w]x120.0[h]x69.0[d]-3.000[t]-0.0610[k]-0.025[s]
 62
7
100
AcDbPolyline
 90
2
 70
0
 10
520.850471
 20
147.806904
 30
0.0
 10
529.354364
 20
147.806904
 30
0.0
  0
LWPOLYLINE
  5
13d
100
AcDbEntity
  8
makeabox.io-20230413081324-mm-100.0[w]x120.0[h]x69.0[d]-3.000[t]-0.0610[k]-0.025[s]
 62
7
100
AcDbPolyline
 90
2
 70
0
 10
520.850471
 20
169.711863
 30
0.0
 10
520.850471
 20
191.271225
 30
0.0
  0
LWPOLYLINE
  5
13e
100
AcDbEntity
  8
makeabox.io-20230413081324-mm-100.0[w]x120.0[h]x69.0[d]-3.000[t]-0.0610[k]-0.025[s]
 62
7
100
AcDbPolyline
 90
2
 70
0
 10
529.354364
 20
169.711863
 30
0.0
 10
520.850471
 20
169.711863
 30
0.0
  0
LWPOLYLINE
  5
13f
100
AcDbEntity
  8
makeabox.io-20230413081324-mm-100.0[w]x120.0[h]x69.0[d]-3.000[t]-0.0610[k]-0.025[s]
 62
7
100
AcDbPolyline
 90
2
 70
0
 10
520.850471
 20
191.271225
 30
0.0
 10
529.354364
 20
191.271225
 30
0.0
  0
LWPOLYLINE
  5
140
100
AcDbEntity
  8
makeabox.io-20230413081324-mm-100.0[w]x120.0[h]x69.0[d]-3.000[t]-0.0610[k]-0.025[s]
 62
7
100
AcDbPolyline
 90
2
 70
0
 10
529.354364
 20
213.176195
 30
0.0
 10
520.850471
 20
213.176195
 30
0.0
  0
LWPOLYLINE
  5
141
100
AcDbEntity
  8
makeabox.io-20230413081324-mm-100.0[w]x120.0[h]x69.0[d]-3.000[t]-0.0610[k]-0.025[s]
 62
7
100
AcDbPolyline
 90
2
 70
0
 10
529.354364
 20
17.413919
 30
0.0
 10
529.354364
 20
39.318879
 30
0.0
  0
LWPOLYLINE
  5
142
100
AcDbEntity
  8
makeabox.io-20230413081324-mm-100.0[w]x120.0[h]x69.0[d]-3.000[t]-0.0610[k]-0.025[s]
 62
7
100
AcDbPolyline
 90
2
 70
0
 10
529.354364
 20
60.878241
 30
0.0
 10
529.354364
 20
82.783211
 30
0.0
  0
LWPOLYLINE
  5
143
100
AcDbEntity
  8
makeabox.io-20230413081324-mm-100.0[w]x120.0[h]x69.0[d]-3.000[t]-0.0610[k]-0.025[s]
 62
7
100
AcDbPolyline
 90
2
 70
0
 10
529.354364
 20
104.342572
 30
0.0
 10
529.354364
 20
126.247532
 30
0.0
  0
LWPOLYLINE
  5
144
100
AcDbEntity
  8
makeabox.io-20230413081324-mm-100.0[w]x120.0[h]x69.0[d]-3.000[t]-0.0610[k]-0.025[s]
 62
7
100
AcDbPolyline
 90
2
 70
0
 10
529.354364
 20
147.806904
 30
0.0
 10
529.354364
 20
169.711863
 30
0.0
  0
LWPOLYLINE
  5
145
100
AcDbEntity
  8
makeabox.io-20230413081324-mm-100.0[w]x120.0[h]x69.0[d]-3.000[t]-0.0610[k]-0.025[s]
 62
7
100
AcDbPolyline
 90
2
 70
0
 10
529.354364
 20
191.271225
 30
0.0
 10
529.354364
 20
213.176195
 30
0.0
  0
LWPOLYLINE
  5
146
100
AcDbEntity
  8
makeabox.io-20230413081324-mm-100.0[w]x120.0[h]x69.0[d]-3.000[t]-0.0610[k]-0.025[s]
 62
7
100
AcDbPolyline
 90
2
 70
0
 10
228.710775
 20
228.707250
 30
0.0
 10
228.710775
 20
237.211133
 30
0.0
  0
LWPOLYLINE
  5
147
100
AcDbEntity
  8
makeabox.io-20230413081324-mm-100.0[w]x120.0[h]x69.0[d]-3.000[t]-0.0610[k]-0.025[s]
 62
7
100
AcDbPolyline
 90
2
 70
0
 10
228.710775
 20
228.707250
 30
0.0
 10
237.214658
 20
228.707250
 30
0.0
  0
LWPOLYLINE
  5
148
100
AcDbEntity
  8
makeabox.io-20230413081324-mm-100.0[w]x120.0[h]x69.0[d]-3.000[t]-0.0610[k]-0.025[s]
 62
7
100
AcDbPolyline
 90
2
 70
0
 10
228.710775
 20
237.211133
 30
0.0
 10
228.710775
 20
237.383932
 30
0.0
  0
LWPOLYLINE
  5
149
100
AcDbEntity
  8
makeabox.io-20230413081324-mm-100.0[w]x120.0[h]x69.0[d]-3.000[t]-0.0610[k]-0.025[s]
 62
7
100
AcDbPolyline
 90
2
 70
0
 10
237.214658
 20
237.383932
 30
0.0
 10
228.710775
 20
237.383932
 30
0.0
  0
LWPOLYLINE
  5
14a
100
AcDbEntity
  8
makeabox.io-20230413081324-mm-100.0[w]x120.0[h]x69.0[d]-3.000[t]-0.0610[k]-0.025[s]
 62
7
100
AcDbPolyline
 90
3
 70
0
 10
228.710775
 20
282.738013
 30
0.0
 10
228.710775
 20
259.888178
 30
0.0
 10
237.214658
 20
259.888178
 30
0.0
  0
LWPOLYLINE
  5
14b
100
AcDbEntity
  8
makeabox.io-20230413081324-mm-100.0[w]x120.0[h]x69.0[d]-3.000[t]-0.0610[k]-0.025[s]
 62
7
100
AcDbPolyline
 90
2
 70
0
 10
237.214658
 20
282.738013
 30
0.0
 10
228.710775
 20
282.738013
 30
0.0
  0
LWPOLYLINE
  5
14c
100
AcDbEntity
  8
makeabox.io-20230413081324-mm-100.0[w]x120.0[h]x69.0[d]-3.000[t]-0.0610[k]-0.025[s]
 62
7
100
AcDbPolyline
 90
3
 70
0
 10
228.710775
 20
328.092094
 30
0.0
 10
228.710775
 20
305.242259
 30
0.0
 10
237.214658
 20
305.242259
 30
0.0
  0
LWPOLYLINE
  5
14d
100
AcDbEntity
  8
makeabox.io-20230413081324-mm-100.0[w]x120.0[h]x69.0[d]-3.000[t]-0.0610[k]-0.025[s]
 62
7
100
AcDbPolyline
 90
2
 70
0
 10
237.214658
 20
328.092094
 30
0.0
 10
228.710775
 20
328.092094
 30
0.0
  0
LWPOLYLINE
  5
14e
100
AcDbEntity
  8
makeabox.io-20230413081324-mm-100.0[w]x120.0[h]x69.0[d]-3.000[t]-0.0610[k]-0.025[s]
 62
7
100
AcDbPolyline
 90
3
 70
0
 10
228.710775
 20
373.446175
 30
0.0
 10
228.710775
 20
350.596340
 30
0.0
 10
237.214658
 20
350.596340
 30
0.0
  0
LWPOLYLINE
  5
14f
100
AcDbEntity
  8
makeabox.io-20230413081324-mm-100.0[w]x120.0[h]x69.0[d]-3.000[t]-0.0610[k]-0.025[s]
 62
7
100
AcDbPolyline
 90
2
 70
0
 10
237.214658
 20
373.446175
 30
0.0
 10
228.710775
 20
373.446175
 30
0.0
  0
LWPOLYLINE
  5
150
100
AcDbEntity
  8
makeabox.io-20230413081324-mm-100.0[w]x120.0[h]x69.0[d]-3.000[t]-0.0610[k]-0.025[s]
 62
7
100
AcDbPolyline
 90
3
 70
0
 10
228.710775
 20
418.800266
 30
0.0
 10
228.710775
 20
395.950422
 30
0.0
 10
237.214658
 20
395.950422
 30
0.0
  0
LWPOLYLINE
  5
151
100
AcDbEntity
  8
makeabox.io-20230413081324-mm-100.0[w]x120.0[h]x69.0[d]-3.000[t]-0.0610[k]-0.025[s]
 62
7
100
AcDbPolyline
 90
2
 70
0
 10
237.214658
 20
418.800266
 30
0.0
 10
228.710775
 20
418.800266
 30
0.0
  0
LWPOLYLINE
  5
152
100
AcDbEntity
  8
makeabox.io-20230413081324-mm-100.0[w]x120.0[h]x69.0[d]-3.000[t]-0.0610[k]-0.025[s]
 62
7
100
AcDbPolyline
 90
3
 70
0
 10
228.710775
 20
464.154347
 30
0.0
 10
228.710775
 20
441.304503
 30
0.0
 10
237.214658
 20
441.304503
 30
0.0
  0
LWPOLYLINE
  5
153
100
AcDbEntity
  8
makeabox.io-20230413081324-mm-100.0[w]x120.0[h]x69.0[d]-3.000[t]-0.0610[k]-0.025[s]
 62
7
100
AcDbPolyline
 90
2
 70
0
 10
237.214658
 20
464.154347
 30
0.0
 10
228.710775
 20
464.154347
 30
0.0
  0
LWPOLYLINE
  5
154
100
AcDbEntity
  8
makeabox.io-20230413081324-mm-100.0[w]x120.0[h]x69.0[d]-3.000[t]-0.0610[k]-0.025[s]
 62
7
100
AcDbPolyline
 90
3
 70
0
 10
228.710775
 20
509.508428
 30
0.0
 10
228.710775
 20
486.658584
 30
0.0
 10
237.214658
 20
486.658584
 30
0.0
  0
LWPOLYLINE
  5
155
100
AcDbEntity
  8
makeabox.io-20230413081324-mm-100.0[w]x120.0[h]x69.0[d]-3.000[t]-0.0610[k]-0.025[s]
 62
7
100
AcDbPolyline
 90
2
 70
0
 10
237.214658
 20
509.508428
 30
0.0
 10
228.710775
 20
509.508428
 30
0.0
  0
LWPOLYLINE
  5
156
100
AcDbEntity
  8
makeabox.io-20230413081324-mm-100.0[w]x120.0[h]x69.0[d]-3.000[t]-0.0610[k]-0.025[s]
 62
7
100
AcDbPolyline
 90
3
 70
0
 10
228.710775
 20
554.862509
 30
0.0
 10
228.710775
 20
532.012665
 30
0.0
 10
237.214658
 20
532.012665
 30
0.0
  0
LWPOLYLINE
  5
157
100
AcDbEntity
  8
makeabox.io-20230413081324-mm-100.0[w]x120.0[h]x69.0[d]-3.000[t]-0.0610[k]-0.025[s]
 62
7
100
AcDbPolyline
 90
2
 70
0
 10
237.214658
 20
554.862509
 30
0.0
 10
228.710775
 20
554.862509
 30
0.0
  0
LWPOLYLINE
  5
158
100
AcDbEntity
  8
makeabox.io-20230413081324-mm-100.0[w]x120.0[h]x69.0[d]-3.000[t]-0.0610[k]-0.025[s]
 62
7
100
AcDbPolyline
 90
2
 70
0
 10
228.710775
 20
577.366746
 30
0.0
 10
228.710775
 20
577.539545
 30
0.0
  0
LWPOLYLINE
  5
159
100
AcDbEntity
  8
makeabox.io-20230413081324-mm-100.0[w]x120.0[h]x69.0[d]-3.000[t]-0.0610[k]-0.025[s]
 62
7
100
AcDbPolyline
 90
2
 70
0
 10
237.214658
 20
577.366746
 30
0.0
 10
228.710775
 20
577.366746
 30
0.0
  0
LWPOLYLINE
  5
15a
100
AcDbEntity
  8
makeabox.io-20230413081324-mm-100.0[w]x120.0[h]x69.0[d]-3.000[t]-0.0610[k]-0.025[s]
 62
7
100
AcDbPolyline
 90
3
 70
0
 10
228.710775
 20
577.539545
 30
0.0
 10
228.710775
 20
586.043438
 30
0.0
 10
237.214658
 20
586.043438
 30
0.0
  0
LWPOLYLINE
  5
15b
100
AcDbEntity
  8
makeabox.io-20230413081324-mm-100.0[w]x120.0[h]x69.0[d]-3.000[t]-0.0610[k]-0.025[s]
 62
7
100
AcDbPolyline
 90
2
 70
0
 10
237.214658
 20
228.707250
 30
0.0
 10
259.192307
 20
228.707250
 30
0.0
  0
LWPOLYLINE
  5
15c
100
AcDbEntity
  8
makeabox.io-20230413081324-mm-100.0[w]x120.0[h]x69.0[d]-3.000[t]-0.0610[k]-0.025[s]
 62
7
100
AcDbPolyline
 90
2
 70
0
 10
237.214658
 20
259.888178
 30
0.0
 10
237.214658
 20
237.383932
 30
0.0
  0
LWPOLYLINE
  5
15d
100
AcDbEntity
  8
makeabox.io-20230413081324-mm-100.0[w]x120.0[h]x69.0[d]-3.000[t]-0.0610[k]-0.025[s]
 62
7
100
AcDbPolyline
 90
2
 70
0
 10
237.214658
 20
305.242259
 30
0.0
 10
237.214658
 20
282.738013
 30
0.0
  0
LWPOLYLINE
  5
15e
100
AcDbEntity
  8
makeabox.io-20230413081324-mm-100.0[w]x120.0[h]x69.0[d]-3.000[t]-0.0610[k]-0.025[s]
 62
7
100
AcDbPolyline
 90
2
 70
0
 10
237.214658
 20
350.596340
 30
0.0
 10
237.214658
 20
328.092094
 30
0.0
  0
LWPOLYLINE
  5
15f
100
AcDbEntity
  8
makeabox.io-20230413081324-mm-100.0[w]x120.0[h]x69.0[d]-3.000[t]-0.0610[k]-0.025[s]
 62
7
100
AcDbPolyline
 90
2
 70
0
 10
237.214658
 20
395.950422
 30
0.0
 10
237.214658
 20
373.446175
 30
0.0
  0
LWPOLYLINE
  5
160
100
AcDbEntity
  8
makeabox.io-20230413081324-mm-100.0[w]x120.0[h]x69.0[d]-3.000[t]-0.0610[k]-0.025[s]
 62
7
100
AcDbPolyline
 90
2
 70
0
 10
237.214658
 20
441.304503
 30
0.0
 10
237.214658
 20
418.800266
 30
0.0
  0
LWPOLYLINE
  5
161
100
AcDbEntity
  8
makeabox.io-20230413081324-mm-100.0[w]x120.0[h]x69.0[d]-3.000[t]-0.0610[k]-0.025[s]
 62
7
100
AcDbPolyline
 90
2
 70
0
 10
237.214658
 20
486.658584
 30
0.0
 10
237.214658
 20
464.154347
 30
0.0
  0
LWPOLYLINE
  5
162
100
AcDbEntity
  8
makeabox.io-20230413081324-mm-100.0[w]x120.0[h]x69.0[d]-3.000[t]-0.0610[k]-0.025[s]
 62
7
100
AcDbPolyline
 90
2
 70
0
 10
237.214658
 20
532.012665
 30
0.0
 10
237.214658
 20
509.508428
 30
0.0
  0
LWPOLYLINE
  5
163
100
AcDbEntity
  8
makeabox.io-20230413081324-mm-100.0[w]x120.0[h]x69.0[d]-3.000[t]-0.0610[k]-0.025[s]
 62
7
100
AcDbPolyline
 90
2
 70
0
 10
237.214658
 20
577.366746
 30
0.0
 10
237.214658
 20
554.862509
 30
0.0
  0
LWPOLYLINE
  5
164
100
AcDbEntity
  8
makeabox.io-20230413081324-mm-100.0[w]x120.0[h]x69.0[d]-3.000[t]-0.0610[k]-0.025[s]
 62
7
100
AcDbPolyline
 90
2
 70
0
 10
259.192307
 20
586.043438
 30
0.0
 10
237.214658
 20
586.043438
 30
0.0
  0
LWPOLYLINE
  5
165
100
AcDbEntity
  8
makeabox.io-20230413081324-mm-100.0[w]x120.0[h]x69.0[d]-3.000[t]-0.0610[k]-0.025[s]
 62
7
100
AcDbPolyline
 90
3
 70
0
 10
259.192307
 20
228.707250
 30
0.0
 10
259.192307
 20
237.211133
 30
0.0
 10
280.824358
 20
237.211133
 30
0.0
  0
LWPOLYLINE
  5
166
100
AcDbEntity
  8
makeabox.io-20230413081324-mm-100.0[w]x120.0[h]x69.0[d]-3.000[t]-0.0610[k]-0.025[s]
 62
7
100
AcDbPolyline
 90
2
 70
0
 10
259.192307
 20
577.539545
 30
0.0
 10
259.192307
 20
586.043438
 30
0.0
  0
LWPOLYLINE
  5
167
100
AcDbEntity
  8
makeabox.io-20230413081324-mm-100.0[w]x120.0[h]x69.0[d]-3.000[t]-0.0610[k]-0.025[s]
 62
7
100
AcDbPolyline
 90
2
 70
0
 10
280.824358
 20
577.539545
 30
0.0
 10
259.192307
 20
577.539545
 30
0.0
  0
LWPOLYLINE
  5
168
100
AcDbEntity
  8
makeabox.io-20230413081324-mm-100.0[w]x120.0[h]x69.0[d]-3.000[t]-0.0610[k]-0.025[s]
 62
7
100
AcDbPolyline
 90
3
 70
0
 10
280.824358
 20
237.211133
 30
0.0
 10
280.824358
 20
228.707250
 30
0.0
 10
302.801998
 20
228.707250
 30
0.0
  0
LWPOLYLINE
  5
169
100
AcDbEntity
  8
makeabox.io-20230413081324-mm-100.0[w]x120.0[h]x69.0[d]-3.000[t]-0.0610[k]-0.025[s]
 62
7
100
AcDbPolyline
 90
2
 70
0
 10
280.824358
 20
586.043438
 30
0.0
 10
280.824358
 20
577.539545
 30
0.0
  0
LWPOLYLINE
  5
16a
100
AcDbEntity
  8
makeabox.io-20230413081324-mm-100.0[w]x120.0[h]x69.0[d]-3.000[t]-0.0610[k]-0.025[s]
 62
7
100
AcDbPolyline
 90
2
 70
0
 10
302.801998
 20
586.043438
 30
0.0
 10
280.824358
 20
586.043438
 30
0.0
  0
LWPOLYLINE
  5
16b
100
AcDbEntity
  8
makeabox.io-20230413081324-mm-100.0[w]x120.0[h]x69.0[d]-3.000[t]-0.0610[k]-0.025[s]
 62
7
100
AcDbPolyline
 90
3
 70
0
 10
302.801998
 20
228.707250
 30
0.0
 10
302.801998
 20
237.211133
 30
0.0
 10
324.434049
 20
237.211133
 30
0.0
  0
LWPOLYLINE
  5
16c
100
AcDbEntity
  8
makeabox.io-20230413081324-mm-100.0[w]x120.0[h]x69.0[d]-3.000[t]-0.0610[k]-0.025[s]
 62
7
100
AcDbPolyline
 90
2
 70
0
 10
302.801998
 20
577.539545
 30
0.0
 10
302.801998
 20
586.043438
 30
0.0
  0
LWPOLYLINE
  5
16d
100
AcDbEntity
  8
makeabox.io-20230413081324-mm-100.0[w]x120.0[h]x69.0[d]-3.000[t]-0.0610[k]-0.025[s]
 62
7
100
AcDbPolyline
 90
2
 70
0
 10
324.434049
 20
577.539545
 30
0.0
 10
302.801998
 20
577.539545
 30
0.0
  0
LWPOLYLINE
  5
16e
100
AcDbEntity
  8
makeabox.io-20230413081324-mm-100.0[w]x120.0[h]x69.0[d]-3.000[t]-0.0610[k]-0.025[s]
 62
7
100
AcDbPolyline
 90
3
 70
0
 10
324.434049
 20
237.211133
 30
0.0
 10
324.434049
 20
228.707250
 30
0.0
 10
346.411698
 20
228.707250
 30
0.0
  0
LWPOLYLINE
  5
16f
100
AcDbEntity
  8
makeabox.io-20230413081324-mm-100.0[w]x120.0[h]x69.0[d]-3.000[t]-0.0610[k]-0.025[s]
 62
7
100
AcDbPolyline
 90
2
 70
0
 10
324.434049
 20
586.043438
 30
0.0
 10
324.434049
 20
577.539545
 30
0.0
  0
LWPOLYLINE
  5
170
100
AcDbEntity
  8
makeabox.io-20230413081324-mm-100.0[w]x120.0[h]x69.0[d]-3.000[t]-0.0610[k]-0.025[s]
 62
7
100
AcDbPolyline
 90
2
 70
0
 10
346.411698
 20
586.043438
 30
0.0
 10
324.434049
 20
586.043438
 30
0.0
  0
LWPOLYLINE
  5
171
100
AcDbEntity
  8
makeabox.io-20230413081324-mm-100.0[w]x120.0[h]x69.0[d]-3.000[t]-0.0610[k]-0.025[s]
 62
7
100
AcDbPolyline
 90
3
 70
0
 10
346.411698
 20
228.707250
 30
0.0
 10
346.411698
 20
237.211133
 30
0.0
 10
368.043740
 20
237.211133
 30
0.0
  0
LWPOLYLINE
  5
172
100
AcDbEntity
  8
makeabox.io-20230413081324-mm-100.0[w]x120.0[h]x69.0[d]-3.000[t]-0.0610[k]-0.025[s]
 62
7
100
AcDbPolyline
 90
2
 70
0
 10
346.411698
 20
577.539545
 30
0.0
 10
346.411698
 20
586.043438
 30
0.0
  0
LWPOLYLINE
  5
173
100
AcDbEntity
  8
makeabox.io-20230413081324-mm-100.0[w]x120.0[h]x69.0[d]-3.000[t]-0.0610[k]-0.025[s]
 62
7
100
AcDbPolyline
 90
2
 70
0
 10
368.043740
 20
577.539545
 30
0.0
 10
346.411698
 20
577.539545
 30
0.0
  0
LWPOLYLINE
  5
174
100
AcDbEntity
  8
makeabox.io-20230413081324-mm-100.0[w]x120.0[h]x69.0[d]-3.000[t]-0.0610[k]-0.025[s]
 62
7
100
AcDbPolyline
 90
3
 70
0
 10
368.043740
 20
237.211133
 30
0.0
 10
368.043740
 20
228.707250
 30
0.0
 10
390.021389
 20
228.707250
 30
0.0
  0
LWPOLYLINE
  5
175
100
AcDbEntity
  8
makeabox.io-20230413081324-mm-100.0[w]x120.0[h]x69.0[d]-3.000[t]-0.0610[k]-0.025[s]
 62
7
100
AcDbPolyline
 90
2
 70
0
 10
368.043740
 20
586.043438
 30
0.0
 10
368.043740
 20
577.539545
 30
0.0
  0
LWPOLYLINE
  5
176
100
AcDbEntity
  8
makeabox.io-20230413081324-mm-100.0[w]x120.0[h]x69.0[d]-3.000[t]-0.0610[k]-0.025[s]
 62
7
100
AcDbPolyline
 90
2
 70
0
 10
390.021389
 20
586.043438
 30
0.0
 10
368.043740
 20
586.043438
 30
0.0
  0
LWPOLYLINE
  5
177
100
AcDbEntity
  8
makeabox.io-20230413081324-mm-100.0[w]x120.0[h]x69.0[d]-3.000[t]-0.0610[k]-0.025[s]
 62
7
100
AcDbPolyline
 90
3
 70
0
 10
390.021389
 20
228.707250
 30
0.0
 10
390.021389
 20
237.211133
 30
0.0
 10
411.653440
 20
237.211133
 30
0.0
  0
LWPOLYLINE
  5
178
100
AcDbEntity
  8
makeabox.io-20230413081324-mm-100.0[w]x120.0[h]x69.0[d]-3.000[t]-0.0610[k]-0.025[s]
 62
7
100
AcDbPolyline
 90
2
 70
0
 10
390.021389
 20
577.539545
 30
0.0
 10
390.021389
 20
586.043438
 30
0.0
  0
LWPOLYLINE
  5
179
100
AcDbEntity
  8
makeabox.io-20230413081324-mm-100.0[w]x120.0[h]x69.0[d]-3.000[t]-0.0610[k]-0.025[s]
 62
7
100
AcDbPolyline
 90
2
 70
0
 10
411.653440
 20
577.539545
 30
0.0
 10
390.021389
 20
577.539545
 30
0.0
  0
LWPOLYLINE
  5
17a
100
AcDbEntity
  8
makeabox.io-20230413081324-mm-100.0[w]x120.0[h]x69.0[d]-3.000[t]-0.0610[k]-0.025[s]
 62
7
100
AcDbPolyline
 90
3
 70
0
 10
411.653440
 20
237.211133
 30
0.0
 10
411.653440
 20
228.707250
 30
0.0
 10
433.631080
 20
228.707250
 30
0.0
  0
LWPOLYLINE
  5
17b
100
AcDbEntity
  8
makeabox.io-20230413081324-mm-100.0[w]x120.0[h]x69.0[d]-3.000[t]-0.0610[k]-0.025[s]
 62
7
100
AcDbPolyline
 90
2
 70
0
 10
411.653440
 20
586.043438
 30
0.0
 10
411.653440
 20
577.539545
 30
0.0
  0
LWPOLYLINE
  5
17c
100
AcDbEntity
  8
makeabox.io-20230413081324-mm-100.0[w]x120.0[h]x69.0[d]-3.000[t]-0.0610[k]-0.025[s]
 62
7
100
AcDbPolyline
 90
2
 70
0
 10
433.631080
 20
586.043438
 30
0.0
 10
411.653440
 20
586.043438
 30
0.0
  0
LWPOLYLINE
  5
17d
100
AcDbEntity
  8
makeabox.io-20230413081324-mm-100.0[w]x120.0[h]x69.0[d]-3.000[t]-0.0610[k]-0.025[s]
 62
7
100
AcDbPolyline
 90
3
 70
0
 10
433.631080
 20
228.707250
 30
0.0
 10
433.631080
 20
237.211133
 30
0.0
 10
455.263131
 20
237.211133
 30
0.0
  0
LWPOLYLINE
  5
17e
100
AcDbEntity
  8
makeabox.io-20230413081324-mm-100.0[w]x120.0[h]x69.0[d]-3.000[t]-0.0610[k]-0.025[s]
 62
7
100
AcDbPolyline
 90
2
 70
0
 10
433.631080
 20
577.539545
 30
0.0
 10
433.631080
 20
586.043438
 30
0.0
  0
LWPOLYLINE
  5
17f
100
AcDbEntity
  8
makeabox.io-20230413081324-mm-100.0[w]x120.0[h]x69.0[d]-3.000[t]-0.0610[k]-0.025[s]
 62
7
100
AcDbPolyline
 90
2
 70
0
 10
455.263131
 20
577.539545
 30
0.0
 10
433.631080
 20
577.539545
 30
0.0
  0
LWPOLYLINE
  5
180
100
AcDbEntity
  8
makeabox.io-20230413081324-mm-100.0[w]x120.0[h]x69.0[d]-3.000[t]-0.0610[k]-0.025[s]
 62
7
100
AcDbPolyline
 90
3
 70
0
 10
455.263131
 20
237.211133
 30
0.0
 10
455.263131
 20
228.707250
 30
0.0
 10
477.240780
 20
228.707250
 30
0.0
  0
LWPOLYLINE
  5
181
100
AcDbEntity
  8
makeabox.io-20230413081324-mm-100.0[w]x120.0[h]x69.0[d]-3.000[t]-0.0610[k]-0.025[s]
 62
7
100
AcDbPolyline
 90
2
 70
0
 10
455.263131
 20
586.043438
 30
0.0
 10
455.263131
 20
577.539545
 30
0.0
  0
LWPOLYLINE
  5
182
100
AcDbEntity
  8
makeabox.io-20230413081324-mm-100.0[w]x120.0[h]x69.0[d]-3.000[t]-0.0610[k]-0.025[s]
 62
7
100
AcDbPolyline
 90
2
 70
0
 10
477.240780
 20
586.043438
 30
0.0
 10
455.263131
 20
586.043438
 30
0.0
  0
LWPOLYLINE
  5
183
100
AcDbEntity
  8
makeabox.io-20230413081324-mm-100.0[w]x120.0[h]x69.0[d]-3.000[t]-0.0610[k]-0.025[s]
 62
7
100
AcDbPolyline
 90
3
 70
0
 10
477.240780
 20
228.707250
 30
0.0
 10
477.240780
 20
237.211133
 30
0.0
 10
498.872822
 20
237.211133
 30
0.0
  0
LWPOLYLINE
  5
184
100
AcDbEntity
  8
makeabox.io-20230413081324-mm-100.0[w]x120.0[h]x69.0[d]-3.000[t]-0.0610[k]-0.025[s]
 62
7
100
AcDbPolyline
 90
2
 70
0
 10
477.240780
 20
577.539545
 30
0.0
 10
477.240780
 20
586.043438
 30
0.0
  0
LWPOLYLINE
  5
185
100
AcDbEntity
  8
makeabox.io-20230413081324-mm-100.0[w]x120.0[h]x69.0[d]-3.000[t]-0.0610[k]-0.025[s]
 62
7
100
AcDbPolyline
 90
2
 70
0
 10
498.872822
 20
577.539545
 30
0.0
 10
477.240780
 20
577.539545
 30
0.0
  0
LWPOLYLINE
  5
186
100
AcDbEntity
  8
makeabox.io-20230413081324-mm-100.0[w]x120.0[h]x69.0[d]-3.000[t]-0.0610[k]-0.025[s]
 62
7
100
AcDbPolyline
 90
3
 70
0
 10
498.872822
 20
237.211133
 30
0.0
 10
498.872822
 20
228.707250
 30
0.0
 10
520.850471
 20
228.707250
 30
0.0
  0
LWPOLYLINE
  5
187
100
AcDbEntity
  8
makeabox.io-20230413081324-mm-100.0[w]x120.0[h]x69.0[d]-3.000[t]-0.0610[k]-0.025[s]
 62
7
100
AcDbPolyline
 90
2
 70
0
 10
498.872822
 20
586.043438
 30
0.0
 10
498.872822
 20
577.539545
 30
0.0
  0
LWPOLYLINE
  5
188
100
AcDbEntity
  8
makeabox.io-20230413081324-mm-100.0[w]x120.0[h]x69.0[d]-3.000[t]-0.0610[k]-0.025[s]
 62
7
100
AcDbPolyline
 90
2
 70
0
 10
498.872822
 20
586.043438
 30
0.0
 10
520.850471
 20
586.043438
 30
0.0
  0
LWPOLYLINE
  5
189
100
AcDbEntity
  8
makeabox.io-20230413081324-mm-100.0[w]x120.0[h]x69.0[d]-3.000[t]-0.0610[k]-0.025[s]
 62
7
100
AcDbPolyline
 90
2
 70
0
 10
520.850471
 20
228.707250
 30
0.0
 10
529.354364
 20
228.707250
 30
0.0
  0
LWPOLYLINE
  5
18a
100
AcDbEntity
  8
makeabox.io-20230413081324-mm-100.0[w]x120.0[h]x69.0[d]-3.000[t]-0.0610[k]-0.025[s]
 62
7
100
AcDbPolyline
 90
2
 70
0
 10
520.850471
 20
237.383932
 30
0.0
 10
520.850471
 20
259.888178
 30
0.0
  0
LWPOLYLINE
  5
18b
100
AcDbEntity
  8
makeabox.io-20230413081324-mm-100.0[w]x120.0[h]x69.0[d]-3.000[t]-0.0610[k]-0.025[s]
 62
7
100
AcDbPolyline
 90
2
 70
0
 10
520.850471
 20
237.383932
 30
0.0
 10
529.354364
 20
237.383932
 30
0.0
  0
LWPOLYLINE
  5
18c
100
AcDbEntity
  8
makeabox.io-20230413081324-mm-100.0[w]x120.0[h]x69.0[d]-3.000[t]-0.0610[k]-0.025[s]
 62
7
100
AcDbPolyline
 90
2
 70
0
 10
520.850471
 20
259.888178
 30
0.0
 10
529.354364
 20
259.888178
 30
0.0
  0
LWPOLYLINE
  5
18d
100
AcDbEntity
  8
makeabox.io-20230413081324-mm-100.0[w]x120.0[h]x69.0[d]-3.000[t]-0.0610[k]-0.025[s]
 62
7
100
AcDbPolyline
 90
2
 70
0
 10
520.850471
 20
282.738013
 30
0.0
 10
520.850471
 20
305.242259
 30
0.0
  0
LWPOLYLINE
  5
18e
100
AcDbEntity
  8
makeabox.io-20230413081324-mm-100.0[w]x120.0[h]x69.0[d]-3.000[t]-0.0610[k]-0.025[s]
 62
7
100
AcDbPolyline
 90
2
 70
0
 10
529.354364
 20
282.738013
 30
0.0
 10
520.850471
 20
282.738013
 30
0.0
  0
LWPOLYLINE
  5
18f
100
AcDbEntity
  8
makeabox.io-20230413081324-mm-100.0[w]x120.0[h]x69.0[d]-3.000[t]-0.0610[k]-0.025[s]
 62
7
100
AcDbPolyline
 90
2
 70
0
 10
520.850471
 20
305.242259
 30
0.0
 10
529.354364
 20
305.242259
 30
0.0
  0
LWPOLYLINE
  5
190
100
AcDbEntity
  8
makeabox.io-20230413081324-mm-100.0[w]x120.0[h]x69.0[d]-3.000[t]-0.0610[k]-0.025[s]
 62
7
100
AcDbPolyline
 90
2
 70
0
 10
520.850471
 20
328.092094
 30
0.0
 10
520.850471
 20
350.596340
 30
0.0
  0
LWPOLYLINE
  5
191
100
AcDbEntity
  8
makeabox.io-20230413081324-mm-100.0[w]x120.0[h]x69.0[d]-3.000[t]-0.0610[k]-0.025[s]
 62
7
100
AcDbPolyline
 90
2
 70
0
 10
529.354364
 20
328.092094
 30
0.0
 10
520.850471
 20
328.092094
 30
0.0
  0
LWPOLYLINE
  5
192
100
AcDbEntity
  8
makeabox.io-20230413081324-mm-100.0[w]x120.0[h]x69.0[d]-3.000[t]-0.0610[k]-0.025[s]
 62
7
100
AcDbPolyline
 90
2
 70
0
 10
520.850471
 20
350.596340
 30
0.0
 10
529.354364
 20
350.596340
 30
0.0
  0
LWPOLYLINE
  5
193
100
AcDbEntity
  8
makeabox.io-20230413081324-mm-100.0[w]x120.0[h]x69.0[d]-3.000[t]-0.0610[k]-0.025[s]
 62
7
100
AcDbPolyline
 90
2
 70
0
 10
520.850471
 20
373.446175
 30
0.0
 10
520.850471
 20
395.950422
 30
0.0
  0
LWPOLYLINE
  5
194
100
AcDbEntity
  8
makeabox.io-20230413081324-mm-100.0[w]x120.0[h]x69.0[d]-3.000[t]-0.0610[k]-0.025[s]
 62
7
100
AcDbPolyline
 90
2
 70
0
 10
529.354364
 20
373.446175
 30
0.0
 10
520.850471
 20
373.446175
 30
0.0
  0
LWPOLYLINE
  5
195
100
AcDbEntity
  8
makeabox.io-20230413081324-mm-100.0[w]x120.0[h]x69.0[d]-3.000[t]-0.0610[k]-0.025[s]
 62
7
100
AcDbPolyline
 90
2
 70
0
 10
520.850471
 20
395.950422
 30
0.0
 10
529.354364
 20
395.950422
 30
0.0
  0
LWPOLYLINE
  5
196
100
AcDbEntity
  8
makeabox.io-20230413081324-mm-100.0[w]x120.0[h]x69.0[d]-3.000[t]-0.0610[k]-0.025[s]
 62
7
100
AcDbPolyline
 90
2
 70
0
 10
520.850471
 20
418.800266
 30
0.0
 10
520.850471
 20
441.304503
 30
0.0
  0
LWPOLYLINE
  5
197
100
AcDbEntity
  8
makeabox.io-20230413081324-mm-100.0[w]x120.0[h]x69.0[d]-3.000[t]-0.0610[k]-0.025[s]
 62
7
100
AcDbPolyline
 90
2
 70
0
 10
529.354364
 20
418.800266
 30
0.0
 10
520.850471
 20
418.800266
 30
0.0
  0
LWPOLYLINE
  5
198
100
AcDbEntity
  8
makeabox.io-20230413081324-mm-100.0[w]x120.0[h]x69.0[d]-3.000[t]-0.0610[k]-0.025[s]
 62
7
100
AcDbPolyline
 90
2
 70
0
 10
520.850471
 20
441.304503
 30
0.0
 10
529.354364
 20
441.304503
 30
0.0
  0
LWPOLYLINE
  5
199
100
AcDbEntity
  8
makeabox.io-20230413081324-mm-100.0[w]x120.0[h]x69.0[d]-3.000[t]-0.0610[k]-0.025[s]
 62
7
100
AcDbPolyline
 90
2
 70
0
 10
520.850471
 20
464.154347
 30
0.0
 10
520.850471
 20
486.658584
 30
0.0
  0
LWPOLYLINE
  5
19a
100
AcDbEntity
  8
makeabox.io-20230413081324-mm-100.0[w]x120.0[h]x69.0[d]-3.000[t]-0.0610[k]-0.025[s]
 62
7
100
AcDbPolyline
 90
2
 70
0
 10
529.354364
 20
464.154347
 30
0.0
 10
520.850471
 20
464.154347
 30
0.0
  0
LWPOLYLINE
  5
19b
100
AcDbEntity
  8
makeabox.io-20230413081324-mm-100.0[w]x120.0[h]x69.0[d]-3.000[t]-0.0610[k]-0.025[s]
 62
7
100
AcDbPolyline
 90
2
 70
0
 10
520.850471
 20
486.658584
 30
0.0
 10
529.354364
 20
486.658584
 30
0.0
  0
LWPOLYLINE
  5
19c
100
AcDbEntity
  8
makeabox.io-20230413081324-mm-100.0[w]x120.0[h]x69.0[d]-3.000[t]-0.0610[k]-0.025[s]
 62
7
100
AcDbPolyline
 90
2
 70
0
 10
520.850471
 20
509.508428
 30
0.0
 10
520.850471
 20
532.012665
 30
0.0
  0
LWPOLYLINE
  5
19d
100
AcDbEntity
  8
makeabox.io-20230413081324-mm-100.0[w]x120.0[h]x69.0[d]-3.000[t]-0.0610[k]-0.025[s]
 62
7
100
AcDbPolyline
 90
2
 70
0
 10
529.354364
 20
509.508428
 30
0.0
 10
520.850471
 20
509.508428
 30
0.0
  0
LWPOLYLINE
  5
19e
100
AcDbEntity
  8
makeabox.io-20230413081324-mm-100.0[w]x120.0[h]x69.0[d]-3.000[t]-0.0610[k]-0.025[s]
 62
7
100
AcDbPolyline
 90
2
 70
0
 10
520.850471
 20
532.012665
 30
0.0
 10
529.354364
 20
532.012665
 30
0.0
  0
LWPOLYLINE
  5
19f
100
AcDbEntity
  8
makeabox.io-20230413081324-mm-100.0[w]x120.0[h]x69.0[d]-3.000[t]-0.0610[k]-0.025[s]
 62
7
100
AcDbPolyline
 90
2
 70
0
 10
520.850471
 20
554.862509
 30
0.0
 10
520.850471
 20
577.366746
 30
0.0
  0
LWPOLYLINE
  5
1a0
100
AcDbEntity
  8
makeabox.io-20230413081324-mm-100.0[w]x120.0[h]x69.0[d]-3.000[t]-0.0610[k]-0.025[s]
 62
7
100
AcDbPolyline
 90
2
 70
0
 10
529.354364
 20
554.862509
 30
0.0
 10
520.850471
 20
554.862509
 30
0.0
  0
LWPOLYLINE
  5
1a1
100
AcDbEntity
  8
makeabox.io-20230413081324-mm-100.0[w]x120.0[h]x69.0[d]-3.000[t]-0.0610[k]-0.025[s]
 62
7
100
AcDbPolyline
 90
2
 70
0
 10
520.850471
 20
577.366746
 30
0.0
 10
529.354364
 20
577.366746
 30
0.0
  0
LWPOLYLINE
  5
1a2
100
AcDbEntity
  8
makeabox.io-20230413081324-mm-100.0[w]x120.0[h]x69.0[d]-3.000[t]-0.0610[k]-0.025[s]
 62
7
100
AcDbPolyline
 90
2
 70
0
 10
520.850471
 20
586.043438
 30
0.0
 10
529.354364
 20
586.043438
 30
0.0
  0
LWPOLYLINE
  5
1a3
100
AcDbEntity
  8
makeabox.io-20230413081324-mm-100.0[w]x120.0[h]x69.0[d]-3.000[t]-0.0610[k]-0.025[s]
 62
7
100
AcDbPolyline
 90
3
 70
0
 10
529.354364
 20
228.707250
 30
0.0
 10
529.354364
 20
237.211133
 30
0.0
 10
529.354364
 20
237.383932
 30
0.0
  0
LWPOLYLINE
  5
1a4
100
AcDbEntity
  8
makeabox.io-20230413081324-mm-100.0[w]x120.0[h]x69.0[d]-3.000[t]-0.0610[k]-0.025[s]
 62
7
100
AcDbPolyline
 90
2
 70
0
 10
529.354364
 20
259.888178
 30
0.0
 10
529.354364
 20
282.738013
 30
0.0
  0
LWPOLYLINE
  5
1a5
100
AcDbEntity
  8
makeabox.io-20230413081324-mm-100.0[w]x120.0[h]x69.0[d]-3.000[t]-0.0610[k]-0.025[s]
 62
7
100
AcDbPolyline
 90
2
 70
0
 10
529.354364
 20
305.242259
 30
0.0
 10
529.354364
 20
328.092094
 30
0.0
  0
LWPOLYLINE
  5
1a6
100
AcDbEntity
  8
makeabox.io-20230413081324-mm-100.0[w]x120.0[h]x69.0[d]-3.000[t]-0.0610[k]-0.025[s]
 62
7
100
AcDbPolyline
 90
2
 70
0
 10
529.354364
 20
350.596340
 30
0.0
 10
529.354364
 20
373.446175
 30
0.0
  0
LWPOLYLINE
  5
1a7
100
AcDbEntity
  8
makeabox.io-20230413081324-mm-100.0[w]x120.0[h]x69.0[d]-3.000[t]-0.0610[k]-0.025[s]
 62
7
100
AcDbPolyline
 90
2
 70
0
 10
529.354364
 20
395.950422
 30
0.0
 10
529.354364
 20
418.800266
 30
0.0
  0
LWPOLYLINE
  5
1a8
100
AcDbEntity
  8
makeabox.io-20230413081324-mm-100.0[w]x120.0[h]x69.0[d]-3.000[t]-0.0610[k]-0.025[s]
 62
7
100
AcDbPolyline
 90
2
 70
0
 10
529.354364
 20
441.304503
 30
0.0
 10
529.354364
 20
464.154347
 30
0.0
  0
LWPOLYLINE
  5
1a9
100
AcDbEntity
  8
makeabox.io-20230413081324-mm-100.0[w]x120.0[h]x69.0[d]-3.000[t]-0.0610[k]-0.025[s]
 62
7
100
AcDbPolyline
 90
2
 70
0
 10
529.354364
 20
486.658584
 30
0.0
 10
529.354364
 20
509.508428
 30
0.0
  0
LWPOLYLINE
  5
1aa
100
AcDbEntity
  8
makeabox.io-20230413081324-mm-100.0[w]x120.0[h]x69.0[d]-3.000[t]-0.0610[k]-0.025[s]
 62
7
100
AcDbPolyline
 90
2
 70
0
 10
529.354364
 20
532.012665
 30
0.0
 10
529.354364
 20
554.862509
 30
0.0
  0
LWPOLYLINE
  5
1ab
100
AcDbEntity
  8
makeabox.io-20230413081324-mm-100.0[w]x120.0[h]x69.0[d]-3.000[t]-0.0610[k]-0.025[s]
 62
7
100
AcDbPolyline
 90
3
 70
0
 10
529.354364
 20
577.366746
 30
0.0
 10
529.354364
 20
577.539545
 30
0.0
 10
529.354364
 20
586.043438
 30
0.0
  0
LWPOLYLINE
  5
1ac
100
AcDbEntity
  8
makeabox.io-20230413081324-mm-100.0[w]x120.0[h]x69.0[d]-3.000[t]-0.0610[k]-0.025[s]
 62
7
100
AcDbPolyline
 90
3
 70
0
 10
228.710775
 20
623.479453
 30
0.0
 10
228.710775
 20
601.574493
 30
0.0
 10
237.214658
 20
601.574493
 30
0.0
  0
LWPOLYLINE
  5
1ad
100
AcDbEntity
  8
makeabox.io-20230413081324-mm-100.0[w]x120.0[h]x69.0[d]-3.000[t]-0.0610[k]-0.025[s]
 62
7
100
AcDbPolyline
 90
2
 70
0
 10
237.214658
 20
623.479453
 30
0.0
 10
228.710775
 20
623.479453
 30
0.0
  0
LWPOLYLINE
  5
1ae
100
AcDbEntity
  8
makeabox.io-20230413081324-mm-100.0[w]x120.0[h]x69.0[d]-3.000[t]-0.0610[k]-0.025[s]
 62
7
100
AcDbPolyline
 90
3
 70
0
 10
228.710775
 20
666.943784
 30
0.0
 10
228.710775
 20
645.038814
 30
0.0
 10
237.214658
 20
645.038814
 30
0.0
  0
LWPOLYLINE
  5
1af
100
AcDbEntity
  8
makeabox.io-20230413081324-mm-100.0[w]x120.0[h]x69.0[d]-3.000[t]-0.0610[k]-0.025[s]
 62
7
100
AcDbPolyline
 90
2
 70
0
 10
237.214658
 20
666.943784
 30
0.0
 10
228.710775
 20
666.943784
 30
0.0
  0
LWPOLYLINE
  5
1b0
100
AcDbEntity
  8
makeabox.io-20230413081324-mm-100.0[w]x120.0[h]x69.0[d]-3.000[t]-0.0610[k]-0.025[s]
 62
7
100
AcDbPolyline
 90
3
 70
0
 10
228.710775
 20
710.408105
 30
0.0
 10
228.710775
 20
688.503146
 30
0.0
 10
237.214658
 20
688.503146
 30
0.0
  0
LWPOLYLINE
  5
1b1
100
AcDbEntity
  8
makeabox.io-20230413081324-mm-100.0[w]x120.0[h]x69.0[d]-3.000[t]-0.0610[k]-0.025[s]
 62
7
100
AcDbPolyline
 90
2
 70
0
 10
237.214658
 20
710.408105
 30
0.0
 10
228.710775
 20
710.408105
 30
0.0
  0
LWPOLYLINE
  5
1b2
100
AcDbEntity
  8
makeabox.io-20230413081324-mm-100.0[w]x120.0[h]x69.0[d]-3.000[t]-0.0610[k]-0.025[s]
 62
7
100
AcDbPolyline
 90
3
 70
0
 10
228.710775
 20
753.872437
 30
0.0
 10
228.710775
 20
731.967477
 30
0.0
 10
237.214658
 20
731.967477
 30
0.0
  0
LWPOLYLINE
  5
1b3
100
AcDbEntity
  8
makeabox.io-20230413081324-mm-100.0[w]x120.0[h]x69.0[d]-3.000[t]-0.0610[k]-0.025[s]
 62
7
100
AcDbPolyline
 90
2
 70
0
 10
237.214658
 20
753.872437
 30
0.0
 10
228.710775
 20
753.872437
 30
0.0
  0
LWPOLYLINE
  5
1b4
100
AcDbEntity
  8
makeabox.io-20230413081324-mm-100.0[w]x120.0[h]x69.0[d]-3.000[t]-0.0610[k]-0.025[s]
 62
7
100
AcDbPolyline
 90
3
 70
0
 10
228.710775
 20
797.336768
 30
0.0
 10
228.710775
 20
775.431798
 30
0.0
 10
237.214658
 20
775.431798
 30
0.0
  0
LWPOLYLINE
  5
1b5
100
AcDbEntity
  8
makeabox.io-20230413081324-mm-100.0[w]x120.0[h]x69.0[d]-3.000[t]-0.0610[k]-0.025[s]
 62
7
100
AcDbPolyline
 90
2
 70
0
 10
228.710775
 20
797.336768
 30
0.0
 10
237.214658
 20
797.336768
 30
0.0
  0
LWPOLYLINE
  5
1b6
100
AcDbEntity
  8
makeabox.io-20230413081324-mm-100.0[w]x120.0[h]x69.0[d]-3.000[t]-0.0610[k]-0.025[s]
 62
7
100
AcDbPolyline
 90
2
 70
0
 10
237.214658
 20
601.574493
 30
0.0
 10
259.019508
 20
601.574493
 30
0.0
  0
LWPOLYLINE
  5
1b7
100
AcDbEntity
  8
makeabox.io-20230413081324-mm-100.0[w]x120.0[h]x69.0[d]-3.000[t]-0.0610[k]-0.025[s]
 62
7
100
AcDbPolyline
 90
2
 70
0
 10
237.214658
 20
645.038814
 30
0.0
 10
237.214658
 20
623.479453
 30
0.0
  0
LWPOLYLINE
  5
1b8
100
AcDbEntity
  8
makeabox.io-20230413081324-mm-100.0[w]x120.0[h]x69.0[d]-3.000[t]-0.0610[k]-0.025[s]
 62
7
100
AcDbPolyline
 90
2
 70
0
 10
237.214658
 20
688.503146
 30
0.0
 10
237.214658
 20
666.943784
 30
0.0
  0
LWPOLYLINE
  5
1b9
100
AcDbEntity
  8
makeabox.io-20230413081324-mm-100.0[w]x120.0[h]x69.0[d]-3.000[t]-0.0610[k]-0.025[s]
 62
7
100
AcDbPolyline
 90
2
 70
0
 10
237.214658
 20
731.967477
 30
0.0
 10
237.214658
 20
710.408105
 30
0.0
  0
LWPOLYLINE
  5
1ba
100
AcDbEntity
  8
makeabox.io-20230413081324-mm-100.0[w]x120.0[h]x69.0[d]-3.000[t]-0.0610[k]-0.025[s]
 62
7
100
AcDbPolyline
 90
2
 70
0
 10
237.214658
 20
775.431798
 30
0.0
 10
237.214658
 20
753.872437
 30
0.0
  0
LWPOLYLINE
  5
1bb
100
AcDbEntity
  8
makeabox.io-20230413081324-mm-100.0[w]x120.0[h]x69.0[d]-3.000[t]-0.0610[k]-0.025[s]
 62
7
100
AcDbPolyline
 90
2
 70
0
 10
237.214658
 20
797.336768
 30
0.0
 10
259.019508
 20
797.336768
 30
0.0
  0
LWPOLYLINE
  5
1bc
100
AcDbEntity
  8
makeabox.io-20230413081324-mm-100.0[w]x120.0[h]x69.0[d]-3.000[t]-0.0610[k]-0.025[s]
 62
7
100
AcDbPolyline
 90
2
 70
0
 10
259.019508
 20
805.840651
 30
0.0
 10
259.019508
 20
797.336768
 30
0.0
  0
LWPOLYLINE
  5
1bd
100
AcDbEntity
  8
makeabox.io-20230413081324-mm-100.0[w]x120.0[h]x69.0[d]-3.000[t]-0.0610[k]-0.025[s]
 62
7
100
AcDbPolyline
 90
2
 70
0
 10
280.997158
 20
805.840651
 30
0.0
 10
259.019508
 20
805.840651
 30
0.0
  0
LWPOLYLINE
  5
1be
100
AcDbEntity
  8
makeabox.io-20230413081324-mm-100.0[w]x120.0[h]x69.0[d]-3.000[t]-0.0610[k]-0.025[s]
 62
7
100
AcDbPolyline
 90
3
 70
0
 10
259.019508
 20
601.574493
 30
0.0
 10
259.019508
 20
593.070599
 30
0.0
 10
280.997158
 20
593.070599
 30
0.0
  0
LWPOLYLINE
  5
1bf
100
AcDbEntity
  8
makeabox.io-20230413081324-mm-100.0[w]x120.0[h]x69.0[d]-3.000[t]-0.0610[k]-0.025[s]
 62
7
100
AcDbPolyline
 90
2
 70
0
 10
280.997158
 20
797.336768
 30
0.0
 10
280.997158
 20
805.840651
 30
0.0
  0
LWPOLYLINE
  5
1c0
100
AcDbEntity
  8
makeabox.io-20230413081324-mm-100.0[w]x120.0[h]x69.0[d]-3.000[t]-0.0610[k]-0.025[s]
 62
7
100
AcDbPolyline
 90
2
 70
0
 10
302.629199
 20
797.336768
 30
0.0
 10
280.997158
 20
797.336768
 30
0.0
  0
LWPOLYLINE
  5
1c1
100
AcDbEntity
  8
makeabox.io-20230413081324-mm-100.0[w]x120.0[h]x69.0[d]-3.000[t]-0.0610[k]-0.025[s]
 62
7
100
AcDbPolyline
 90
3
 70
0
 10
280.997158
 20
593.070599
 30
0.0
 10
280.997158
 20
601.574493
 30
0.0
 10
302.629199
 20
601.574493
 30
0.0
  0
LWPOLYLINE
  5
1c2
100
AcDbEntity
  8
makeabox.io-20230413081324-mm-100.0[w]x120.0[h]x69.0[d]-3.000[t]-0.0610[k]-0.025[s]
 62
7
100
AcDbPolyline
 90
2
 70
0
 10
302.629199
 20
805.840651
 30
0.0
 10
302.629199
 20
797.336768
 30
0.0
  0
LWPOLYLINE
  5
1c3
100
AcDbEntity
  8
makeabox.io-20230413081324-mm-100.0[w]x120.0[h]x69.0[d]-3.000[t]-0.0610[k]-0.025[s]
 62
7
100
AcDbPolyline
 90
2
 70
0
 10
324.606848
 20
805.840651
 30
0.0
 10
302.629199
 20
805.840651
 30
0.0
  0
LWPOLYLINE
  5
1c4
100
AcDbEntity
  8
makeabox.io-20230413081324-mm-100.0[w]x120.0[h]x69.0[d]-3.000[t]-0.0610[k]-0.025[s]
 62
7
100
AcDbPolyline
 90
3
 70
0
 10
302.629199
 20
601.574493
 30
0.0
 10
302.629199
 20
593.070599
 30
0.0
 10
324.606848
 20
593.070599
 30
0.0
  0
LWPOLYLINE
  5
1c5
100
AcDbEntity
  8
makeabox.io-20230413081324-mm-100.0[w]x120.0[h]x69.0[d]-3.000[t]-0.0610[k]-0.025[s]
 62
7
100
AcDbPolyline
 90
2
 70
0
 10
324.606848
 20
797.336768
 30
0.0
 10
324.606848
 20
805.840651
 30
0.0
  0
LWPOLYLINE
  5
1c6
100
AcDbEntity
  8
makeabox.io-20230413081324-mm-100.0[w]x120.0[h]x69.0[d]-3.000[t]-0.0610[k]-0.025[s]
 62
7
100
AcDbPolyline
 90
2
 70
0
 10
346.238899
 20
797.336768
 30
0.0
 10
324.606848
 20
797.336768
 30
0.0
  0
LWPOLYLINE
  5
1c7
100
AcDbEntity
  8
makeabox.io-20230413081324-mm-100.0[w]x120.0[h]x69.0[d]-3.000[t]-0.0610[k]-0.025[s]
 62
7
100
AcDbPolyline
 90
3
 70
0
 10
324.606848
 20
593.070599
 30
0.0
 10
324.606848
 20
601.574493
 30
0.0
 10
346.238899
 20
601.574493
 30
0.0
  0
LWPOLYLINE
  5
1c8
100
AcDbEntity
  8
makeabox.io-20230413081324-mm-100.0[w]x120.0[h]x69.0[d]-3.000[t]-0.0610[k]-0.025[s]
 62
7
100
AcDbPolyline
 90
2
 70
0
 10
346.238899
 20
805.840651
 30
0.0
 10
346.238899
 20
797.336768
 30
0.0
  0
LWPOLYLINE
  5
1c9
100
AcDbEntity
  8
makeabox.io-20230413081324-mm-100.0[w]x120.0[h]x69.0[d]-3.000[t]-0.0610[k]-0.025[s]
 62
7
100
AcDbPolyline
 90
2
 70
0
 10
368.216539
 20
805.840651
 30
0.0
 10
346.238899
 20
805.840651
 30
0.0
  0
LWPOLYLINE
  5
1ca
100
AcDbEntity
  8
makeabox.io-20230413081324-mm-100.0[w]x120.0[h]x69.0[d]-3.000[t]-0.0610[k]-0.025[s]
 62
7
100
AcDbPolyline
 90
3
 70
0
 10
346.238899
 20
601.574493
 30
0.0
 10
346.238899
 20
593.070599
 30
0.0
 10
368.216539
 20
593.070599
 30
0.0
  0
LWPOLYLINE
  5
1cb
100
AcDbEntity
  8
makeabox.io-20230413081324-mm-100.0[w]x120.0[h]x69.0[d]-3.000[t]-0.0610[k]-0.025[s]
 62
7
100
AcDbPolyline
 90
2
 70
0
 10
368.216539
 20
797.336768
 30
0.0
 10
368.216539
 20
805.840651
 30
0.0
  0
LWPOLYLINE
  5
1cc
100
AcDbEntity
  8
makeabox.io-20230413081324-mm-100.0[w]x120.0[h]x69.0[d]-3.000[t]-0.0610[k]-0.025[s]
 62
7
100
AcDbPolyline
 90
2
 70
0
 10
389.848590
 20
797.336768
 30
0.0
 10
368.216539
 20
797.336768
 30
0.0
  0
LWPOLYLINE
  5
1cd
100
AcDbEntity
  8
makeabox.io-20230413081324-mm-100.0[w]x120.0[h]x69.0[d]-3.000[t]-0.0610[k]-0.025[s]
 62
7
100
AcDbPolyline
 90
5
 70
0
 10
368.216539
 20
593.070599
 30
0.0
 10
368.216539
 20
601.574493
 30
0.0
 10
389.848590
 20
601.574493
 30
0.0
 10
389.848590
 20
593.070599
 30
0.0
 10
411.826239
 20
593.070599
 30
0.0
  0
LWPOLYLINE
  5
1ce
100
AcDbEntity
  8
makeabox.io-20230413081324-mm-100.0[w]x120.0[h]x69.0[d]-3.000[t]-0.0610[k]-0.025[s]
 62
7
100
AcDbPolyline
 90
2
 70
0
 10
389.848590
 20
805.840651
 30
0.0
 10
389.848590
 20
797.336768
 30
0.0
  0
LWPOLYLINE
  5
1cf
100
AcDbEntity
  8
makeabox.io-20230413081324-mm-100.0[w]x120.0[h]x69.0[d]-3.000[t]-0.0610[k]-0.025[s]
 62
7
100
AcDbPolyline
 90
2
 70
0
 10
411.826239
 20
805.840651
 30
0.0
 10
389.848590
 20
805.840651
 30
0.0
  0
LWPOLYLINE
  5
1d0
100
AcDbEntity
  8
makeabox.io-20230413081324-mm-100.0[w]x120.0[h]x69.0[d]-3.000[t]-0.0610[k]-0.025[s]
 62
7
100
AcDbPolyline
 90
3
 70
0
 10
411.826239
 20
593.070599
 30
0.0
 10
411.826239
 20
601.574493
 30
0.0
 10
433.458281
 20
601.574493
 30
0.0
  0
LWPOLYLINE
  5
1d1
100
AcDbEntity
  8
makeabox.io-20230413081324-mm-100.0[w]x120.0[h]x69.0[d]-3.000[t]-0.0610[k]-0.025[s]
 62
7
100
AcDbPolyline
 90
2
 70
0
 10
411.826239
 20
797.336768
 30
0.0
 10
411.826239
 20
805.840651
 30
0.0
  0
LWPOLYLINE
  5
1d2
100
AcDbEntity
  8
makeabox.io-20230413081324-mm-100.0[w]x120.0[h]x69.0[d]-3.000[t]-0.0610[k]-0.025[s]
 62
7
100
AcDbPolyline
 90
2
 70
0
 10
433.458281
 20
797.336768
 30
0.0
 10
411.826239
 20
797.336768
 30
0.0
  0
LWPOLYLINE
  5
1d3
100
AcDbEntity
  8
makeabox.io-20230413081324-mm-100.0[w]x120.0[h]x69.0[d]-3.000[t]-0.0610[k]-0.025[s]
 62
7
100
AcDbPolyline
 90
3
 70
0
 10
433.458281
 20
601.574493
 30
0.0
 10
433.458281
 20
593.070599
 30
0.0
 10
455.435930
 20
593.070599
 30
0.0
  0
LWPOLYLINE
  5
1d4
100
AcDbEntity
  8
makeabox.io-20230413081324-mm-100.0[w]x120.0[h]x69.0[d]-3.000[t]-0.0610[k]-0.025[s]
 62
7
100
AcDbPolyline
 90
2
 70
0
 10
433.458281
 20
805.840651
 30
0.0
 10
433.458281
 20
797.336768
 30
0.0
  0
LWPOLYLINE
  5
1d5
100
AcDbEntity
  8
makeabox.io-20230413081324-mm-100.0[w]x120.0[h]x69.0[d]-3.000[t]-0.0610[k]-0.025[s]
 62
7
100
AcDbPolyline
 90
2
 70
0
 10
455.435930
 20
805.840651
 30
0.0
 10
433.458281
 20
805.840651
 30
0.0
  0
LWPOLYLINE
  5
1d6
100
AcDbEntity
  8
makeabox.io-20230413081324-mm-100.0[w]x120.0[h]x69.0[d]-3.000[t]-0.0610[k]-0.025[s]
 62
7
100
AcDbPolyline
 90
3
 70
0
 10
455.435930
 20
593.070599
 30
0.0
 10
455.435930
 20
601.574493
 30
0.0
 10
477.067981
 20
601.574493
 30
0.0
  0
LWPOLYLINE
  5
1d7
100
AcDbEntity
  8
makeabox.io-20230413081324-mm-100.0[w]x120.0[h]x69.0[d]-3.000[t]-0.0610[k]-0.025[s]
 62
7
100
AcDbPolyline
 90
2
 70
0
 10
455.435930
 20
797.336768
 30
0.0
 10
455.435930
 20
805.840651
 30
0.0
  0
LWPOLYLINE
  5
1d8
100
AcDbEntity
  8
makeabox.io-20230413081324-mm-100.0[w]x120.0[h]x69.0[d]-3.000[t]-0.0610[k]-0.025[s]
 62
7
100
AcDbPolyline
 90
2
 70
0
 10
477.067981
 20
797.336768
 30
0.0
 10
455.435930
 20
797.336768
 30
0.0
  0
LWPOLYLINE
  5
1d9
100
AcDbEntity
  8
makeabox.io-20230413081324-mm-100.0[w]x120.0[h]x69.0[d]-3.000[t]-0.0610[k]-0.025[s]
 62
7
100
AcDbPolyline
 90
3
 70
0
 10
477.067981
 20
601.574493
 30
0.0
 10
477.067981
 20
593.070599
 30
0.0
 10
499.045621
 20
593.070599
 30
0.0
  0
LWPOLYLINE
  5
1da
100
AcDbEntity
  8
makeabox.io-20230413081324-mm-100.0[w]x120.0[h]x69.0[d]-3.000[t]-0.0610[k]-0.025[s]
 62
7
100
AcDbPolyline
 90
2
 70
0
 10
477.067981
 20
805.840651
 30
0.0
 10
477.067981
 20
797.336768
 30
0.0
  0
LWPOLYLINE
  5
1db
100
AcDbEntity
  8
makeabox.io-20230413081324-mm-100.0[w]x120.0[h]x69.0[d]-3.000[t]-0.0610[k]-0.025[s]
 62
7
100
AcDbPolyline
 90
2
 70
0
 10
499.045621
 20
805.840651
 30
0.0
 10
477.067981
 20
805.840651
 30
0.0
  0
LWPOLYLINE
  5
1dc
100
AcDbEntity
  8
makeabox.io-20230413081324-mm-100.0[w]x120.0[h]x69.0[d]-3.000[t]-0.0610[k]-0.025[s]
 62
7
100
AcDbPolyline
 90
3
 70
0
 10
499.045621
 20
593.070599
 30
0.0
 10
499.045621
 20
601.574493
 30
0.0
 10
520.850471
 20
601.574493
 30
0.0
  0
LWPOLYLINE
  5
1dd
100
AcDbEntity
  8
makeabox.io-20230413081324-mm-100.0[w]x120.0[h]x69.0[d]-3.000[t]-0.0610[k]-0.025[s]
 62
7
100
AcDbPolyline
 90
2
 70
0
 10
499.045621
 20
797.336768
 30
0.0
 10
499.045621
 20
805.840651
 30
0.0
  0
LWPOLYLINE
  5
1de
100
AcDbEntity
  8
makeabox.io-20230413081324-mm-100.0[w]x120.0[h]x69.0[d]-3.000[t]-0.0610[k]-0.025[s]
 62
7
100
AcDbPolyline
 90
2
 70
0
 10
520.850471
 20
797.336768
 30
0.0
 10
499.045621
 20
797.336768
 30
0.0
  0
LWPOLYLINE
  5
1df
100
AcDbEntity
  8
makeabox.io-20230413081324-mm-100.0[w]x120.0[h]x69.0[d]-3.000[t]-0.0610[k]-0.025[s]
 62
7
100
AcDbPolyline
 90
2
 70
0
 10
520.850471
 20
601.574493
 30
0.0
 10
529.354364
 20
601.574493
 30
0.0
  0
LWPOLYLINE
  5
1e0
100
AcDbEntity
  8
makeabox.io-20230413081324-mm-100.0[w]x120.0[h]x69.0[d]-3.000[t]-0.0610[k]-0.025[s]
 62
7
100
AcDbPolyline
 90
2
 70
0
 10
520.850471
 20
623.479453
 30
0.0
 10
520.850471
 20
645.038814
 30
0.0
  0
LWPOLYLINE
  5
1e1
100
AcDbEntity
  8
makeabox.io-20230413081324-mm-100.0[w]x120.0[h]x69.0[d]-3.000[t]-0.0610[k]-0.025[s]
 62
7
100
AcDbPolyline
 90
2
 70
0
 10
529.354364
 20
623.479453
 30
0.0
 10
520.850471
 20
623.479453
 30
0.0
  0
LWPOLYLINE
  5
1e2
100
AcDbEntity
  8
makeabox.io-20230413081324-mm-100.0[w]x120.0[h]x69.0[d]-3.000[t]-0.0610[k]-0.025[s]
 62
7
100
AcDbPolyline
 90
2
 70
0
 10
520.850471
 20
645.038814
 30
0.0
 10
529.354364
 20
645.038814
 30
0.0
  0
LWPOLYLINE
  5
1e3
100
AcDbEntity
  8
makeabox.io-20230413081324-mm-100.0[w]x120.0[h]x69.0[d]-3.000[t]-0.0610[k]-0.025[s]
 62
7
100
AcDbPolyline
 90
2
 70
0
 10
520.850471
 20
666.943784
 30
0.0
 10
520.850471
 20
688.503146
 30
0.0
  0
LWPOLYLINE
  5
1e4
100
AcDbEntity
  8
makeabox.io-20230413081324-mm-100.0[w]x120.0[h]x69.0[d]-3.000[t]-0.0610[k]-0.025[s]
 62
7
100
AcDbPolyline
 90
2
 70
0
 10
529.354364
 20
666.943784
 30
0.0
 10
520.850471
 20
666.943784
 30
0.0
  0
LWPOLYLINE
  5
1e5
100
AcDbEntity
  8
makeabox.io-20230413081324-mm-100.0[w]x120.0[h]x69.0[d]-3.000[t]-0.0610[k]-0.025[s]
 62
7
100
AcDbPolyline
 90
2
 70
0
 10
520.850471
 20
688.503146
 30
0.0
 10
529.354364
 20
688.503146
 30
0.0
  0
LWPOLYLINE
  5
1e6
100
AcDbEntity
  8
makeabox.io-20230413081324-mm-100.0[w]x120.0[h]x69.0[d]-3.000[t]-0.0610[k]-0.025[s]
 62
7
100
AcDbPolyline
 90
2
 70
0
 10
520.850471
 20
710.408105
 30
0.0
 10
520.850471
 20
731.967477
 30
0.0
  0
LWPOLYLINE
  5
1e7
100
AcDbEntity
  8
makeabox.io-20230413081324-mm-100.0[w]x120.0[h]x69.0[d]-3.000[t]-0.0610[k]-0.025[s]
 62
7
100
AcDbPolyline
 90
2
 70
0
 10
529.354364
 20
710.408105
 30
0.0
 10
520.850471
 20
710.408105
 30
0.0
  0
LWPOLYLINE
  5
1e8
100
AcDbEntity
  8
makeabox.io-20230413081324-mm-100.0[w]x120.0[h]x69.0[d]-3.000[t]-0.0610[k]-0.025[s]
 62
7
100
AcDbPolyline
 90
2
 70
0
 10
520.850471
 20
731.967477
 30
0.0
 10
529.354364
 20
731.967477
 30
0.0
  0
LWPOLYLINE
  5
1e9
100
AcDbEntity
  8
makeabox.io-20230413081324-mm-100.0[w]x120.0[h]x69.0[d]-3.000[t]-0.0610[k]-0.025[s]
 62
7
100
AcDbPolyline
 90
2
 70
0
 10
520.850471
 20
753.872437
 30
0.0
 10
520.850471
 20
775.431798
 30
0.0
  0
LWPOLYLINE
  5
1ea
100
AcDbEntity
  8
makeabox.io-20230413081324-mm-100.0[w]x120.0[h]x69.0[d]-3.000[t]-0.0610[k]-0.025[s]
 62
7
100
AcDbPolyline
 90
2
 70
0
 10
529.354364
 20
753.872437
 30
0.0
 10
520.850471
 20
753.872437
 30
0.0
  0
LWPOLYLINE
  5
1eb
100
AcDbEntity
  8
makeabox.io-20230413081324-mm-100.0[w]x120.0[h]x69.0[d]-3.000[t]-0.0610[k]-0.025[s]
 62
7
100
AcDbPolyline
 90
2
 70
0
 10
520.850471
 20
775.431798
 30
0.0
 10
529.354364
 20
775.431798
 30
0.0
  0
LWPOLYLINE
  5
1ec
100
AcDbEntity
  8
makeabox.io-20230413081324-mm-100.0[w]x120.0[h]x69.0[d]-3.000[t]-0.0610[k]-0.025[s]
 62
7
100
AcDbPolyline
 90
2
 70
0
 10
529.354364
 20
797.336768
 30
0.0
 10
520.850471
 20
797.336768
 30
0.0
  0
LWPOLYLINE
  5
1ed
100
AcDbEntity
  8
makeabox.io-20230413081324-mm-100.0[w]x120.0[h]x69.0[d]-3.000[t]-0.0610[k]-0.025[s]
 62
7
100
AcDbPolyline
 90
2
 70
0
 10
529.354364
 20
601.574493
 30
0.0
 10
529.354364
 20
623.479453
 30
0.0
  0
LWPOLYLINE
  5
1ee
100
AcDbEntity
  8
makeabox.io-20230413081324-mm-100.0[w]x120.0[h]x69.0[d]-3.000[t]-0.0610[k]-0.025[s]
 62
7
100
AcDbPolyline
 90
2
 70
0
 10
529.354364
 20
645.038814
 30
0.0
 10
529.354364
 20
666.943784
 30
0.0
  0
LWPOLYLINE
  5
1ef
100
AcDbEntity
  8
makeabox.io-20230413081324-mm-100.0[w]x120.0[h]x69.0[d]-3.000[t]-0.0610[k]-0.025[s]
 62
7
100
AcDbPolyline
 90
2
 70
0
 10
529.354364
 20
688.503146
 30
0.0
 10
529.354364
 20
710.408105
 30
0.0
  0
LWPOLYLINE
  5
1f0
100
AcDbEntity
  8
makeabox.io-20230413081324-mm-100.0[w]x120.0[h]x69.0[d]-3.000[t]-0.0610[k]-0.025[s]
 62
7
100
AcDbPolyline
 90
2
 70
0
 10
529.354364
 20
731.967477
 30
0.0
 10
529.354364
 20
753.872437
 30
0.0
  0
LWPOLYLINE
  5
1f1
100
AcDbEntity
  8
makeabox.io-20230413081324-mm-100.0[w]x120.0[h]x69.0[d]-3.000[t]-0.0610[k]-0.025[s]
 62
7
100
AcDbPolyline
 90
2
 70
0
 10
529.354364
 20
775.431798
 30
0.0
 10
529.354364
 20
797.336768
 30
0.0
  0
LWPOLYLINE
  5
1f2
100
AcDbEntity
  8
makeabox.io-20230413081324-mm-100.0[w]x120.0[h]x69.0[d]-3.000[t]-0.0610[k]-0.025[s]
 62
7
100
AcDbPolyline
 90
2
 70
0
 10
228.710775
 20
812.867813
 30
0.0
 10
228.710775
 20
821.371706
 30
0.0
  0
LWPOLYLINE
  5
1f3
100
AcDbEntity
  8
makeabox.io-20230413081324-mm-100.0[w]x120.0[h]x69.0[d]-3.000[t]-0.0610[k]-0.025[s]
 62
7
100
AcDbPolyline
 90
2
 70
0
 10
228.710775
 20
812.867813
 30
0.0
 10
237.214658
 20
812.867813
 30
0.0
  0
LWPOLYLINE
  5
1f4
100
AcDbEntity
  8
makeabox.io-20230413081324-mm-100.0[w]x120.0[h]x69.0[d]-3.000[t]-0.0610[k]-0.025[s]
 62
7
100
AcDbPolyline
 90
2
 70
0
 10
228.710775
 20
821.371706
 30
0.0
 10
228.710775
 20
821.544505
 30
0.0
  0
LWPOLYLINE
  5
1f5
100
AcDbEntity
  8
makeabox.io-20230413081324-mm-100.0[w]x120.0[h]x69.0[d]-3.000[t]-0.0610[k]-0.025[s]
 62
7
100
AcDbPolyline
 90
2
 70
0
 10
237.214658
 20
821.544505
 30
0.0
 10
228.710775
 20
821.544505
 30
0.0
  0
LWPOLYLINE
  5
1f6
100
AcDbEntity
  8
makeabox.io-20230413081324-mm-100.0[w]x120.0[h]x69.0[d]-3.000[t]-0.0610[k]-0.025[s]
 62
7
100
AcDbPolyline
 90
3
 70
0
 10
228.710775
 20
866.898586
 30
0.0
 10
228.710775
 20
844.048752
 30
0.0
 10
237.214658
 20
844.048752
 30
0.0
  0
LWPOLYLINE
  5
1f7
100
AcDbEntity
  8
makeabox.io-20230413081324-mm-100.0[w]x120.0[h]x69.0[d]-3.000[t]-0.0610[k]-0.025[s]
 62
7
100
AcDbPolyline
 90
2
 70
0
 10
237.214658
 20
866.898586
 30
0.0
 10
228.710775
 20
866.898586
 30
0.0
  0
LWPOLYLINE
  5
1f8
100
AcDbEntity
  8
makeabox.io-20230413081324-mm-100.0[w]x120.0[h]x69.0[d]-3.000[t]-0.0610[k]-0.025[s]
 62
7
100
AcDbPolyline
 90
3
 70
0
 10
228.710775
 20
912.252667
 30
0.0
 10
228.710775
 20
889.402833
 30
0.0
 10
237.214658
 20
889.402833
 30
0.0
  0
LWPOLYLINE
  5
1f9
100
AcDbEntity
  8
makeabox.io-20230413081324-mm-100.0[w]x120.0[h]x69.0[d]-3.000[t]-0.0610[k]-0.025[s]
 62
7
100
AcDbPolyline
 90
2
 70
0
 10
237.214658
 20
912.252667
 30
0.0
 10
228.710775
 20
912.252667
 30
0.0
  0
LWPOLYLINE
  5
1fa
100
AcDbEntity
  8
makeabox.io-20230413081324-mm-100.0[w]x120.0[h]x69.0[d]-3.000[t]-0.0610[k]-0.025[s]
 62
7
100
AcDbPolyline
 90
3
 70
0
 10
228.710775
 20
957.606748
 30
0.0
 10
228.710775
 20
934.756914
 30
0.0
 10
237.214658
 20
934.756914
 30
0.0
  0
LWPOLYLINE
  5
1fb
100
AcDbEntity
  8
makeabox.io-20230413081324-mm-100.0[w]x120.0[h]x69.0[d]-3.000[t]-0.0610[k]-0.025[s]
 62
7
100
AcDbPolyline
 90
2
 70
0
 10
237.214658
 20
957.606748
 30
0.0
 10
228.710775
 20
957.606748
 30
0.0
  0
LWPOLYLINE
  5
1fc
100
AcDbEntity
  8
makeabox.io-20230413081324-mm-100.0[w]x120.0[h]x69.0[d]-3.000[t]-0.0610[k]-0.025[s]
 62
7
100
AcDbPolyline
 90
3
 70
0
 10
228.710775
 20
1002.960869
 30
0.0
 10
228.710775
 20
980.110995
 30
0.0
 10
237.214658
 20
980.110995
 30
0.0
  0
LWPOLYLINE
  5
1fd
100
AcDbEntity
  8
makeabox.io-20230413081324-mm-100.0[w]x120.0[h]x69.0[d]-3.000[t]-0.0610[k]-0.025[s]
 62
7
100
AcDbPolyline
 90
2
 70
0
 10
237.214658
 20
1002.960869
 30
0.0
 10
228.710775
 20
1002.960869
 30
0.0
  0
LWPOLYLINE
  5
1fe
100
AcDbEntity
  8
makeabox.io-20230413081324-mm-100.0[w]x120.0[h]x69.0[d]-3.000[t]-0.0610[k]-0.025[s]
 62
7
100
AcDbPolyline
 90
3
 70
0
 10
228.710775
 20
1048.314920
 30
0.0
 10
228.710775
 20
1025.465046
 30
0.0
 10
237.214658
 20
1025.465046
 30
0.0
  0
LWPOLYLINE
  5
1ff
100
AcDbEntity
  8
makeabox.io-20230413081324-mm-100.0[w]x120.0[h]x69.0[d]-3.000[t]-0.0610[k]-0.025[s]
 62
7
100
AcDbPolyline
 90
2
 70
0
 10
237.214658
 20
1048.314920
 30
0.0
 10
228.710775
 20
1048.314920
 30
0.0
  0
LWPOLYLINE
  5
200
100
AcDbEntity
  8
makeabox.io-20230413081324-mm-100.0[w]x120.0[h]x69.0[d]-3.000[t]-0.0610[k]-0.025[s]
 62
7
100
AcDbPolyline
 90
3
 70
0
 10
228.710775
 20
1093.668972
 30
0.0
 10
228.710775
 20
1070.819197
 30
0.0
 10
237.214658
 20
1070.819197
 30
0.0
  0
LWPOLYLINE
  5
201
100
AcDbEntity
  8
makeabox.io-20230413081324-mm-100.0[w]x120.0[h]x69.0[d]-3.000[t]-0.0610[k]-0.025[s]
 62
7
100
AcDbPolyline
 90
2
 70
0
 10
237.214658
 20
1093.668972
 30
0.0
 10
228.710775
 20
1093.668972
 30
0.0
  0
LWPOLYLINE
  5
202
100
AcDbEntity
  8
makeabox.io-20230413081324-mm-100.0[w]x120.0[h]x69.0[d]-3.000[t]-0.0610[k]-0.025[s]
 62
7
100
AcDbPolyline
 90
3
 70
0
 10
228.710775
 20
1139.023123
 30
0.0
 10
228.710775
 20
1116.173248
 30
0.0
 10
237.214658
 20
1116.173248
 30
0.0
  0
LWPOLYLINE
  5
203
100
AcDbEntity
  8
makeabox.io-20230413081324-mm-100.0[w]x120.0[h]x69.0[d]-3.000[t]-0.0610[k]-0.025[s]
 62
7
100
AcDbPolyline
 90
2
 70
0
 10
237.214658
 20
1139.023123
 30
0.0
 10
228.710775
 20
1139.023123
 30
0.0
  0
LWPOLYLINE
  5
204
100
AcDbEntity
  8
makeabox.io-20230413081324-mm-100.0[w]x120.0[h]x69.0[d]-3.000[t]-0.0610[k]-0.025[s]
 62
7
100
AcDbPolyline
 90
2
 70
0
 10
228.710775
 20
1161.527299
 30
0.0
 10
228.710775
 20
1161.700098
 30
0.0
  0
LWPOLYLINE
  5
205
100
AcDbEntity
  8
makeabox.io-20230413081324-mm-100.0[w]x120.0[h]x69.0[d]-3.000[t]-0.0610[k]-0.025[s]
 62
7
100
AcDbPolyline
 90
2
 70
0
 10
237.214658
 20
1161.527299
 30
0.0
 10
228.710775
 20
1161.527299
 30
0.0
  0
LWPOLYLINE
  5
206
100
AcDbEntity
  8
makeabox.io-20230413081324-mm-100.0[w]x120.0[h]x69.0[d]-3.000[t]-0.0610[k]-0.025[s]
 62
7
100
AcDbPolyline
 90
3
 70
0
 10
228.710775
 20
1161.700098
 30
0.0
 10
228.710775
 20
1170.204051
 30
0.0
 10
237.214658
 20
1170.204051
 30
0.0
  0
LWPOLYLINE
  5
207
100
AcDbEntity
  8
makeabox.io-20230413081324-mm-100.0[w]x120.0[h]x69.0[d]-3.000[t]-0.0610[k]-0.025[s]
 62
7
100
AcDbPolyline
 90
2
 70
0
 10
237.214658
 20
812.867813
 30
0.0
 10
259.192307
 20
812.867813
 30
0.0
  0
LWPOLYLINE
  5
208
100
AcDbEntity
  8
makeabox.io-20230413081324-mm-100.0[w]x120.0[h]x69.0[d]-3.000[t]-0.0610[k]-0.025[s]
 62
7
100
AcDbPolyline
 90
2
 70
0
 10
237.214658
 20
844.048752
 30
0.0
 10
237.214658
 20
821.544505
 30
0.0
  0
LWPOLYLINE
  5
209
100
AcDbEntity
  8
makeabox.io-20230413081324-mm-100.0[w]x120.0[h]x69.0[d]-3.000[t]-0.0610[k]-0.025[s]
 62
7
100
AcDbPolyline
 90
2
 70
0
 10
237.214658
 20
889.402833
 30
0.0
 10
237.214658
 20
866.898586
 30
0.0
  0
LWPOLYLINE
  5
20a
100
AcDbEntity
  8
makeabox.io-20230413081324-mm-100.0[w]x120.0[h]x69.0[d]-3.000[t]-0.0610[k]-0.025[s]
 62
7
100
AcDbPolyline
 90
2
 70
0
 10
237.214658
 20
934.756914
 30
0.0
 10
237.214658
 20
912.252667
 30
0.0
  0
LWPOLYLINE
  5
20b
100
AcDbEntity
  8
makeabox.io-20230413081324-mm-100.0[w]x120.0[h]x69.0[d]-3.000[t]-0.0610[k]-0.025[s]
 62
7
100
AcDbPolyline
 90
2
 70
0
 10
237.214658
 20
980.110995
 30
0.0
 10
237.214658
 20
957.606748
 30
0.0
  0
LWPOLYLINE
  5
20c
100
AcDbEntity
  8
makeabox.io-20230413081324-mm-100.0[w]x120.0[h]x69.0[d]-3.000[t]-0.0610[k]-0.025[s]
 62
7
100
AcDbPolyline
 90
2
 70
0
 10
237.214658
 20
1025.465046
 30
0.0
 10
237.214658
 20
1002.960869
 30
0.0
  0
LWPOLYLINE
  5
20d
100
AcDbEntity
  8
makeabox.io-20230413081324-mm-100.0[w]x120.0[h]x69.0[d]-3.000[t]-0.0610[k]-0.025[s]
 62
7
100
AcDbPolyline
 90
2
 70
0
 10
237.214658
 20
1070.819197
 30
0.0
 10
237.214658
 20
1048.314920
 30
0.0
  0
LWPOLYLINE
  5
20e
100
AcDbEntity
  8
makeabox.io-20230413081324-mm-100.0[w]x120.0[h]x69.0[d]-3.000[t]-0.0610[k]-0.025[s]
 62
7
100
AcDbPolyline
 90
2
 70
0
 10
237.214658
 20
1116.173248
 30
0.0
 10
237.214658
 20
1093.668972
 30
0.0
  0
LWPOLYLINE
  5
20f
100
AcDbEntity
  8
makeabox.io-20230413081324-mm-100.0[w]x120.0[h]x69.0[d]-3.000[t]-0.0610[k]-0.025[s]
 62
7
100
AcDbPolyline
 90
2
 70
0
 10
237.214658
 20
1161.527299
 30
0.0
 10
237.214658
 20
1139.023123
 30
0.0
  0
LWPOLYLINE
  5
210
100
AcDbEntity
  8
makeabox.io-20230413081324-mm-100.0[w]x120.0[h]x69.0[d]-3.000[t]-0.0610[k]-0.025[s]
 62
7
100
AcDbPolyline
 90
2
 70
0
 10
259.192307
 20
1170.204051
 30
0.0
 10
237.214658
 20
1170.204051
 30
0.0
  0
LWPOLYLINE
  5
211
100
AcDbEntity
  8
makeabox.io-20230413081324-mm-100.0[w]x120.0[h]x69.0[d]-3.000[t]-0.0610[k]-0.025[s]
 62
7
100
AcDbPolyline
 90
3
 70
0
 10
259.192307
 20
812.867813
 30
0.0
 10
259.192307
 20
821.371706
 30
0.0
 10
280.824358
 20
821.371706
 30
0.0
  0
LWPOLYLINE
  5
212
100
AcDbEntity
  8
makeabox.io-20230413081324-mm-100.0[w]x120.0[h]x69.0[d]-3.000[t]-0.0610[k]-0.025[s]
 62
7
100
AcDbPolyline
 90
2
 70
0
 10
259.192307
 20
1161.700098
 30
0.0
 10
259.192307
 20
1170.204051
 30
0.0
  0
LWPOLYLINE
  5
213
100
AcDbEntity
  8
makeabox.io-20230413081324-mm-100.0[w]x120.0[h]x69.0[d]-3.000[t]-0.0610[k]-0.025[s]
 62
7
100
AcDbPolyline
 90
2
 70
0
 10
280.824358
 20
1161.700098
 30
0.0
 10
259.192307
 20
1161.700098
 30
0.0
  0
LWPOLYLINE
  5
214
100
AcDbEntity
  8
makeabox.io-20230413081324-mm-100.0[w]x120.0[h]x69.0[d]-3.000[t]-0.0610[k]-0.025[s]
 62
7
100
AcDbPolyline
 90
3
 70
0
 10
280.824358
 20
821.371706
 30
0.0
 10
280.824358
 20
812.867813
 30
0.0
 10
302.801998
 20
812.867813
 30
0.0
  0
LWPOLYLINE
  5
215
100
AcDbEntity
  8
makeabox.io-20230413081324-mm-100.0[w]x120.0[h]x69.0[d]-3.000[t]-0.0610[k]-0.025[s]
 62
7
100
AcDbPolyline
 90
2
 70
0
 10
280.824358
 20
1170.204051
 30
0.0
 10
280.824358
 20
1161.700098
 30
0.0
  0
LWPOLYLINE
  5
216
100
AcDbEntity
  8
makeabox.io-20230413081324-mm-100.0[w]x120.0[h]x69.0[d]-3.000[t]-0.0610[k]-0.025[s]
 62
7
100
AcDbPolyline
 90
2
 70
0
 10
302.801998
 20
1170.204051
 30
0.0
 10
280.824358
 20
1170.204051
 30
0.0
  0
LWPOLYLINE
  5
217
100
AcDbEntity
  8
makeabox.io-20230413081324-mm-100.0[w]x120.0[h]x69.0[d]-3.000[t]-0.0610[k]-0.025[s]
 62
7
100
AcDbPolyline
 90
3
 70
0
 10
302.801998
 20
812.867813
 30
0.0
 10
302.801998
 20
821.371706
 30
0.0
 10
324.434049
 20
821.371706
 30
0.0
  0
LWPOLYLINE
  5
218
100
AcDbEntity
  8
makeabox.io-20230413081324-mm-100.0[w]x120.0[h]x69.0[d]-3.000[t]-0.0610[k]-0.025[s]
 62
7
100
AcDbPolyline
 90
2
 70
0
 10
302.801998
 20
1161.700098
 30
0.0
 10
302.801998
 20
1170.204051
 30
0.0
  0
LWPOLYLINE
  5
219
100
AcDbEntity
  8
makeabox.io-20230413081324-mm-100.0[w]x120.0[h]x69.0[d]-3.000[t]-0.0610[k]-0.025[s]
 62
7
100
AcDbPolyline
 90
2
 70
0
 10
324.434049
 20
1161.700098
 30
0.0
 10
302.801998
 20
1161.700098
 30
0.0
  0
LWPOLYLINE
  5
21a
100
AcDbEntity
  8
makeabox.io-20230413081324-mm-100.0[w]x120.0[h]x69.0[d]-3.000[t]-0.0610[k]-0.025[s]
 62
7
100
AcDbPolyline
 90
3
 70
0
 10
324.434049
 20
821.371706
 30
0.0
 10
324.434049
 20
812.867813
 30
0.0
 10
346.411698
 20
812.867813
 30
0.0
  0
LWPOLYLINE
  5
21b
100
AcDbEntity
  8
makeabox.io-20230413081324-mm-100.0[w]x120.0[h]x69.0[d]-3.000[t]-0.0610[k]-0.025[s]
 62
7
100
AcDbPolyline
 90
2
 70
0
 10
324.434049
 20
1170.204051
 30
0.0
 10
324.434049
 20
1161.700098
 30
0.0
  0
LWPOLYLINE
  5
21c
100
AcDbEntity
  8
makeabox.io-20230413081324-mm-100.0[w]x120.0[h]x69.0[d]-3.000[t]-0.0610[k]-0.025[s]
 62
7
100
AcDbPolyline
 90
2
 70
0
 10
346.411698
 20
1170.204051
 30
0.0
 10
324.434049
 20
1170.204051
 30
0.0
  0
LWPOLYLINE
  5
21d
100
AcDbEntity
  8
makeabox.io-20230413081324-mm-100.0[w]x120.0[h]x69.0[d]-3.000[t]-0.0610[k]-0.025[s]
 62
7
100
AcDbPolyline
 90
3
 70
0
 10
346.411698
 20
812.867813
 30
0.0
 10
346.411698
 20
821.371706
 30
0.0
 10
368.043740
 20
821.371706
 30
0.0
  0
LWPOLYLINE
  5
21e
100
AcDbEntity
  8
makeabox.io-20230413081324-mm-100.0[w]x120.0[h]x69.0[d]-3.000[t]-0.0610[k]-0.025[s]
 62
7
100
AcDbPolyline
 90
2
 70
0
 10
346.411698
 20
1161.700098
 30
0.0
 10
346.411698
 20
1170.204051
 30
0.0
  0
LWPOLYLINE
  5
21f
100
AcDbEntity
  8
makeabox.io-20230413081324-mm-100.0[w]x120.0[h]x69.0[d]-3.000[t]-0.0610[k]-0.025[s]
 62
7
100
AcDbPolyline
 90
2
 70
0
 10
368.043740
 20
1161.700098
 30
0.0
 10
346.411698
 20
1161.700098
 30
0.0
  0
LWPOLYLINE
  5
220
100
AcDbEntity
  8
makeabox.io-20230413081324-mm-100.0[w]x120.0[h]x69.0[d]-3.000[t]-0.0610[k]-0.025[s]
 62
7
100
AcDbPolyline
 90
3
 70
0
 10
368.043740
 20
821.371706
 30
0.0
 10
368.043740
 20
812.867813
 30
0.0
 10
390.021389
 20
812.867813
 30
0.0
  0
LWPOLYLINE
  5
221
100
AcDbEntity
  8
makeabox.io-20230413081324-mm-100.0[w]x120.0[h]x69.0[d]-3.000[t]-0.0610[k]-0.025[s]
 62
7
100
AcDbPolyline
 90
2
 70
0
 10
368.043740
 20
1170.204051
 30
0.0
 10
368.043740
 20
1161.700098
 30
0.0
  0
LWPOLYLINE
  5
222
100
AcDbEntity
  8
makeabox.io-20230413081324-mm-100.0[w]x120.0[h]x69.0[d]-3.000[t]-0.0610[k]-0.025[s]
 62
7
100
AcDbPolyline
 90
2
 70
0
 10
390.021389
 20
1170.204051
 30
0.0
 10
368.043740
 20
1170.204051
 30
0.0
  0
LWPOLYLINE
  5
223
100
AcDbEntity
  8
makeabox.io-20230413081324-mm-100.0[w]x120.0[h]x69.0[d]-3.000[t]-0.0610[k]-0.025[s]
 62
7
100
AcDbPolyline
 90
3
 70
0
 10
390.021389
 20
812.867813
 30
0.0
 10
390.021389
 20
821.371706
 30
0.0
 10
411.653440
 20
821.371706
 30
0.0
  0
LWPOLYLINE
  5
224
100
AcDbEntity
  8
makeabox.io-20230413081324-mm-100.0[w]x120.0[h]x69.0[d]-3.000[t]-0.0610[k]-0.025[s]
 62
7
100
AcDbPolyline
 90
2
 70
0
 10
390.021389
 20
1161.700098
 30
0.0
 10
390.021389
 20
1170.204051
 30
0.0
  0
LWPOLYLINE
  5
225
100
AcDbEntity
  8
makeabox.io-20230413081324-mm-100.0[w]x120.0[h]x69.0[d]-3.000[t]-0.0610[k]-0.025[s]
 62
7
100
AcDbPolyline
 90
2
 70
0
 10
411.653440
 20
1161.700098
 30
0.0
 10
390.021389
 20
1161.700098
 30
0.0
  0
LWPOLYLINE
  5
226
100
AcDbEntity
  8
makeabox.io-20230413081324-mm-100.0[w]x120.0[h]x69.0[d]-3.000[t]-0.0610[k]-0.025[s]
 62
7
100
AcDbPolyline
 90
3
 70
0
 10
411.653440
 20
821.371706
 30
0.0
 10
411.653440
 20
812.867813
 30
0.0
 10
433.631080
 20
812.867813
 30
0.0
  0
LWPOLYLINE
  5
227
100
AcDbEntity
  8
makeabox.io-20230413081324-mm-100.0[w]x120.0[h]x69.0[d]-3.000[t]-0.0610[k]-0.025[s]
 62
7
100
AcDbPolyline
 90
2
 70
0
 10
411.653440
 20
1170.204051
 30
0.0
 10
411.653440
 20
1161.700098
 30
0.0
  0
LWPOLYLINE
  5
228
100
AcDbEntity
  8
makeabox.io-20230413081324-mm-100.0[w]x120.0[h]x69.0[d]-3.000[t]-0.0610[k]-0.025[s]
 62
7
100
AcDbPolyline
 90
2
 70
0
 10
433.631080
 20
1170.204051
 30
0.0
 10
411.653440
 20
1170.204051
 30
0.0
  0
LWPOLYLINE
  5
229
100
AcDbEntity
  8
makeabox.io-20230413081324-mm-100.0[w]x120.0[h]x69.0[d]-3.000[t]-0.0610[k]-0.025[s]
 62
7
100
AcDbPolyline
 90
3
 70
0
 10
433.631080
 20
812.867813
 30
0.0
 10
433.631080
 20
821.371706
 30
0.0
 10
455.263131
 20
821.371706
 30
0.0
  0
LWPOLYLINE
  5
22a
100
AcDbEntity
  8
makeabox.io-20230413081324-mm-100.0[w]x120.0[h]x69.0[d]-3.000[t]-0.0610[k]-0.025[s]
 62
7
100
AcDbPolyline
 90
2
 70
0
 10
433.631080
 20
1161.700098
 30
0.0
 10
433.631080
 20
1170.204051
 30
0.0
  0
LWPOLYLINE
  5
22b
100
AcDbEntity
  8
makeabox.io-20230413081324-mm-100.0[w]x120.0[h]x69.0[d]-3.000[t]-0.0610[k]-0.025[s]
 62
7
100
AcDbPolyline
 90
2
 70
0
 10
455.263131
 20
1161.700098
 30
0.0
 10
433.631080
 20
1161.700098
 30
0.0
  0
LWPOLYLINE
  5
22c
100
AcDbEntity
  8
makeabox.io-20230413081324-mm-100.0[w]x120.0[h]x69.0[d]-3.000[t]-0.0610[k]-0.025[s]
 62
7
100
AcDbPolyline
 90
3
 70
0
 10
455.263131
 20
821.371706
 30
0.0
 10
455.263131
 20
812.867813
 30
0.0
 10
477.240780
 20
812.867813
 30
0.0
  0
LWPOLYLINE
  5
22d
100
AcDbEntity
  8
makeabox.io-20230413081324-mm-100.0[w]x120.0[h]x69.0[d]-3.000[t]-0.0610[k]-0.025[s]
 62
7
100
AcDbPolyline
 90
2
 70
0
 10
455.263131
 20
1170.204051
 30
0.0
 10
455.263131
 20
1161.700098
 30
0.0
  0
LWPOLYLINE
  5
22e
100
AcDbEntity
  8
makeabox.io-20230413081324-mm-100.0[w]x120.0[h]x69.0[d]-3.000[t]-0.0610[k]-0.025[s]
 62
7
100
AcDbPolyline
 90
2
 70
0
 10
477.240780
 20
1170.204051
 30
0.0
 10
455.263131
 20
1170.204051
 30
0.0
  0
LWPOLYLINE
  5
22f
100
AcDbEntity
  8
makeabox.io-20230413081324-mm-100.0[w]x120.0[h]x69.0[d]-3.000[t]-0.0610[k]-0.025[s]
 62
7
100
AcDbPolyline
 90
3
 70
0
 10
477.240780
 20
812.867813
 30
0.0
 10
477.240780
 20
821.371706
 30
0.0
 10
498.872822
 20
821.371706
 30
0.0
  0
LWPOLYLINE
  5
230
100
AcDbEntity
  8
makeabox.io-20230413081324-mm-100.0[w]x120.0[h]x69.0[d]-3.000[t]-0.0610[k]-0.025[s]
 62
7
100
AcDbPolyline
 90
2
 70
0
 10
477.240780
 20
1161.700098
 30
0.0
 10
477.240780
 20
1170.204051
 30
0.0
  0
LWPOLYLINE
  5
231
100
AcDbEntity
  8
makeabox.io-20230413081324-mm-100.0[w]x120.0[h]x69.0[d]-3.000[t]-0.0610[k]-0.025[s]
 62
7
100
AcDbPolyline
 90
2
 70
0
 10
498.872822
 20
1161.700098
 30
0.0
 10
477.240780
 20
1161.700098
 30
0.0
  0
LWPOLYLINE
  5
232
100
AcDbEntity
  8
makeabox.io-20230413081324-mm-100.0[w]x120.0[h]x69.0[d]-3.000[t]-0.0610[k]-0.025[s]
 62
7
100
AcDbPolyline
 90
3
 70
0
 10
498.872822
 20
821.371706
 30
0.0
 10
498.872822
 20
812.867813
 30
0.0
 10
520.850471
 20
812.867813
 30
0.0
  0
LWPOLYLINE
  5
233
100
AcDbEntity
  8
makeabox.io-20230413081324-mm-100.0[w]x120.0[h]x69.0[d]-3.000[t]-0.0610[k]-0.025[s]
 62
7
100
AcDbPolyline
 90
2
 70
0
 10
498.872822
 20
1170.204051
 30
0.0
 10
498.872822
 20
1161.700098
 30
0.0
  0
LWPOLYLINE
  5
234
100
AcDbEntity
  8
makeabox.io-20230413081324-mm-100.0[w]x120.0[h]x69.0[d]-3.000[t]-0.0610[k]-0.025[s]
 62
7
100
AcDbPolyline
 90
2
 70
0
 10
498.872822
 20
1170.204051
 30
0.0
 10
520.850471
 20
1170.204051
 30
0.0
  0
LWPOLYLINE
  5
235
100
AcDbEntity
  8
makeabox.io-20230413081324-mm-100.0[w]x120.0[h]x69.0[d]-3.000[t]-0.0610[k]-0.025[s]
 62
7
100
AcDbPolyline
 90
2
 70
0
 10
520.850471
 20
812.867813
 30
0.0
 10
529.354364
 20
812.867813
 30
0.0
  0
LWPOLYLINE
  5
236
100
AcDbEntity
  8
makeabox.io-20230413081324-mm-100.0[w]x120.0[h]x69.0[d]-3.000[t]-0.0610[k]-0.025[s]
 62
7
100
AcDbPolyline
 90
2
 70
0
 10
520.850471
 20
821.544505
 30
0.0
 10
520.850471
 20
844.048752
 30
0.0
  0
LWPOLYLINE
  5
237
100
AcDbEntity
  8
makeabox.io-20230413081324-mm-100.0[w]x120.0[h]x69.0[d]-3.000[t]-0.0610[k]-0.025[s]
 62
7
100
AcDbPolyline
 90
2
 70
0
 10
520.850471
 20
821.544505
 30
0.0
 10
529.354364
 20
821.544505
 30
0.0
  0
LWPOLYLINE
  5
238
100
AcDbEntity
  8
makeabox.io-20230413081324-mm-100.0[w]x120.0[h]x69.0[d]-3.000[t]-0.0610[k]-0.025[s]
 62
7
100
AcDbPolyline
 90
2
 70
0
 10
520.850471
 20
844.048752
 30
0.0
 10
529.354364
 20
844.048752
 30
0.0
  0
LWPOLYLINE
  5
239
100
AcDbEntity
  8
makeabox.io-20230413081324-mm-100.0[w]x120.0[h]x69.0[d]-3.000[t]-0.0610[k]-0.025[s]
 62
7
100
AcDbPolyline
 90
2
 70
0
 10
520.850471
 20
866.898586
 30
0.0
 10
520.850471
 20
889.402833
 30
0.0
  0
LWPOLYLINE
  5
23a
100
AcDbEntity
  8
makeabox.io-20230413081324-mm-100.0[w]x120.0[h]x69.0[d]-3.000[t]-0.0610[k]-0.025[s]
 62
7
100
AcDbPolyline
 90
2
 70
0
 10
529.354364
 20
866.898586
 30
0.0
 10
520.850471
 20
866.898586
 30
0.0
  0
LWPOLYLINE
  5
23b
100
AcDbEntity
  8
makeabox.io-20230413081324-mm-100.0[w]x120.0[h]x69.0[d]-3.000[t]-0.0610[k]-0.025[s]
 62
7
100
AcDbPolyline
 90
2
 70
0
 10
520.850471
 20
889.402833
 30
0.0
 10
529.354364
 20
889.402833
 30
0.0
  0
LWPOLYLINE
  5
23c
100
AcDbEntity
  8
makeabox.io-20230413081324-mm-100.0[w]x120.0[h]x69.0[d]-3.000[t]-0.0610[k]-0.025[s]
 62
7
100
AcDbPolyline
 90
2
 70
0
 10
520.850471
 20
912.252667
 30
0.0
 10
520.850471
 20
934.756914
 30
0.0
  0
LWPOLYLINE
  5
23d
100
AcDbEntity
  8
makeabox.io-20230413081324-mm-100.0[w]x120.0[h]x69.0[d]-3.000[t]-0.0610[k]-0.025[s]
 62
7
100
AcDbPolyline
 90
2
 70
0
 10
529.354364
 20
912.252667
 30
0.0
 10
520.850471
 20
912.252667
 30
0.0
  0
LWPOLYLINE
  5
23e
100
AcDbEntity
  8
makeabox.io-20230413081324-mm-100.0[w]x120.0[h]x69.0[d]-3.000[t]-0.0610[k]-0.025[s]
 62
7
100
AcDbPolyline
 90
2
 70
0
 10
520.850471
 20
934.756914
 30
0.0
 10
529.354364
 20
934.756914
 30
0.0
  0
LWPOLYLINE
  5
23f
100
AcDbEntity
  8
makeabox.io-20230413081324-mm-100.0[w]x120.0[h]x69.0[d]-3.000[t]-0.0610[k]-0.025[s]
 62
7
100
AcDbPolyline
 90
2
 70
0
 10
520.850471
 20
957.606748
 30
0.0
 10
520.850471
 20
980.110995
 30
0.0
  0
LWPOLYLINE
  5
240
100
AcDbEntity
  8
makeabox.io-20230413081324-mm-100.0[w]x120.0[h]x69.0[d]-3.000[t]-0.0610[k]-0.025[s]
 62
7
100
AcDbPolyline
 90
2
 70
0
 10
529.354364
 20
957.606748
 30
0.0
 10
520.850471
 20
957.606748
 30
0.0
  0
LWPOLYLINE
  5
241
100
AcDbEntity
  8
makeabox.io-20230413081324-mm-100.0[w]x120.0[h]x69.0[d]-3.000[t]-0.0610[k]-0.025[s]
 62
7
100
AcDbPolyline
 90
2
 70
0
 10
520.850471
 20
980.110995
 30
0.0
 10
529.354364
 20
980.110995
 30
0.0
  0
LWPOLYLINE
  5
242
100
AcDbEntity
  8
makeabox.io-20230413081324-mm-100.0[w]x120.0[h]x69.0[d]-3.000[t]-0.0610[k]-0.025[s]
 62
7
100
AcDbPolyline
 90
2
 70
0
 10
520.850471
 20
1002.960869
 30
0.0
 10
520.850471
 20
1025.465046
 30
0.0
  0
LWPOLYLINE
  5
243
100
AcDbEntity
  8
makeabox.io-20230413081324-mm-100.0[w]x120.0[h]x69.0[d]-3.000[t]-0.0610[k]-0.025[s]
 62
7
100
AcDbPolyline
 90
2
 70
0
 10
529.354364
 20
1002.960869
 30
0.0
 10
520.850471
 20
1002.960869
 30
0.0
  0
LWPOLYLINE
  5
244
100
AcDbEntity
  8
makeabox.io-20230413081324-mm-100.0[w]x120.0[h]x69.0[d]-3.000[t]-0.0610[k]-0.025[s]
 62
7
100
AcDbPolyline
 90
2
 70
0
 10
520.850471
 20
1025.465046
 30
0.0
 10
529.354364
 20
1025.465046
 30
0.0
  0
LWPOLYLINE
  5
245
100
AcDbEntity
  8
makeabox.io-20230413081324-mm-100.0[w]x120.0[h]x69.0[d]-3.000[t]-0.0610[k]-0.025[s]
 62
7
100
AcDbPolyline
 90
2
 70
0
 10
520.850471
 20
1048.314920
 30
0.0
 10
520.850471
 20
1070.819197
 30
0.0
  0
LWPOLYLINE
  5
246
100
AcDbEntity
  8
makeabox.io-20230413081324-mm-100.0[w]x120.0[h]x69.0[d]-3.000[t]-0.0610[k]-0.025[s]
 62
7
100
AcDbPolyline
 90
2
 70
0
 10
529.354364
 20
1048.314920
 30
0.0
 10
520.850471
 20
1048.314920
 30
0.0
  0
LWPOLYLINE
  5
247
100
AcDbEntity
  8
makeabox.io-20230413081324-mm-100.0[w]x120.0[h]x69.0[d]-3.000[t]-0.0610[k]-0.025[s]
 62
7
100
AcDbPolyline
 90
2
 70
0
 10
520.850471
 20
1070.819197
 30
0.0
 10
529.354364
 20
1070.819197
 30
0.0
  0
LWPOLYLINE
  5
248
100
AcDbEntity
  8
makeabox.io-20230413081324-mm-100.0[w]x120.0[h]x69.0[d]-3.000[t]-0.0610[k]-0.025[s]
 62
7
100
AcDbPolyline
 90
2
 70
0
 10
520.850471
 20
1093.668972
 30
0.0
 10
520.850471
 20
1116.173248
 30
0.0
  0
LWPOLYLINE
  5
249
100
AcDbEntity
  8
makeabox.io-20230413081324-mm-100.0[w]x120.0[h]x69.0[d]-3.000[t]-0.0610[k]-0.025[s]
 62
7
100
AcDbPolyline
 90
2
 70
0
 10
529.354364
 20
1093.668972
 30
0.0
 10
520.850471
 20
1093.668972
 30
0.0
  0
LWPOLYLINE
  5
24a
100
AcDbEntity
  8
makeabox.io-20230413081324-mm-100.0[w]x120.0[h]x69.0[d]-3.000[t]-0.0610[k]-0.025[s]
 62
7
100
AcDbPolyline
 90
2
 70
0
 10
520.850471
 20
1116.173248
 30
0.0
 10
529.354364
 20
1116.173248
 30
0.0
  0
LWPOLYLINE
  5
24b
100
AcDbEntity
  8
makeabox.io-20230413081324-mm-100.0[w]x120.0[h]x69.0[d]-3.000[t]-0.0610[k]-0.025[s]
 62
7
100
AcDbPolyline
 90
2
 70
0
 10
520.850471
 20
1139.023123
 30
0.0
 10
520.850471
 20
1161.527299
 30
0.0
  0
LWPOLYLINE
  5
24c
100
AcDbEntity
  8
makeabox.io-20230413081324-mm-100.0[w]x120.0[h]x69.0[d]-3.000[t]-0.0610[k]-0.025[s]
 62
7
100
AcDbPolyline
 90
2
 70
0
 10
529.354364
 20
1139.023123
 30
0.0
 10
520.850471
 20
1139.023123
 30
0.0
  0
LWPOLYLINE
  5
24d
100
AcDbEntity
  8
makeabox.io-20230413081324-mm-100.0[w]x120.0[h]x69.0[d]-3.000[t]-0.0610[k]-0.025[s]
 62
7
100
AcDbPolyline
 90
2
 70
0
 10
520.850471
 20
1161.527299
 30
0.0
 10
529.354364
 20
1161.527299
 30
0.0
  0
LWPOLYLINE
  5
24e
100
AcDbEntity
  8
makeabox.io-20230413081324-mm-100.0[w]x120.0[h]x69.0[d]-3.000[t]-0.0610[k]-0.025[s]
 62
7
100
AcDbPolyline
 90
2
 70
0
 10
520.850471
 20
1170.204051
 30
0.0
 10
529.354364
 20
1170.204051
 30
0.0
  0
LWPOLYLINE
  5
24f
100
AcDbEntity
  8
makeabox.io-20230413081324-mm-100.0[w]x120.0[h]x69.0[d]-3.000[t]-0.0610[k]-0.025[s]
 62
7
100
AcDbPolyline
 90
3
 70
0
 10
529.354364
 20
812.867813
 30
0.0
 10
529.354364
 20
821.371706
 30
0.0
 10
529.354364
 20
821.544505
 30
0.0
  0
LWPOLYLINE
  5
250
100
AcDbEntity
  8
makeabox.io-20230413081324-mm-100.0[w]x120.0[h]x69.0[d]-3.000[t]-0.0610[k]-0.025[s]
 62
7
100
AcDbPolyline
 90
2
 70
0
 10
529.354364
 20
844.048752
 30
0.0
 10
529.354364
 20
866.898586
 30
0.0
  0
LWPOLYLINE
  5
251
100
AcDbEntity
  8
makeabox.io-20230413081324-mm-100.0[w]x120.0[h]x69.0[d]-3.000[t]-0.0610[k]-0.025[s]
 62
7
100
AcDbPolyline
 90
2
 70
0
 10
529.354364
 20
889.402833
 30
0.0
 10
529.354364
 20
912.252667
 30
0.0
  0
LWPOLYLINE
  5
252
100
AcDbEntity
  8
makeabox.io-20230413081324-mm-100.0[w]x120.0[h]x69.0[d]-3.000[t]-0.0610[k]-0.025[s]
 62
7
100
AcDbPolyline
 90
2
 70
0
 10
529.354364
 20
934.756914
 30
0.0
 10
529.354364
 20
957.606748
 30
0.0
  0
LWPOLYLINE
  5
253
100
AcDbEntity
  8
makeabox.io-20230413081324-mm-100.0[w]x120.0[h]x69.0[d]-3.000[t]-0.0610[k]-0.025[s]
 62
7
100
AcDbPolyline
 90
2
 70
0
 10
529.354364
 20
980.110995
 30
0.0
 10
529.354364
 20
1002.960869
 30
0.0
  0
LWPOLYLINE
  5
254
100
AcDbEntity
  8
makeabox.io-20230413081324-mm-100.0[w]x120.0[h]x69.0[d]-3.000[t]-0.0610[k]-0.025[s]
 62
7
100
AcDbPolyline
 90
2
 70
0
 10
529.354364
 20
1025.465046
 30
0.0
 10
529.354364
 20
1048.314920
 30
0.0
  0
LWPOLYLINE
  5
255
100
AcDbEntity
  8
makeabox.io-20230413081324-mm-100.0[w]x120.0[h]x69.0[d]-3.000[t]-0.0610[k]-0.025[s]
 62
7
100
AcDbPolyline
 90
2
 70
0
 10
529.354364
 20
1070.819197
 30
0.0
 10
529.354364
 20
1093.668972
 30
0.0
  0
LWPOLYLINE
  5
256
100
AcDbEntity
  8
makeabox.io-20230413081324-mm-100.0[w]x120.0[h]x69.0[d]-3.000[t]-0.0610[k]-0.025[s]
 62
7
100
AcDbPolyline
 90
2
 70
0
 10
529.354364
 20
1116.173248
 30
0.0
 10
529.354364
 20
1139.023123
 30
0.0
  0
LWPOLYLINE
  5
257
100
AcDbEntity
  8
makeabox.io-20230413081324-mm-100.0[w]x120.0[h]x69.0[d]-3.000[t]-0.0610[k]-0.025[s]
 62
7
100
AcDbPolyline
 90
3
 70
0
 10
529.354364
 20
1161.527299
 30
0.0
 10
529.354364
 20
1161.700098
 30
0.0
 10
529.354364
 20
1170.204051
 30
0.0
  0
LWPOLYLINE
  5
258
100
AcDbEntity
  8
makeabox.io-20230413081324-mm-100.0[w]x120.0[h]x69.0[d]-3.000[t]-0.0610[k]-0.025[s]
 62
7
100
AcDbPolyline
 90
3
 70
0
 10
8.913551
 20
260.060977
 30
0.0
 10
8.913551
 20
237.211133
 30
0.0
 10
17.417444
 20
237.211133
 30
0.0
  0
LWPOLYLINE
  5
259
100
AcDbEntity
  8
makeabox.io-20230413081324-mm-100.0[w]x120.0[h]x69.0[d]-3.000[t]-0.0610[k]-0.025[s]
 62
7
100
AcDbPolyline
 90
2
 70
0
 10
17.417444
 20
260.060977
 30
0.0
 10
8.913551
 20
260.060977
 30
0.0
  0
LWPOLYLINE
  5
25a
100
AcDbEntity
  8
makeabox.io-20230413081324-mm-100.0[w]x120.0[h]x69.0[d]-3.000[t]-0.0610[k]-0.025[s]
 62
7
100
AcDbPolyline
 90
3
 70
0
 10
8.913551
 20
305.415058
 30
0.0
 10
8.913551
 20
282.565214
 30
0.0
 10
17.417444
 20
282.565214
 30
0.0
  0
LWPOLYLINE
  5
25b
100
AcDbEntity
  8
makeabox.io-20230413081324-mm-100.0[w]x120.0[h]x69.0[d]-3.000[t]-0.0610[k]-0.025[s]
 62
7
100
AcDbPolyline
 90
2
 70
0
 10
17.417444
 20
305.415058
 30
0.0
 10
8.913551
 20
305.415058
 30
0.0
  0
LWPOLYLINE
  5
25c
100
AcDbEntity
  8
makeabox.io-20230413081324-mm-100.0[w]x120.0[h]x69.0[d]-3.000[t]-0.0610[k]-0.025[s]
 62
7
100
AcDbPolyline
 90
3
 70
0
 10
8.913551
 20
350.769140
 30
0.0
 10
8.913551
 20
327.919295
 30
0.0
 10
17.417444
 20
327.919295
 30
0.0
  0
LWPOLYLINE
  5
25d
100
AcDbEntity
  8
makeabox.io-20230413081324-mm-100.0[w]x120.0[h]x69.0[d]-3.000[t]-0.0610[k]-0.025[s]
 62
7
100
AcDbPolyline
 90
2
 70
0
 10
17.417444
 20
350.769140
 30
0.0
 10
8.913551
 20
350.769140
 30
0.0
  0
LWPOLYLINE
  5
25e
100
AcDbEntity
  8
makeabox.io-20230413081324-mm-100.0[w]x120.0[h]x69.0[d]-3.000[t]-0.0610[k]-0.025[s]
 62
7
100
AcDbPolyline
 90
3
 70
0
 10
8.913551
 20
396.123221
 30
0.0
 10
8.913551
 20
373.273376
 30
0.0
 10
17.417444
 20
373.273376
 30
0.0
  0
LWPOLYLINE
  5
25f
100
AcDbEntity
  8
makeabox.io-20230413081324-mm-100.0[w]x120.0[h]x69.0[d]-3.000[t]-0.0610[k]-0.025[s]
 62
7
100
AcDbPolyline
 90
2
 70
0
 10
17.417444
 20
396.123221
 30
0.0
 10
8.913551
 20
396.123221
 30
0.0
  0
LWPOLYLINE
  5
260
100
AcDbEntity
  8
makeabox.io-20230413081324-mm-100.0[w]x120.0[h]x69.0[d]-3.000[t]-0.0610[k]-0.025[s]
 62
7
100
AcDbPolyline
 90
3
 70
0
 10
8.913551
 20
441.477302
 30
0.0
 10
8.913551
 20
418.627467
 30
0.0
 10
17.417444
 20
418.627467
 30
0.0
  0
LWPOLYLINE
  5
261
100
AcDbEntity
  8
makeabox.io-20230413081324-mm-100.0[w]x120.0[h]x69.0[d]-3.000[t]-0.0610[k]-0.025[s]
 62
7
100
AcDbPolyline
 90
2
 70
0
 10
17.417444
 20
441.477302
 30
0.0
 10
8.913551
 20
441.477302
 30
0.0
  0
LWPOLYLINE
  5
262
100
AcDbEntity
  8
makeabox.io-20230413081324-mm-100.0[w]x120.0[h]x69.0[d]-3.000[t]-0.0610[k]-0.025[s]
 62
7
100
AcDbPolyline
 90
3
 70
0
 10
8.913551
 20
486.831383
 30
0.0
 10
8.913551
 20
463.981548
 30
0.0
 10
17.417444
 20
463.981548
 30
0.0
  0
LWPOLYLINE
  5
263
100
AcDbEntity
  8
makeabox.io-20230413081324-mm-100.0[w]x120.0[h]x69.0[d]-3.000[t]-0.0610[k]-0.025[s]
 62
7
100
AcDbPolyline
 90
2
 70
0
 10
17.417444
 20
486.831383
 30
0.0
 10
8.913551
 20
486.831383
 30
0.0
  0
LWPOLYLINE
  5
264
100
AcDbEntity
  8
makeabox.io-20230413081324-mm-100.0[w]x120.0[h]x69.0[d]-3.000[t]-0.0610[k]-0.025[s]
 62
7
100
AcDbPolyline
 90
3
 70
0
 10
8.913551
 20
532.185464
 30
0.0
 10
8.913551
 20
509.335629
 30
0.0
 10
17.417444
 20
509.335629
 30
0.0
  0
LWPOLYLINE
  5
265
100
AcDbEntity
  8
makeabox.io-20230413081324-mm-100.0[w]x120.0[h]x69.0[d]-3.000[t]-0.0610[k]-0.025[s]
 62
7
100
AcDbPolyline
 90
2
 70
0
 10
17.417444
 20
532.185464
 30
0.0
 10
8.913551
 20
532.185464
 30
0.0
  0
LWPOLYLINE
  5
266
100
AcDbEntity
  8
makeabox.io-20230413081324-mm-100.0[w]x120.0[h]x69.0[d]-3.000[t]-0.0610[k]-0.025[s]
 62
7
100
AcDbPolyline
 90
3
 70
0
 10
8.913551
 20
577.539545
 30
0.0
 10
8.913551
 20
554.689710
 30
0.0
 10
17.417444
 20
554.689710
 30
0.0
  0
LWPOLYLINE
  5
267
100
AcDbEntity
  8
makeabox.io-20230413081324-mm-100.0[w]x120.0[h]x69.0[d]-3.000[t]-0.0610[k]-0.025[s]
 62
7
100
AcDbPolyline
 90
2
 70
0
 10
8.913551
 20
577.539545
 30
0.0
 10
17.417444
 20
577.539545
 30
0.0
  0
LWPOLYLINE
  5
268
100
AcDbEntity
  8
makeabox.io-20230413081324-mm-100.0[w]x120.0[h]x69.0[d]-3.000[t]-0.0610[k]-0.025[s]
 62
7
100
AcDbPolyline
 90
2
 70
0
 10
17.417444
 20
237.211133
 30
0.0
 10
39.149605
 20
237.211133
 30
0.0
  0
LWPOLYLINE
  5
269
100
AcDbEntity
  8
makeabox.io-20230413081324-mm-100.0[w]x120.0[h]x69.0[d]-3.000[t]-0.0610[k]-0.025[s]
 62
7
100
AcDbPolyline
 90
2
 70
0
 10
17.417444
 20
282.565214
 30
0.0
 10
17.417444
 20
260.060977
 30
0.0
  0
LWPOLYLINE
  5
26a
100
AcDbEntity
  8
makeabox.io-20230413081324-mm-100.0[w]x120.0[h]x69.0[d]-3.000[t]-0.0610[k]-0.025[s]
 62
7
100
AcDbPolyline
 90
2
 70
0
 10
17.417444
 20
327.919295
 30
0.0
 10
17.417444
 20
305.415058
 30
0.0
  0
LWPOLYLINE
  5
26b
100
AcDbEntity
  8
makeabox.io-20230413081324-mm-100.0[w]x120.0[h]x69.0[d]-3.000[t]-0.0610[k]-0.025[s]
 62
7
100
AcDbPolyline
 90
2
 70
0
 10
17.417444
 20
373.273376
 30
0.0
 10
17.417444
 20
350.769140
 30
0.0
  0
LWPOLYLINE
  5
26c
100
AcDbEntity
  8
makeabox.io-20230413081324-mm-100.0[w]x120.0[h]x69.0[d]-3.000[t]-0.0610[k]-0.025[s]
 62
7
100
AcDbPolyline
 90
2
 70
0
 10
17.417444
 20
418.627467
 30
0.0
 10
17.417444
 20
396.123221
 30
0.0
  0
LWPOLYLINE
  5
26d
100
AcDbEntity
  8
makeabox.io-20230413081324-mm-100.0[w]x120.0[h]x69.0[d]-3.000[t]-0.0610[k]-0.025[s]
 62
7
100
AcDbPolyline
 90
2
 70
0
 10
17.417444
 20
463.981548
 30
0.0
 10
17.417444
 20
441.477302
 30
0.0
  0
LWPOLYLINE
  5
26e
100
AcDbEntity
  8
makeabox.io-20230413081324-mm-100.0[w]x120.0[h]x69.0[d]-3.000[t]-0.0610[k]-0.025[s]
 62
7
100
AcDbPolyline
 90
2
 70
0
 10
17.417444
 20
509.335629
 30
0.0
 10
17.417444
 20
486.831383
 30
0.0
  0
LWPOLYLINE
  5
26f
100
AcDbEntity
  8
makeabox.io-20230413081324-mm-100.0[w]x120.0[h]x69.0[d]-3.000[t]-0.0610[k]-0.025[s]
 62
7
100
AcDbPolyline
 90
2
 70
0
 10
17.417444
 20
554.689710
 30
0.0
 10
17.417444
 20
532.185464
 30
0.0
  0
LWPOLYLINE
  5
270
100
AcDbEntity
  8
makeabox.io-20230413081324-mm-100.0[w]x120.0[h]x69.0[d]-3.000[t]-0.0610[k]-0.025[s]
 62
7
100
AcDbPolyline
 90
2
 70
0
 10
17.417444
 20
577.539545
 30
0.0
 10
39.149605
 20
577.539545
 30
0.0
  0
LWPOLYLINE
  5
271
100
AcDbEntity
  8
makeabox.io-20230413081324-mm-100.0[w]x120.0[h]x69.0[d]-3.000[t]-0.0610[k]-0.025[s]
 62
7
100
AcDbPolyline
 90
2
 70
0
 10
39.149605
 20
586.043438
 30
0.0
 10
39.149605
 20
577.539545
 30
0.0
  0
LWPOLYLINE
  5
272
100
AcDbEntity
  8
makeabox.io-20230413081324-mm-100.0[w]x120.0[h]x69.0[d]-3.000[t]-0.0610[k]-0.025[s]
 62
7
100
AcDbPolyline
 90
2
 70
0
 10
61.054565
 20
586.043438
 30
0.0
 10
39.149605
 20
586.043438
 30
0.0
  0
LWPOLYLINE
  5
273
100
AcDbEntity
  8
makeabox.io-20230413081324-mm-100.0[w]x120.0[h]x69.0[d]-3.000[t]-0.0610[k]-0.025[s]
 62
7
100
AcDbPolyline
 90
3
 70
0
 10
39.149605
 20
237.211133
 30
0.0
 10
39.149605
 20
228.707250
 30
0.0
 10
61.054565
 20
228.707250
 30
0.0
  0
LWPOLYLINE
  5
274
100
AcDbEntity
  8
makeabox.io-20230413081324-mm-100.0[w]x120.0[h]x69.0[d]-3.000[t]-0.0610[k]-0.025[s]
 62
7
100
AcDbPolyline
 90
2
 70
0
 10
61.054565
 20
577.539545
 30
0.0
 10
61.054565
 20
586.043438
 30
0.0
  0
LWPOLYLINE
  5
275
100
AcDbEntity
  8
makeabox.io-20230413081324-mm-100.0[w]x120.0[h]x69.0[d]-3.000[t]-0.0610[k]-0.025[s]
 62
7
100
AcDbPolyline
 90
2
 70
0
 10
82.613937
 20
577.539545
 30
0.0
 10
61.054565
 20
577.539545
 30
0.0
  0
LWPOLYLINE
  5
276
100
AcDbEntity
  8
makeabox.io-20230413081324-mm-100.0[w]x120.0[h]x69.0[d]-3.000[t]-0.0610[k]-0.025[s]
 62
7
100
AcDbPolyline
 90
3
 70
0
 10
61.054565
 20
228.707250
 30
0.0
 10
61.054565
 20
237.211133
 30
0.0
 10
82.613937
 20
237.211133
 30
0.0
  0
LWPOLYLINE
  5
277
100
AcDbEntity
  8
makeabox.io-20230413081324-mm-100.0[w]x120.0[h]x69.0[d]-3.000[t]-0.0610[k]-0.025[s]
 62
7
100
AcDbPolyline
 90
2
 70
0
 10
82.613937
 20
586.043438
 30
0.0
 10
82.613937
 20
577.539545
 30
0.0
  0
LWPOLYLINE
  5
278
100
AcDbEntity
  8
makeabox.io-20230413081324-mm-100.0[w]x120.0[h]x69.0[d]-3.000[t]-0.0610[k]-0.025[s]
 62
7
100
AcDbPolyline
 90
2
 70
0
 10
104.518896
 20
586.043438
 30
0.0
 10
82.613937
 20
586.043438
 30
0.0
  0
LWPOLYLINE
  5
279
100
AcDbEntity
  8
makeabox.io-20230413081324-mm-100.0[w]x120.0[h]x69.0[d]-3.000[t]-0.0610[k]-0.025[s]
 62
7
100
AcDbPolyline
 90
3
 70
0
 10
82.613937
 20
237.211133
 30
0.0
 10
82.613937
 20
228.707250
 30
0.0
 10
104.518896
 20
228.707250
 30
0.0
  0
LWPOLYLINE
  5
27a
100
AcDbEntity
  8
makeabox.io-20230413081324-mm-100.0[w]x120.0[h]x69.0[d]-3.000[t]-0.0610[k]-0.025[s]
 62
7
100
AcDbPolyline
 90
2
 70
0
 10
104.518896
 20
577.539545
 30
0.0
 10
104.518896
 20
586.043438
 30
0.0
  0
LWPOLYLINE
  5
27b
100
AcDbEntity
  8
makeabox.io-20230413081324-mm-100.0[w]x120.0[h]x69.0[d]-3.000[t]-0.0610[k]-0.025[s]
 62
7
100
AcDbPolyline
 90
2
 70
0
 10
126.078258
 20
577.539545
 30
0.0
 10
104.518896
 20
577.539545
 30
0.0
  0
LWPOLYLINE
  5
27c
100
AcDbEntity
  8
makeabox.io-20230413081324-mm-100.0[w]x120.0[h]x69.0[d]-3.000[t]-0.0610[k]-0.025[s]
 62
7
100
AcDbPolyline
 90
3
 70
0
 10
104.518896
 20
228.707250
 30
0.0
 10
104.518896
 20
237.211133
 30
0.0
 10
126.078258
 20
237.211133
 30
0.0
  0
LWPOLYLINE
  5
27d
100
AcDbEntity
  8
makeabox.io-20230413081324-mm-100.0[w]x120.0[h]x69.0[d]-3.000[t]-0.0610[k]-0.025[s]
 62
7
100
AcDbPolyline
 90
2
 70
0
 10
126.078258
 20
586.043438
 30
0.0
 10
126.078258
 20
577.539545
 30
0.0
  0
LWPOLYLINE
  5
27e
100
AcDbEntity
  8
makeabox.io-20230413081324-mm-100.0[w]x120.0[h]x69.0[d]-3.000[t]-0.0610[k]-0.025[s]
 62
7
100
AcDbPolyline
 90
2
 70
0
 10
147.983228
 20
586.043438
 30
0.0
 10
126.078258
 20
586.043438
 30
0.0
  0
LWPOLYLINE
  5
27f
100
AcDbEntity
  8
makeabox.io-20230413081324-mm-100.0[w]x120.0[h]x69.0[d]-3.000[t]-0.0610[k]-0.025[s]
 62
7
100
AcDbPolyline
 90
3
 70
0
 10
126.078258
 20
237.211133
 30
0.0
 10
126.078258
 20
228.707250
 30
0.0
 10
147.983228
 20
228.707250
 30
0.0
  0
LWPOLYLINE
  5
280
100
AcDbEntity
  8
makeabox.io-20230413081324-mm-100.0[w]x120.0[h]x69.0[d]-3.000[t]-0.0610[k]-0.025[s]
 62
7
100
AcDbPolyline
 90
2
 70
0
 10
147.983228
 20
577.539545
 30
0.0
 10
147.983228
 20
586.043438
 30
0.0
  0
LWPOLYLINE
  5
281
100
AcDbEntity
  8
makeabox.io-20230413081324-mm-100.0[w]x120.0[h]x69.0[d]-3.000[t]-0.0610[k]-0.025[s]
 62
7
100
AcDbPolyline
 90
2
 70
0
 10
169.542589
 20
577.539545
 30
0.0
 10
147.983228
 20
577.539545
 30
0.0
  0
LWPOLYLINE
  5
282
100
AcDbEntity
  8
makeabox.io-20230413081324-mm-100.0[w]x120.0[h]x69.0[d]-3.000[t]-0.0610[k]-0.025[s]
 62
7
100
AcDbPolyline
 90
3
 70
0
 10
147.983228
 20
228.707250
 30
0.0
 10
147.983228
 20
237.211133
 30
0.0
 10
169.542589
 20
237.211133
 30
0.0
  0
LWPOLYLINE
  5
283
100
AcDbEntity
  8
makeabox.io-20230413081324-mm-100.0[w]x120.0[h]x69.0[d]-3.000[t]-0.0610[k]-0.025[s]
 62
7
100
AcDbPolyline
 90
2
 70
0
 10
169.542589
 20
586.043438
 30
0.0
 10
169.542589
 20
577.539545
 30
0.0
  0
LWPOLYLINE
  5
284
100
AcDbEntity
  8
makeabox.io-20230413081324-mm-100.0[w]x120.0[h]x69.0[d]-3.000[t]-0.0610[k]-0.025[s]
 62
7
100
AcDbPolyline
 90
2
 70
0
 10
191.447549
 20
586.043438
 30
0.0
 10
169.542589
 20
586.043438
 30
0.0
  0
LWPOLYLINE
  5
285
100
AcDbEntity
  8
makeabox.io-20230413081324-mm-100.0[w]x120.0[h]x69.0[d]-3.000[t]-0.0610[k]-0.025[s]
 62
7
100
AcDbPolyline
 90
3
 70
0
 10
169.542589
 20
237.211133
 30
0.0
 10
169.542589
 20
228.707250
 30
0.0
 10
191.447549
 20
228.707250
 30
0.0
  0
LWPOLYLINE
  5
286
100
AcDbEntity
  8
makeabox.io-20230413081324-mm-100.0[w]x120.0[h]x69.0[d]-3.000[t]-0.0610[k]-0.025[s]
 62
7
100
AcDbPolyline
 90
2
 70
0
 10
191.447549
 20
577.539545
 30
0.0
 10
191.447549
 20
586.043438
 30
0.0
  0
LWPOLYLINE
  5
287
100
AcDbEntity
  8
makeabox.io-20230413081324-mm-100.0[w]x120.0[h]x69.0[d]-3.000[t]-0.0610[k]-0.025[s]
 62
7
100
AcDbPolyline
 90
2
 70
0
 10
213.179720
 20
577.539545
 30
0.0
 10
191.447549
 20
577.539545
 30
0.0
  0
LWPOLYLINE
  5
288
100
AcDbEntity
  8
makeabox.io-20230413081324-mm-100.0[w]x120.0[h]x69.0[d]-3.000[t]-0.0610[k]-0.025[s]
 62
7
100
AcDbPolyline
 90
3
 70
0
 10
191.447549
 20
228.707250
 30
0.0
 10
191.447549
 20
237.211133
 30
0.0
 10
213.179720
 20
237.211133
 30
0.0
  0
LWPOLYLINE
  5
289
100
AcDbEntity
  8
makeabox.io-20230413081324-mm-100.0[w]x120.0[h]x69.0[d]-3.000[t]-0.0610[k]-0.025[s]
 62
7
100
AcDbPolyline
 90
2
 70
0
 10
213.179720
 20
260.060977
 30
0.0
 10
213.179720
 20
282.565214
 30
0.0
  0
LWPOLYLINE
  5
28a
100
AcDbEntity
  8
makeabox.io-20230413081324-mm-100.0[w]x120.0[h]x69.0[d]-3.000[t]-0.0610[k]-0.025[s]
 62
7
100
AcDbPolyline
 90
2
 70
0
 10
221.683613
 20
260.060977
 30
0.0
 10
213.179720
 20
260.060977
 30
0.0
  0
LWPOLYLINE
  5
28b
100
AcDbEntity
  8
makeabox.io-20230413081324-mm-100.0[w]x120.0[h]x69.0[d]-3.000[t]-0.0610[k]-0.025[s]
 62
7
100
AcDbPolyline
 90
2
 70
0
 10
213.179720
 20
282.565214
 30
0.0
 10
221.683613
 20
282.565214
 30
0.0
  0
LWPOLYLINE
  5
28c
100
AcDbEntity
  8
makeabox.io-20230413081324-mm-100.0[w]x120.0[h]x69.0[d]-3.000[t]-0.0610[k]-0.025[s]
 62
7
100
AcDbPolyline
 90
2
 70
0
 10
213.179720
 20
305.415058
 30
0.0
 10
213.179720
 20
327.919295
 30
0.0
  0
LWPOLYLINE
  5
28d
100
AcDbEntity
  8
makeabox.io-20230413081324-mm-100.0[w]x120.0[h]x69.0[d]-3.000[t]-0.0610[k]-0.025[s]
 62
7
100
AcDbPolyline
 90
2
 70
0
 10
221.683613
 20
305.415058
 30
0.0
 10
213.179720
 20
305.415058
 30
0.0
  0
LWPOLYLINE
  5
28e
100
AcDbEntity
  8
makeabox.io-20230413081324-mm-100.0[w]x120.0[h]x69.0[d]-3.000[t]-0.0610[k]-0.025[s]
 62
7
100
AcDbPolyline
 90
2
 70
0
 10
213.179720
 20
327.919295
 30
0.0
 10
221.683613
 20
327.919295
 30
0.0
  0
LWPOLYLINE
  5
28f
100
AcDbEntity
  8
makeabox.io-20230413081324-mm-100.0[w]x120.0[h]x69.0[d]-3.000[t]-0.0610[k]-0.025[s]
 62
7
100
AcDbPolyline
 90
2
 70
0
 10
213.179720
 20
350.769140
 30
0.0
 10
213.179720
 20
373.273376
 30
0.0
  0
LWPOLYLINE
  5
290
100
AcDbEntity
  8
makeabox.io-20230413081324-mm-100.0[w]x120.0[h]x69.0[d]-3.000[t]-0.0610[k]-0.025[s]
 62
7
100
AcDbPolyline
 90
2
 70
0
 10
221.683613
 20
350.769140
 30
0.0
 10
213.179720
 20
350.769140
 30
0.0
  0
LWPOLYLINE
  5
291
100
AcDbEntity
  8
makeabox.io-20230413081324-mm-100.0[w]x120.0[h]x69.0[d]-3.000[t]-0.0610[k]-0.025[s]
 62
7
100
AcDbPolyline
 90
2
 70
0
 10
213.179720
 20
373.273376
 30
0.0
 10
221.683613
 20
373.273376
 30
0.0
  0
LWPOLYLINE
  5
292
100
AcDbEntity
  8
makeabox.io-20230413081324-mm-100.0[w]x120.0[h]x69.0[d]-3.000[t]-0.0610[k]-0.025[s]
 62
7
100
AcDbPolyline
 90
2
 70
0
 10
213.179720
 20
396.123221
 30
0.0
 10
213.179720
 20
418.627467
 30
0.0
  0
LWPOLYLINE
  5
293
100
AcDbEntity
  8
makeabox.io-20230413081324-mm-100.0[w]x120.0[h]x69.0[d]-3.000[t]-0.0610[k]-0.025[s]
 62
7
100
AcDbPolyline
 90
2
 70
0
 10
221.683613
 20
396.123221
 30
0.0
 10
213.179720
 20
396.123221
 30
0.0
  0
LWPOLYLINE
  5
294
100
AcDbEntity
  8
makeabox.io-20230413081324-mm-100.0[w]x120.0[h]x69.0[d]-3.000[t]-0.0610[k]-0.025[s]
 62
7
100
AcDbPolyline
 90
2
 70
0
 10
213.179720
 20
418.627467
 30
0.0
 10
221.683613
 20
418.627467
 30
0.0
  0
LWPOLYLINE
  5
295
100
AcDbEntity
  8
makeabox.io-20230413081324-mm-100.0[w]x120.0[h]x69.0[d]-3.000[t]-0.0610[k]-0.025[s]
 62
7
100
AcDbPolyline
 90
2
 70
0
 10
213.179720
 20
441.477302
 30
0.0
 10
213.179720
 20
463.981548
 30
0.0
  0
LWPOLYLINE
  5
296
100
AcDbEntity
  8
makeabox.io-20230413081324-mm-100.0[w]x120.0[h]x69.0[d]-3.000[t]-0.0610[k]-0.025[s]
 62
7
100
AcDbPolyline
 90
2
 70
0
 10
221.683613
 20
441.477302
 30
0.0
 10
213.179720
 20
441.477302
 30
0.0
  0
LWPOLYLINE
  5
297
100
AcDbEntity
  8
makeabox.io-20230413081324-mm-100.0[w]x120.0[h]x69.0[d]-3.000[t]-0.0610[k]-0.025[s]
 62
7
100
AcDbPolyline
 90
2
 70
0
 10
213.179720
 20
463.981548
 30
0.0
 10
221.683613
 20
463.981548
 30
0.0
  0
LWPOLYLINE
  5
298
100
AcDbEntity
  8
makeabox.io-20230413081324-mm-100.0[w]x120.0[h]x69.0[d]-3.000[t]-0.0610[k]-0.025[s]
 62
7
100
AcDbPolyline
 90
2
 70
0
 10
213.179720
 20
486.831383
 30
0.0
 10
213.179720
 20
509.335629
 30
0.0
  0
LWPOLYLINE
  5
299
100
AcDbEntity
  8
makeabox.io-20230413081324-mm-100.0[w]x120.0[h]x69.0[d]-3.000[t]-0.0610[k]-0.025[s]
 62
7
100
AcDbPolyline
 90
2
 70
0
 10
221.683613
 20
486.831383
 30
0.0
 10
213.179720
 20
486.831383
 30
0.0
  0
LWPOLYLINE
  5
29a
100
AcDbEntity
  8
makeabox.io-20230413081324-mm-100.0[w]x120.0[h]x69.0[d]-3.000[t]-0.0610[k]-0.025[s]
 62
7
100
AcDbPolyline
 90
2
 70
0
 10
213.179720
 20
509.335629
 30
0.0
 10
221.683613
 20
509.335629
 30
0.0
  0
LWPOLYLINE
  5
29b
100
AcDbEntity
  8
makeabox.io-20230413081324-mm-100.0[w]x120.0[h]x69.0[d]-3.000[t]-0.0610[k]-0.025[s]
 62
7
100
AcDbPolyline
 90
2
 70
0
 10
213.179720
 20
532.185464
 30
0.0
 10
213.179720
 20
554.689710
 30
0.0
  0
LWPOLYLINE
  5
29c
100
AcDbEntity
  8
makeabox.io-20230413081324-mm-100.0[w]x120.0[h]x69.0[d]-3.000[t]-0.0610[k]-0.025[s]
 62
7
100
AcDbPolyline
 90
2
 70
0
 10
221.683613
 20
532.185464
 30
0.0
 10
213.179720
 20
532.185464
 30
0.0
  0
LWPOLYLINE
  5
29d
100
AcDbEntity
  8
makeabox.io-20230413081324-mm-100.0[w]x120.0[h]x69.0[d]-3.000[t]-0.0610[k]-0.025[s]
 62
7
100
AcDbPolyline
 90
2
 70
0
 10
213.179720
 20
554.689710
 30
0.0
 10
221.683613
 20
554.689710
 30
0.0
  0
LWPOLYLINE
  5
29e
100
AcDbEntity
  8
makeabox.io-20230413081324-mm-100.0[w]x120.0[h]x69.0[d]-3.000[t]-0.0610[k]-0.025[s]
 62
7
100
AcDbPolyline
 90
2
 70
0
 10
221.683613
 20
577.539545
 30
0.0
 10
213.179720
 20
577.539545
 30
0.0
  0
LWPOLYLINE
  5
29f
100
AcDbEntity
  8
makeabox.io-20230413081324-mm-100.0[w]x120.0[h]x69.0[d]-3.000[t]-0.0610[k]-0.025[s]
 62
7
100
AcDbPolyline
 90
3
 70
0
 10
213.179720
 20
237.211133
 30
0.0
 10
221.683613
 20
237.211133
 30
0.0
 10
221.683613
 20
260.060977
 30
0.0
  0
LWPOLYLINE
  5
2a0
100
AcDbEntity
  8
makeabox.io-20230413081324-mm-100.0[w]x120.0[h]x69.0[d]-3.000[t]-0.0610[k]-0.025[s]
 62
7
100
AcDbPolyline
 90
2
 70
0
 10
221.683613
 20
282.565214
 30
0.0
 10
221.683613
 20
305.415058
 30
0.0
  0
LWPOLYLINE
  5
2a1
100
AcDbEntity
  8
makeabox.io-20230413081324-mm-100.0[w]x120.0[h]x69.0[d]-3.000[t]-0.0610[k]-0.025[s]
 62
7
100
AcDbPolyline
 90
2
 70
0
 10
221.683613
 20
327.919295
 30
0.0
 10
221.683613
 20
350.769140
 30
0.0
  0
LWPOLYLINE
  5
2a2
100
AcDbEntity
  8
makeabox.io-20230413081324-mm-100.0[w]x120.0[h]x69.0[d]-3.000[t]-0.0610[k]-0.025[s]
 62
7
100
AcDbPolyline
 90
2
 70
0
 10
221.683613
 20
373.273376
 30
0.0
 10
221.683613
 20
396.123221
 30
0.0
  0
LWPOLYLINE
  5
2a3
100
AcDbEntity
  8
makeabox.io-20230413081324-mm-100.0[w]x120.0[h]x69.0[d]-3.000[t]-0.0610[k]-0.025[s]
 62
7
100
AcDbPolyline
 90
2
 70
0
 10
221.683613
 20
418.627467
 30
0.0
 10
221.683613
 20
441.477302
 30
0.0
  0
LWPOLYLINE
  5
2a4
100
AcDbEntity
  8
makeabox.io-20230413081324-mm-100.0[w]x120.0[h]x69.0[d]-3.000[t]-0.0610[k]-0.025[s]
 62
7
100
AcDbPolyline
 90
2
 70
0
 10
221.683613
 20
463.981548
 30
0.0
 10
221.683613
 20
486.831383
 30
0.0
  0
LWPOLYLINE
  5
2a5
100
AcDbEntity
  8
makeabox.io-20230413081324-mm-100.0[w]x120.0[h]x69.0[d]-3.000[t]-0.0610[k]-0.025[s]
 62
7
100
AcDbPolyline
 90
2
 70
0
 10
221.683613
 20
509.335629
 30
0.0
 10
221.683613
 20
532.185464
 30
0.0
  0
LWPOLYLINE
  5
2a6
100
AcDbEntity
  8
makeabox.io-20230413081324-mm-100.0[w]x120.0[h]x69.0[d]-3.000[t]-0.0610[k]-0.025[s]
 62
7
100
AcDbPolyline
 90
2
 70
0
 10
221.683613
 20
554.689710
 30
0.0
 10
221.683613
 20
577.539545
 30
0.0
  0
LWPOLYLINE
  5
2a7
100
AcDbEntity
  8
makeabox.io-20230413081324-mm-100.0[w]x120.0[h]x69.0[d]-3.000[t]-0.0610[k]-0.025[s]
 62
7
100
AcDbPolyline
 90
3
 70
0
 10
536.381526
 20
260.060977
 30
0.0
 10
536.381526
 20
237.211133
 30
0.0
 10
544.885409
 20
237.211133
 30
0.0
  0
LWPOLYLINE
  5
2a8
100
AcDbEntity
  8
makeabox.io-20230413081324-mm-100.0[w]x120.0[h]x69.0[d]-3.000[t]-0.0610[k]-0.025[s]
 62
7
100
AcDbPolyline
 90
2
 70
0
 10
544.885409
 20
260.060977
 30
0.0
 10
536.381526
 20
260.060977
 30
0.0
  0
LWPOLYLINE
  5
2a9
100
AcDbEntity
  8
makeabox.io-20230413081324-mm-100.0[w]x120.0[h]x69.0[d]-3.000[t]-0.0610[k]-0.025[s]
 62
7
100
AcDbPolyline
 90
3
 70
0
 10
536.381526
 20
305.415058
 30
0.0
 10
536.381526
 20
282.565214
 30
0.0
 10
544.885409
 20
282.565214
 30
0.0
  0
LWPOLYLINE
  5
2aa
100
AcDbEntity
  8
makeabox.io-20230413081324-mm-100.0[w]x120.0[h]x69.0[d]-3.000[t]-0.0610[k]-0.025[s]
 62
7
100
AcDbPolyline
 90
2
 70
0
 10
544.885409
 20
305.415058
 30
0.0
 10
536.381526
 20
305.415058
 30
0.0
  0
LWPOLYLINE
  5
2ab
100
AcDbEntity
  8
makeabox.io-20230413081324-mm-100.0[w]x120.0[h]x69.0[d]-3.000[t]-0.0610[k]-0.025[s]
 62
7
100
AcDbPolyline
 90
3
 70
0
 10
536.381526
 20
350.769140
 30
0.0
 10
536.381526
 20
327.919295
 30
0.0
 10
544.885409
 20
327.919295
 30
0.0
  0
LWPOLYLINE
  5
2ac
100
AcDbEntity
  8
makeabox.io-20230413081324-mm-100.0[w]x120.0[h]x69.0[d]-3.000[t]-0.0610[k]-0.025[s]
 62
7
100
AcDbPolyline
 90
2
 70
0
 10
544.885409
 20
350.769140
 30
0.0
 10
536.381526
 20
350.769140
 30
0.0
  0
LWPOLYLINE
  5
2ad
100
AcDbEntity
  8
makeabox.io-20230413081324-mm-100.0[w]x120.0[h]x69.0[d]-3.000[t]-0.0610[k]-0.025[s]
 62
7
100
AcDbPolyline
 90
3
 70
0
 10
536.381526
 20
396.123221
 30
0.0
 10
536.381526
 20
373.273376
 30
0.0
 10
544.885409
 20
373.273376
 30
0.0
  0
LWPOLYLINE
  5
2ae
100
AcDbEntity
  8
makeabox.io-20230413081324-mm-100.0[w]x120.0[h]x69.0[d]-3.000[t]-0.0610[k]-0.025[s]
 62
7
100
AcDbPolyline
 90
2
 70
0
 10
544.885409
 20
396.123221
 30
0.0
 10
536.381526
 20
396.123221
 30
0.0
  0
LWPOLYLINE
  5
2af
100
AcDbEntity
  8
makeabox.io-20230413081324-mm-100.0[w]x120.0[h]x69.0[d]-3.000[t]-0.0610[k]-0.025[s]
 62
7
100
AcDbPolyline
 90
3
 70
0
 10
536.381526
 20
441.477302
 30
0.0
 10
536.381526
 20
418.627467
 30
0.0
 10
544.885409
 20
418.627467
 30
0.0
  0
LWPOLYLINE
  5
2b0
100
AcDbEntity
  8
makeabox.io-20230413081324-mm-100.0[w]x120.0[h]x69.0[d]-3.000[t]-0.0610[k]-0.025[s]
 62
7
100
AcDbPolyline
 90
2
 70
0
 10
544.885409
 20
441.477302
 30
0.0
 10
536.381526
 20
441.477302
 30
0.0
  0
LWPOLYLINE
  5
2b1
100
AcDbEntity
  8
makeabox.io-20230413081324-mm-100.0[w]x120.0[h]x69.0[d]-3.000[t]-0.0610[k]-0.025[s]
 62
7
100
AcDbPolyline
 90
3
 70
0
 10
536.381526
 20
486.831383
 30
0.0
 10
536.381526
 20
463.981548
 30
0.0
 10
544.885409
 20
463.981548
 30
0.0
  0
LWPOLYLINE
  5
2b2
100
AcDbEntity
  8
makeabox.io-20230413081324-mm-100.0[w]x120.0[h]x69.0[d]-3.000[t]-0.0610[k]-0.025[s]
 62
7
100
AcDbPolyline
 90
2
 70
0
 10
544.885409
 20
486.831383
 30
0.0
 10
536.381526
 20
486.831383
 30
0.0
  0
LWPOLYLINE
  5
2b3
100
AcDbEntity
  8
makeabox.io-20230413081324-mm-100.0[w]x120.0[h]x69.0[d]-3.000[t]-0.0610[k]-0.025[s]
 62
7
100
AcDbPolyline
 90
3
 70
0
 10
536.381526
 20
532.185464
 30
0.0
 10
536.381526
 20
509.335629
 30
0.0
 10
544.885409
 20
509.335629
 30
0.0
  0
LWPOLYLINE
  5
2b4
100
AcDbEntity
  8
makeabox.io-20230413081324-mm-100.0[w]x120.0[h]x69.0[d]-3.000[t]-0.0610[k]-0.025[s]
 62
7
100
AcDbPolyline
 90
2
 70
0
 10
544.885409
 20
532.185464
 30
0.0
 10
536.381526
 20
532.185464
 30
0.0
  0
LWPOLYLINE
  5
2b5
100
AcDbEntity
  8
makeabox.io-20230413081324-mm-100.0[w]x120.0[h]x69.0[d]-3.000[t]-0.0610[k]-0.025[s]
 62
7
100
AcDbPolyline
 90
3
 70
0
 10
536.381526
 20
577.539545
 30
0.0
 10
536.381526
 20
554.689710
 30
0.0
 10
544.885409
 20
554.689710
 30
0.0
  0
LWPOLYLINE
  5
2b6
100
AcDbEntity
  8
makeabox.io-20230413081324-mm-100.0[w]x120.0[h]x69.0[d]-3.000[t]-0.0610[k]-0.025[s]
 62
7
100
AcDbPolyline
 90
2
 70
0
 10
536.381526
 20
577.539545
 30
0.0
 10
544.885409
 20
577.539545
 30
0.0
  0
LWPOLYLINE
  5
2b7
100
AcDbEntity
  8
makeabox.io-20230413081324-mm-100.0[w]x120.0[h]x69.0[d]-3.000[t]-0.0610[k]-0.025[s]
 62
7
100
AcDbPolyline
 90
2
 70
0
 10
544.885409
 20
237.211133
 30
0.0
 10
566.617580
 20
237.211133
 30
0.0
  0
LWPOLYLINE
  5
2b8
100
AcDbEntity
  8
makeabox.io-20230413081324-mm-100.0[w]x120.0[h]x69.0[d]-3.000[t]-0.0610[k]-0.025[s]
 62
7
100
AcDbPolyline
 90
2
 70
0
 10
544.885409
 20
282.565214
 30
0.0
 10
544.885409
 20
260.060977
 30
0.0
  0
LWPOLYLINE
  5
2b9
100
AcDbEntity
  8
makeabox.io-20230413081324-mm-100.0[w]x120.0[h]x69.0[d]-3.000[t]-0.0610[k]-0.025[s]
 62
7
100
AcDbPolyline
 90
2
 70
0
 10
544.885409
 20
327.919295
 30
0.0
 10
544.885409
 20
305.415058
 30
0.0
  0
LWPOLYLINE
  5
2ba
100
AcDbEntity
  8
makeabox.io-20230413081324-mm-100.0[w]x120.0[h]x69.0[d]-3.000[t]-0.0610[k]-0.025[s]
 62
7
100
AcDbPolyline
 90
2
 70
0
 10
544.885409
 20
373.273376
 30
0.0
 10
544.885409
 20
350.769140
 30
0.0
  0
LWPOLYLINE
  5
2bb
100
AcDbEntity
  8
makeabox.io-20230413081324-mm-100.0[w]x120.0[h]x69.0[d]-3.000[t]-0.0610[k]-0.025[s]
 62
7
100
AcDbPolyline
 90
2
 70
0
 10
544.885409
 20
418.627467
 30
0.0
 10
544.885409
 20
396.123221
 30
0.0
  0
LWPOLYLINE
  5
2bc
100
AcDbEntity
  8
makeabox.io-20230413081324-mm-100.0[w]x120.0[h]x69.0[d]-3.000[t]-0.0610[k]-0.025[s]
 62
7
100
AcDbPolyline
 90
2
 70
0
 10
544.885409
 20
463.981548
 30
0.0
 10
544.885409
 20
441.477302
 30
0.0
  0
LWPOLYLINE
  5
2bd
100
AcDbEntity
  8
makeabox.io-20230413081324-mm-100.0[w]x120.0[h]x69.0[d]-3.000[t]-0.0610[k]-0.025[s]
 62
7
100
AcDbPolyline
 90
2
 70
0
 10
544.885409
 20
509.335629
 30
0.0
 10
544.885409
 20
486.831383
 30
0.0
  0
LWPOLYLINE
  5
2be
100
AcDbEntity
  8
makeabox.io-20230413081324-mm-100.0[w]x120.0[h]x69.0[d]-3.000[t]-0.0610[k]-0.025[s]
 62
7
100
AcDbPolyline
 90
2
 70
0
 10
544.885409
 20
554.689710
 30
0.0
 10
544.885409
 20
532.185464
 30
0.0
  0
LWPOLYLINE
  5
2bf
100
AcDbEntity
  8
makeabox.io-20230413081324-mm-100.0[w]x120.0[h]x69.0[d]-3.000[t]-0.0610[k]-0.025[s]
 62
7
100
AcDbPolyline
 90
2
 70
0
 10
544.885409
 20
577.539545
 30
0.0
 10
566.617580
 20
577.539545
 30
0.0
  0
LWPOLYLINE
  5
2c0
100
AcDbEntity
  8
makeabox.io-20230413081324-mm-100.0[w]x120.0[h]x69.0[d]-3.000[t]-0.0610[k]-0.025[s]
 62
7
100
AcDbPolyline
 90
2
 70
0
 10
566.617580
 20
586.043438
 30
0.0
 10
566.617580
 20
577.539545
 30
0.0
  0
LWPOLYLINE
  5
2c1
100
AcDbEntity
  8
makeabox.io-20230413081324-mm-100.0[w]x120.0[h]x69.0[d]-3.000[t]-0.0610[k]-0.025[s]
 62
7
100
AcDbPolyline
 90
2
 70
0
 10
588.522539
 20
586.043438
 30
0.0
 10
566.617580
 20
586.043438
 30
0.0
  0
LWPOLYLINE
  5
2c2
100
AcDbEntity
  8
makeabox.io-20230413081324-mm-100.0[w]x120.0[h]x69.0[d]-3.000[t]-0.0610[k]-0.025[s]
 62
7
100
AcDbPolyline
 90
3
 70
0
 10
566.617580
 20
237.211133
 30
0.0
 10
566.617580
 20
228.707250
 30
0.0
 10
588.522539
 20
228.707250
 30
0.0
  0
LWPOLYLINE
  5
2c3
100
AcDbEntity
  8
makeabox.io-20230413081324-mm-100.0[w]x120.0[h]x69.0[d]-3.000[t]-0.0610[k]-0.025[s]
 62
7
100
AcDbPolyline
 90
2
 70
0
 10
588.522539
 20
577.539545
 30
0.0
 10
588.522539
 20
586.043438
 30
0.0
  0
LWPOLYLINE
  5
2c4
100
AcDbEntity
  8
makeabox.io-20230413081324-mm-100.0[w]x120.0[h]x69.0[d]-3.000[t]-0.0610[k]-0.025[s]
 62
7
100
AcDbPolyline
 90
2
 70
0
 10
610.081901
 20
577.539545
 30
0.0
 10
588.522539
 20
577.539545
 30
0.0
  0
LWPOLYLINE
  5
2c5
100
AcDbEntity
  8
makeabox.io-20230413081324-mm-100.0[w]x120.0[h]x69.0[d]-3.000[t]-0.0610[k]-0.025[s]
 62
7
100
AcDbPolyline
 90
3
 70
0
 10
588.522539
 20
228.707250
 30
0.0
 10
588.522539
 20
237.211133
 30
0.0
 10
610.081901
 20
237.211133
 30
0.0
  0
LWPOLYLINE
  5
2c6
100
AcDbEntity
  8
makeabox.io-20230413081324-mm-100.0[w]x120.0[h]x69.0[d]-3.000[t]-0.0610[k]-0.025[s]
 62
7
100
AcDbPolyline
 90
2
 70
0
 10
610.081901
 20
586.043438
 30
0.0
 10
610.081901
 20
577.539545
 30
0.0
  0
LWPOLYLINE
  5
2c7
100
AcDbEntity
  8
makeabox.io-20230413081324-mm-100.0[w]x120.0[h]x69.0[d]-3.000[t]-0.0610[k]-0.025[s]
 62
7
100
AcDbPolyline
 90
2
 70
0
 10
631.986871
 20
586.043438
 30
0.0
 10
610.081901
 20
586.043438
 30
0.0
  0
LWPOLYLINE
  5
2c8
100
AcDbEntity
  8
makeabox.io-20230413081324-mm-100.0[w]x120.0[h]x69.0[d]-3.000[t]-0.0610[k]-0.025[s]
 62
7
100
AcDbPolyline
 90
3
 70
0
 10
610.081901
 20
237.211133
 30
0.0
 10
610.081901
 20
228.707250
 30
0.0
 10
631.986871
 20
228.707250
 30
0.0
  0
LWPOLYLINE
  5
2c9
100
AcDbEntity
  8
makeabox.io-20230413081324-mm-100.0[w]x120.0[h]x69.0[d]-3.000[t]-0.0610[k]-0.025[s]
 62
7
100
AcDbPolyline
 90
2
 70
0
 10
631.986871
 20
577.539545
 30
0.0
 10
631.986871
 20
586.043438
 30
0.0
  0
LWPOLYLINE
  5
2ca
100
AcDbEntity
  8
makeabox.io-20230413081324-mm-100.0[w]x120.0[h]x69.0[d]-3.000[t]-0.0610[k]-0.025[s]
 62
7
100
AcDbPolyline
 90
2
 70
0
 10
653.546232
 20
577.539545
 30
0.0
 10
631.986871
 20
577.539545
 30
0.0
  0
LWPOLYLINE
  5
2cb
100
AcDbEntity
  8
makeabox.io-20230413081324-mm-100.0[w]x120.0[h]x69.0[d]-3.000[t]-0.0610[k]-0.025[s]
 62
7
100
AcDbPolyline
 90
3
 70
0
 10
631.986871
 20
228.707250
 30
0.0
 10
631.986871
 20
237.211133
 30
0.0
 10
653.546232
 20
237.211133
 30
0.0
  0
LWPOLYLINE
  5
2cc
100
AcDbEntity
  8
makeabox.io-20230413081324-mm-100.0[w]x120.0[h]x69.0[d]-3.000[t]-0.0610[k]-0.025[s]
 62
7
100
AcDbPolyline
 90
2
 70
0
 10
653.546232
 20
586.043438
 30
0.0
 10
653.546232
 20
577.539545
 30
0.0
  0
LWPOLYLINE
  5
2cd
100
AcDbEntity
  8
makeabox.io-20230413081324-mm-100.0[w]x120.0[h]x69.0[d]-3.000[t]-0.0610[k]-0.025[s]
 62
7
100
AcDbPolyline
 90
2
 70
0
 10
675.451192
 20
586.043438
 30
0.0
 10
653.546232
 20
586.043438
 30
0.0
  0
LWPOLYLINE
  5
2ce
100
AcDbEntity
  8
makeabox.io-20230413081324-mm-100.0[w]x120.0[h]x69.0[d]-3.000[t]-0.0610[k]-0.025[s]
 62
7
100
AcDbPolyline
 90
3
 70
0
 10
653.546232
 20
237.211133
 30
0.0
 10
653.546232
 20
228.707250
 30
0.0
 10
675.451192
 20
228.707250
 30
0.0
  0
LWPOLYLINE
  5
2cf
100
AcDbEntity
  8
makeabox.io-20230413081324-mm-100.0[w]x120.0[h]x69.0[d]-3.000[t]-0.0610[k]-0.025[s]
 62
7
100
AcDbPolyline
 90
2
 70
0
 10
675.451192
 20
577.539545
 30
0.0
 10
675.451192
 20
586.043438
 30
0.0
  0
LWPOLYLINE
  5
2d0
100
AcDbEntity
  8
makeabox.io-20230413081324-mm-100.0[w]x120.0[h]x69.0[d]-3.000[t]-0.0610[k]-0.025[s]
 62
7
100
AcDbPolyline
 90
2
 70
0
 10
697.010564
 20
577.539545
 30
0.0
 10
675.451192
 20
577.539545
 30
0.0
  0
LWPOLYLINE
  5
2d1
100
AcDbEntity
  8
makeabox.io-20230413081324-mm-100.0[w]x120.0[h]x69.0[d]-3.000[t]-0.0610[k]-0.025[s]
 62
7
100
AcDbPolyline
 90
3
 70
0
 10
675.451192
 20
228.707250
 30
0.0
 10
675.451192
 20
237.211133
 30
0.0
 10
697.010564
 20
237.211133
 30
0.0
  0
LWPOLYLINE
  5
2d2
100
AcDbEntity
  8
makeabox.io-20230413081324-mm-100.0[w]x120.0[h]x69.0[d]-3.000[t]-0.0610[k]-0.025[s]
 62
7
100
AcDbPolyline
 90
2
 70
0
 10
697.010564
 20
586.043438
 30
0.0
 10
697.010564
 20
577.539545
 30
0.0
  0
LWPOLYLINE
  5
2d3
100
AcDbEntity
  8
makeabox.io-20230413081324-mm-100.0[w]x120.0[h]x69.0[d]-3.000[t]-0.0610[k]-0.025[s]
 62
7
100
AcDbPolyline
 90
2
 70
0
 10
718.915524
 20
586.043438
 30
0.0
 10
697.010564
 20
586.043438
 30
0.0
  0
LWPOLYLINE
  5
2d4
100
AcDbEntity
  8
makeabox.io-20230413081324-mm-100.0[w]x120.0[h]x69.0[d]-3.000[t]-0.0610[k]-0.025[s]
 62
7
100
AcDbPolyline
 90
3
 70
0
 10
697.010564
 20
237.211133
 30
0.0
 10
697.010564
 20
228.707250
 30
0.0
 10
718.915524
 20
228.707250
 30
0.0
  0
LWPOLYLINE
  5
2d5
100
AcDbEntity
  8
makeabox.io-20230413081324-mm-100.0[w]x120.0[h]x69.0[d]-3.000[t]-0.0610[k]-0.025[s]
 62
7
100
AcDbPolyline
 90
2
 70
0
 10
718.915524
 20
577.539545
 30
0.0
 10
718.915524
 20
586.043438
 30
0.0
  0
LWPOLYLINE
  5
2d6
100
AcDbEntity
  8
makeabox.io-20230413081324-mm-100.0[w]x120.0[h]x69.0[d]-3.000[t]-0.0610[k]-0.025[s]
 62
7
100
AcDbPolyline
 90
2
 70
0
 10
740.647684
 20
577.539545
 30
0.0
 10
718.915524
 20
577.539545
 30
0.0
  0
LWPOLYLINE
  5
2d7
100
AcDbEntity
  8
makeabox.io-20230413081324-mm-100.0[w]x120.0[h]x69.0[d]-3.000[t]-0.0610[k]-0.025[s]
 62
7
100
AcDbPolyline
 90
4
 70
0
 10
718.915524
 20
228.707250
 30
0.0
 10
718.915524
 20
237.211133
 30
0.0
 10
740.647684
 20
237.211133
 30
0.0
 10
749.151578
 20
237.211133
 30
0.0
  0
LWPOLYLINE
  5
2d8
100
AcDbEntity
  8
makeabox.io-20230413081324-mm-100.0[w]x120.0[h]x69.0[d]-3.000[t]-0.0610[k]-0.025[s]
 62
7
100
AcDbPolyline
 90
2
 70
0
 10
740.647684
 20
260.060977
 30
0.0
 10
740.647684
 20
282.565214
 30
0.0
  0
LWPOLYLINE
  5
2d9
100
AcDbEntity
  8
makeabox.io-20230413081324-mm-100.0[w]x120.0[h]x69.0[d]-3.000[t]-0.0610[k]-0.025[s]
 62
7
100
AcDbPolyline
 90
2
 70
0
 10
749.151578
 20
260.060977
 30
0.0
 10
740.647684
 20
260.060977
 30
0.0
  0
LWPOLYLINE
  5
2da
100
AcDbEntity
  8
makeabox.io-20230413081324-mm-100.0[w]x120.0[h]x69.0[d]-3.000[t]-0.0610[k]-0.025[s]
 62
7
100
AcDbPolyline
 90
2
 70
0
 10
740.647684
 20
282.565214
 30
0.0
 10
749.151578
 20
282.565214
 30
0.0
  0
LWPOLYLINE
  5
2db
100
AcDbEntity
  8
makeabox.io-20230413081324-mm-100.0[w]x120.0[h]x69.0[d]-3.000[t]-0.0610[k]-0.025[s]
 62
7
100
AcDbPolyline
 90
2
 70
0
 10
740.647684
 20
305.415058
 30
0.0
 10
740.647684
 20
327.919295
 30
0.0
  0
LWPOLYLINE
  5
2dc
100
AcDbEntity
  8
makeabox.io-20230413081324-mm-100.0[w]x120.0[h]x69.0[d]-3.000[t]-0.0610[k]-0.025[s]
 62
7
100
AcDbPolyline
 90
2
 70
0
 10
749.151578
 20
305.415058
 30
0.0
 10
740.647684
 20
305.415058
 30
0.0
  0
LWPOLYLINE
  5
2dd
100
AcDbEntity
  8
makeabox.io-20230413081324-mm-100.0[w]x120.0[h]x69.0[d]-3.000[t]-0.0610[k]-0.025[s]
 62
7
100
AcDbPolyline
 90
2
 70
0
 10
740.647684
 20
327.919295
 30
0.0
 10
749.151578
 20
327.919295
 30
0.0
  0
LWPOLYLINE
  5
2de
100
AcDbEntity
  8
makeabox.io-20230413081324-mm-100.0[w]x120.0[h]x69.0[d]-3.000[t]-0.0610[k]-0.025[s]
 62
7
100
AcDbPolyline
 90
2
 70
0
 10
740.647684
 20
350.769140
 30
0.0
 10
740.647684
 20
373.273376
 30
0.0
  0
LWPOLYLINE
  5
2df
100
AcDbEntity
  8
makeabox.io-20230413081324-mm-100.0[w]x120.0[h]x69.0[d]-3.000[t]-0.0610[k]-0.025[s]
 62
7
100
AcDbPolyline
 90
2
 70
0
 10
749.151578
 20
350.769140
 30
0.0
 10
740.647684
 20
350.769140
 30
0.0
  0
LWPOLYLINE
  5
2e0
100
AcDbEntity
  8
makeabox.io-20230413081324-mm-100.0[w]x120.0[h]x69.0[d]-3.000[t]-0.0610[k]-0.025[s]
 62
7
100
AcDbPolyline
 90
2
 70
0
 10
740.647684
 20
373.273376
 30
0.0
 10
749.151578
 20
373.273376
 30
0.0
  0
LWPOLYLINE
  5
2e1
100
AcDbEntity
  8
makeabox.io-20230413081324-mm-100.0[w]x120.0[h]x69.0[d]-3.000[t]-0.0610[k]-0.025[s]
 62
7
100
AcDbPolyline
 90
2
 70
0
 10
740.647684
 20
396.123221
 30
0.0
 10
740.647684
 20
418.627467
 30
0.0
  0
LWPOLYLINE
  5
2e2
100
AcDbEntity
  8
makeabox.io-20230413081324-mm-100.0[w]x120.0[h]x69.0[d]-3.000[t]-0.0610[k]-0.025[s]
 62
7
100
AcDbPolyline
 90
2
 70
0
 10
749.151578
 20
396.123221
 30
0.0
 10
740.647684
 20
396.123221
 30
0.0
  0
LWPOLYLINE
  5
2e3
100
AcDbEntity
  8
makeabox.io-20230413081324-mm-100.0[w]x120.0[h]x69.0[d]-3.000[t]-0.0610[k]-0.025[s]
 62
7
100
AcDbPolyline
 90
2
 70
0
 10
740.647684
 20
418.627467
 30
0.0
 10
749.151578
 20
418.627467
 30
0.0
  0
LWPOLYLINE
  5
2e4
100
AcDbEntity
  8
makeabox.io-20230413081324-mm-100.0[w]x120.0[h]x69.0[d]-3.000[t]-0.0610[k]-0.025[s]
 62
7
100
AcDbPolyline
 90
2
 70
0
 10
740.647684
 20
441.477302
 30
0.0
 10
740.647684
 20
463.981548
 30
0.0
  0
LWPOLYLINE
  5
2e5
100
AcDbEntity
  8
makeabox.io-20230413081324-mm-100.0[w]x120.0[h]x69.0[d]-3.000[t]-0.0610[k]-0.025[s]
 62
7
100
AcDbPolyline
 90
2
 70
0
 10
749.151578
 20
441.477302
 30
0.0
 10
740.647684
 20
441.477302
 30
0.0
  0
LWPOLYLINE
  5
2e6
100
AcDbEntity
  8
makeabox.io-20230413081324-mm-100.0[w]x120.0[h]x69.0[d]-3.000[t]-0.0610[k]-0.025[s]
 62
7
100
AcDbPolyline
 90
2
 70
0
 10
740.647684
 20
463.981548
 30
0.0
 10
749.151578
 20
463.981548
 30
0.0
  0
LWPOLYLINE
  5
2e7
100
AcDbEntity
  8
makeabox.io-20230413081324-mm-100.0[w]x120.0[h]x69.0[d]-3.000[t]-0.0610[k]-0.025[s]
 62
7
100
AcDbPolyline
 90
2
 70
0
 10
740.647684
 20
486.831383
 30
0.0
 10
740.647684
 20
509.335629
 30
0.0
  0
LWPOLYLINE
  5
2e8
100
AcDbEntity
  8
makeabox.io-20230413081324-mm-100.0[w]x120.0[h]x69.0[d]-3.000[t]-0.0610[k]-0.025[s]
 62
7
100
AcDbPolyline
 90
2
 70
0
 10
749.151578
 20
486.831383
 30
0.0
 10
740.647684
 20
486.831383
 30
0.0
  0
LWPOLYLINE
  5
2e9
100
AcDbEntity
  8
makeabox.io-20230413081324-mm-100.0[w]x120.0[h]x69.0[d]-3.000[t]-0.0610[k]-0.025[s]
 62
7
100
AcDbPolyline
 90
2
 70
0
 10
740.647684
 20
509.335629
 30
0.0
 10
749.151578
 20
509.335629
 30
0.0
  0
LWPOLYLINE
  5
2ea
100
AcDbEntity
  8
makeabox.io-20230413081324-mm-100.0[w]x120.0[h]x69.0[d]-3.000[t]-0.0610[k]-0.025[s]
 62
7
100
AcDbPolyline
 90
2
 70
0
 10
740.647684
 20
532.185464
 30
0.0
 10
740.647684
 20
554.689710
 30
0.0
  0
LWPOLYLINE
  5
2eb
100
AcDbEntity
  8
makeabox.io-20230413081324-mm-100.0[w]x120.0[h]x69.0[d]-3.000[t]-0.0610[k]-0.025[s]
 62
7
100
AcDbPolyline
 90
2
 70
0
 10
749.151578
 20
532.185464
 30
0.0
 10
740.647684
 20
532.185464
 30
0.0
  0
LWPOLYLINE
  5
2ec
100
AcDbEntity
  8
makeabox.io-20230413081324-mm-100.0[w]x120.0[h]x69.0[d]-3.000[t]-0.0610[k]-0.025[s]
 62
7
100
AcDbPolyline
 90
2
 70
0
 10
740.647684
 20
554.689710
 30
0.0
 10
749.151578
 20
554.689710
 30
0.0
  0
LWPOLYLINE
  5
2ed
100
AcDbEntity
  8
makeabox.io-20230413081324-mm-100.0[w]x120.0[h]x69.0[d]-3.000[t]-0.0610[k]-0.025[s]
 62
7
100
AcDbPolyline
 90
2
 70
0
 10
749.151578
 20
577.539545
 30
0.0
 10
740.647684
 20
577.539545
 30
0.0
  0
LWPOLYLINE
  5
2ee
100
AcDbEntity
  8
makeabox.io-20230413081324-mm-100.0[w]x120.0[h]x69.0[d]-3.000[t]-0.0610[k]-0.025[s]
 62
7
100
AcDbPolyline
 90
2
 70
0
 10
749.151578
 20
237.211133
 30
0.0
 10
749.151578
 20
260.060977
 30
0.0
  0
LWPOLYLINE
  5
2ef
100
AcDbEntity
  8
makeabox.io-20230413081324-mm-100.0[w]x120.0[h]x69.0[d]-3.000[t]-0.0610[k]-0.025[s]
 62
7
100
AcDbPolyline
 90
2
 70
0
 10
749.151578
 20
282.565214
 30
0.0
 10
749.151578
 20
305.415058
 30
0.0
  0
LWPOLYLINE
  5
2f0
100
AcDbEntity
  8
makeabox.io-20230413081324-mm-100.0[w]x120.0[h]x69.0[d]-3.000[t]-0.0610[k]-0.025[s]
 62
7
100
AcDbPolyline
 90
2
 70
0
 10
749.151578
 20
327.919295
 30
0.0
 10
749.151578
 20
350.769140
 30
0.0
  0
LWPOLYLINE
  5
2f1
100
AcDbEntity
  8
makeabox.io-20230413081324-mm-100.0[w]x120.0[h]x69.0[d]-3.000[t]-0.0610[k]-0.025[s]
 62
7
100
AcDbPolyline
 90
2
 70
0
 10
749.151578
 20
373.273376
 30
0.0
 10
749.151578
 20
396.123221
 30
0.0
  0
LWPOLYLINE
  5
2f2
100
AcDbEntity
  8
makeabox.io-20230413081324-mm-100.0[w]x120.0[h]x69.0[d]-3.000[t]-0.0610[k]-0.025[s]
 62
7
100
AcDbPolyline
 90
2
 70
0
 10
749.151578
 20
418.627467
 30
0.0
 10
749.151578
 20
441.477302
 30
0.0
  0
LWPOLYLINE
  5
2f3
100
AcDbEntity
  8
makeabox.io-20230413081324-mm-100.0[w]x120.0[h]x69.0[d]-3.000[t]-0.0610[k]-0.025[s]
 62
7
100
AcDbPolyline
 90
2
 70
0
 10
749.151578
 20
463.981548
 30
0.0
 10
749.151578
 20
486.831383
 30
0.0
  0
LWPOLYLINE
  5
2f4
100
AcDbEntity
  8
makeabox.io-20230413081324-mm-100.0[w]x120.0[h]x69.0[d]-3.000[t]-0.0610[k]-0.025[s]
 62
7
100
AcDbPolyline
 90
2
 70
0
 10
749.151578
 20
509.335629
 30
0.0
 10
749.151578
 20
532.185464
 30
0.0
  0
LWPOLYLINE
  5
2f5
100
AcDbEntity
  8
makeabox.io-20230413081324-mm-100.0[w]x120.0[h]x69.0[d]-3.000[t]-0.0610[k]-0.025[s]
 62
7
100
AcDbPolyline
 90
2
 70
0
 10
749.151578
 20
554.689710
 30
0.0
 10
749.151578
 20
577.539545
 30
0.0
  0
ENDSEC
  0
SECTION
  2
OBJECTS
  0
DICTIONARY
  5
C
330
0
100
AcDbDictionary
  3
ACAD_GROUP
350
D
  3
ACAD_MLINESTYLE
350
17
  0
DICTIONARY
  5
D
330
C
100
AcDbDictionary
  0
DICTIONARY
  5
1A
330
C
100
AcDbDictionary
  0
DICTIONARY
  5
17
330
C
100
AcDbDictionary
  3
STANDARD
350
18
  0
DICTIONARY
  5
19
330
C
100
AcDbDictionary
  0
ENDSEC
  0
EOF
